<svg xmlns="http://www.w3.org/2000/svg" id="Layer_2" data-name="Layer 2" viewBox="0 0 474.5 450.3">
  <defs>
    <style>
      .cls-1{fill:#3fa9f5}.cls-2{fill:#084fb5}.cls-3{fill:#fcbc2b}.cls-4{fill:#81d9fc}.cls-5{fill:#0027b7}
    </style>
  </defs>
  <g id="Layer_1-2" data-name="Layer 1">
    <path d="M60.9 332.1q2-.2 3.7-1.3.6-.6 1.3-.9 1-.3 2.1-.4c1.2-.4 2.1-1.4 3.3-1.7q.8-.2 1.7-.2a17 17 0 0 0 9-5.3c2-2.1 2.3-4.5 3.5-7q1.8-4.1 5-7.3c4-3.6 8.9-4.2 13.1-1 9 5.2 17 11.5 25.6 17.4 2.6 2.2 5.7 3.7 8.3 5.8l4.9 3.9q1.8 1.4 3.8 2.7c3.5 2.7 7 5 10.4 7.9s7 5.3 11 6.9c8.9 2.4 13.7 5.2 16 10 3 2.1 4.7 5.6 3.2 9.5 3.7 4 1.4 10.2 2.2 15.2 2.8 15 4 29.9 11.2 43.9q2.6 1.4 3.7 5a36 36 0 0 0 12.1 14.3q3.7.1 7.4.8c34.6-1.6 31.7-17.7 46.7-42 .4-5.7 6.7-10.5 12.2-8.9 15-4.6 30.1-9.5 45.4-13.7 10.9-2.3 20-10.8 31.4-9.5 3.5 1.2 6.5 1.8 9 5.1 8 10.2 39.5 1 45.5-9l-.2-.1c9.5-20.6 6-21.3 26.6-30.7 3.2-1.6 3.9-9.8 6-14.2 3.6-8 9.8-7.4 14.2-12.4 12.4-13 19.5-65.3.4-69 .5-4.3 3.9-26.3 3.6-30.3 48-62.6-85.4-106.5-123.8-120.1-1.5-2.4.4-12.4-1.9-17.2-3.3-7.5-16.2 1.7-20.6 1.3-14.6-20.8-37.3-69.4-57-69-73.1-23-166.3-11.6-207 65.2C47.6 90 31 90 22.3 93.8-4.5 108.5 11 140.1 9.7 176.1c-13.7-1.5-11.5 29.5-2 44.5 1.5 4.8.2 14.8 4 18.6 5.4 5.4 16.3 14 17.6 23.7 2 9 1.6 18.6 3.5 27.7q.8 4.9 2.5 9.5l5.5 14q1.3 4 3.1 7.8c1.8 3.8 3.7 4.5 6 6.2q2.5 1.9 5.5 3.2 2.6 1 5.5.7Z" class="cls-2"/>
    <path d="M451.7 176q.4 4.5-1.4.1c-2.6 3.7-6.2-13.8-16.2-17.8q3.2 5.4-3.5 12.1-4.7 13.8-9.4 4.1c-34.4-42.4-74.5-76.9-116.4-72.2l-2.2-2.6-8.8 1c-.9 4-4.7 3.9-5.4-1-3 1.1-1.5-3-1-5.7l26.4-3.3-8-14.9.2-4.2c-1.8-2.9-1.1-4.1 1-2.2l12.8 20.4q4.4 7 10.1 8.3a448 448 0 0 1 114.8 51c5.1 3.5 10.4 4.8 14.2 12.4q-5.8 5-7.2 14.4" class="cls-1"/>
    <path d="m246.9 12.7-.7 1.7c-24.4 5.8-49.9 10.7-74 20.1q-10.6.3-20.8-7a75 75 0 0 0-56 13.5l-4.5-.4c-11 .4 21-19.5 23.5-18.4C155.2 7.8 206.2-3.6 247 12.7M48.8 88.4c1.7-1 2.2-.6 1.2 2.5q.9 4-2.3 6.4L86 110c6 8.2-8 10-12 16.6l1.3 2.2c-2.3 5.5-3 15.6 1.2 18q-1.5 3-4.4 3.2.3 2.5-1 1.9c-1.2-14-28.3-18.4-35.3-20.2L17 129c-6.8 1.8-4.6 17-4.3 22.6q-.4 2.3-1 0L10 138.8c-.5-4.1 2.2-14.8 4.6-14.5 15.7 2.3 33.7 1.8 49.1 10.6-6-15.4-38-12-47.6-15.9 6.6-31.5 7.1-16.2 32.8-30.7Z" class="cls-4"/>
    <path d="M164.3 307.4c3.5 1.7 6.2 4.6 10.2 4.4.3 5-2.4 8.5-4.9 7.3-5.6-2.4-107.9-52.9-87-61a431 431 0 0 0 81.7 49.3" class="cls-1"/>
    <path d="M115.5 310c1.6 2.6 1 3-1 2.4l-30.7-20C65.4 258.3 75.1 203 56.1 162c-9.3-4-20.2-10.8-23.7 12.3-2.2 3.3-1.7-5.9-1.2-9.4 2-6.5 5-18.6 10-18.9 23.3-2 22.5 19.8 26.8 38.6l-4.4-5a326 326 0 0 1 9.3 50.6c2.8 16.5 3.5 51.4 13 59.4zM253.6 433.5c9.1-8 9.3-26.6 13.7-23.7-4.7 27.5-24.2 45.8-52.9 39-13-8-17.7-29-22-43-9.8-44.9-13.3-95.5 6.7-138 1.7-4.6 19-27 19.1-13.3-46.3-1.5-46.5 249 35.4 179ZM278.6 26.2c1.6 3.5 1 3.5-1.1 2.7-35-.9-73.1-2.4-106.8 21.6q4.1 36 10.4 71.5c9 2.7-1.4 14.8-6.3.4l-10.3-67.7c-.4-9.8.8-14.4 5.6-17.4 27.8-17 68.5-23 98-15.2-1.8.4-10.3-3.6-6.3-5.3a28 28 0 0 1 16.8 9.4" class="cls-1"/>
    <path d="M59.8 331.8c-5.2 0-10.6-4.7-14.3-7.9-5.3-12.8-11.5-25.8-13.3-39.7-4.2-13.5-5-131.8 23.4-108.4-32.6-1-28.3 111.2-9.3 143.3 7 14 23.6 6.7 34.9 0 2.2-1.4 2.8-9.5 6-8.8-1.4 13.5-14.9 21-27.4 21.5Z" class="cls-1"/>
    <path d="M65.2 231.7c.2 3.4-.5 3.4-1.2.1l-2-1.6C46 129.5 28.6 315 57.3 286l2.2-.2c5.2-7.8-2.5 18.8-6.8 13.8l-7-3.5c-24.3-48.7 9.3-162.2 19.6-64.4Z" class="cls-1"/>
    <path d="M466.6 203.7c-7.2 13.2-13.7-11.8-7.8-20.7 8.5-8 16.8 6.7 7.8 20.7" class="cls-3"/>
    <path d="M371.2 376.7c15.2-1.4 31.2-3.3 44.2-21.4-6.7 21.4-32.4 29.3-44.2 21.4M32.4 174.3c-3.7 16.3-4.9 46.1-6.7 64-.3 4.7-3.7 1.7-5 .5-3.9-3.5-8.2-5-9-15.1 4.6 5 7.3 11.3 13 12.2 1.3-19.6 4.1-52.4 6.5-71-.1 3.4-.3 7.4 1.2 9.4M337.2 94.5c-7.2-.5-11.6.4-15.2-10.4 6-1.1 17.4-11.3 15.2 10.4M161.7 342.9q-1.3.3-1.9 2l-45.3-32.5 1-2.4zM454.3 204c-3.4-2.1-4.2-7.1-3.7-15.5q-1.5-7.5-.3-12.4l1.4-.2c1.9 8.9 4.3-15.7 13-8.4-10.5 5.4-12.8 18.3-10.4 36.4M60.7 288.1a18 18 0 0 1-2.2-6c5.6-13.3 5.6-29.8 4.1-46.1l1.5-4.2 1-.1c2.7 31.2 3 31-4.4 56.4M261.8 16.8v2.4q-12.4 0-24.7-1.4l-2-2.2c1.7-2.7 5.6-1.2 11.8-3 4.9-1.4 10.1 3 15 4.2M16.1 106.7l-7.5 22.1C8 117 15 100.6 16.1 106.7M11.8 151.6h1c.1 4 .3 8.2-.5 12.2-1 .2-.4-11.8-.5-12.2M255.6 20.7c2-.1 4.6 1.5 6.2-1.4 2 .7 4.2.4 6.3 2.7-1.2-.7-12.5 2.8-12.5-1.3" class="cls-1"/>
    <path d="M19.7 213.6c-3.7 5.4-11 1.2-13.8-4.8-2.5-5.4-4.6-22.7-1-26.2 5.4-2.5 19 15.7 14.8 31" class="cls-1"/>
    <path d="M17.9 208.4c.2 4.6-7.8 2.5-11.5-2.8-1.6-2.2-1.8-8.2-1.6-12.4 5.5 4 13 11.2 13.1 15.2" class="cls-2"/>
    <path d="m77.5 175.9-1.3 2-5-26.1 1-2c.6-.3 1.6-.7 2 .1.6 2 4.4 20.5 4.5 22.5z" class="cls-1"/>
    <path d="M76.6 146.7c20.6 6.9 43.1 16.9 63.6 22.8 10.2 2.7 19.9 6.9 29.6 15.7-1 16.1-7.2 94.5-6 109-11-1.5-21.2-7-31.6-13.3-11.7-8.2-33.8-16.8-44-30.3-2.5-8.4-8.8-64.4-10.7-74.7l-5.3-26c-.3-5.7 3-3.9 4.5-3.2Z" class="cls-2"/>
    <path d="M90.7 161c-4 4.6-8.7-6.4-11.4 3-1.2-2.2-1.8-4-1.8-7.7z" class="cls-1"/>
    <path d="M297.4 249.8c-4.9-26.5 12.2-29.5 21.4-25.1 2.8 24.3-13.9 58-21.4 25" class="cls-3"/>
    <path d="M450.3 176.1c4.3 14.2 2.4 40.8-5.4 47.4-5.7 3.8-11 2.3-14.8-6.7-3.7 17.4 13.4 17 18 10l4.5-8.6c8.3 9-2 27 2.6 39.3a20 20 0 0 1-8 7.5c-20 8.2-61.7 24.7-82 32.6-30.8 10-84.1 42.5-115 25.2-4.5-1.8-7.4-3.7-8-14.6-1.6-25.7-8.4-33.9-13.4-53.7 3.8-.6 5.5 4.7 8 8.9-1.7-20-10-29.6-11.8-39.4 1.5-14.3 10.1 18.3 12 21 10.8-.4 9.4 7.7 22.7.4 12-.8 10.4 41.8 30.2 19.8 7.4 19.2 21.7 14.8 30.2-3.5 2.5 15.5 8 21.2 15.3 19.5 19.3-3.3 58.6-14.8 77-25.9 13.7-18 22.7-77.1.8-84.1-18 7-65.6 13.8-81.6 30.6l-6.5 14.7c-.8-30.7 26-31 37.4-36l47.4-13.5c-7.5-15.5-29.7-28.8-42.4-36.9-3.3-.5-14.4-3.1-16.1-8.5q-2.5-.3-1.9 2.1c2.9.6 15 3.6 16 8.8l27.1 19.7c3.9 2.8 7.9 4.6 10.6 12l-36.1 9.3L364 157c-49.5-6.5-15 26.8-78.7-16.9-1.2-5 2.3-9 4.9-8.1l32.7 10.3c-.4 6.4-1.4 10.8-.7 16.7 2.4-3.6 2.4-8.8 3.8-13.3 9.7-4 17-9.6 16.9 2.5l2.1-7.4c19.1-3.4 9.8 3.1 17.2 5.6-.5-5.2-2.9-8.1-5.4-9l-24.9-8.7c-25-12-34.3 3.7-52.4-6.7 5.9-8.7 12.3-9.6 18.9-14.3-2.3-1.8-10.2.6-5.6-6.9C344 86.2 395 136.5 425.6 176.4a30 30 0 0 1 9-14.6c-64.3-32.9 4-21.2 15.7 14.3" class="cls-2"/>
    <path d="m351.4 121.6 16 8.5q-1.2.5-1.9 2.4l-16-8.8q-.6-3 1.9-2.1M320.7 300.8c-3.5-5-6-9.9-7.7-16.4 6.9-.6 5 16.7 13.9 10.9 18.6-6.5 72.4-24.8 89.8-34l9.3-25.9c6.5-5.8-7.3 29.6-6.5 29.4a451 451 0 0 1-98.8 36" class="cls-1"/>
    <path d="M447.6 207.1c-6.6 24.6-22.8 2.3-15.1-18.2 7.8-14.3 23.2-5.4 15.1 18.2" class="cls-3"/>
    <path d="m243.5 266.2 8.7 52.3c-6.4-13.7-7.5-31.9-11-48.4-.3-1.4.3-4.7 2.2-4M440.2 168.1c-5.5 3.7-9.4 8.7-11.7 19.9-3.3-14 6.4-24.6 11.7-19.9M351.4 121.6q-1.2.2-1.9 2.1c-.1-.8-16.1-8.2-15-10.3zM297.4 304.3a23 23 0 0 1-20 7.7c-4.3-17 1.1-24.5 18.7-22.5 1.7 2.1 2.3 11.3 1.3 14.8" class="cls-1"/>
    <path d="M295.1 301.6a28 28 0 0 1-14.8 5c-1.7.1-2.6-8.2-1.4-9.5l15.7-3c.9-.2 1.4 7 .5 7.5Z" class="cls-2"/>
    <path d="M448.5 252.2c-3.4 4.4-8.6 8.3-12.7 6.9-1.8-3.3-1.2-14.7 1.3-17 5.5-5.8 18.1-8.4 11.4 10" class="cls-1"/>
    <path d="M438.5 254.3c-2.6.7-2.8-6.5-.8-8l9.1-3.5c.9.8.9 7 0 7.4zM154.4 59.1c2.4.6 4.2 22 4.6 26.2.6 1.4 5 26 4.6 25-2.7-8.6 2.2-6.3 3.6-1.1 1 5.7.1 11.6-.5 17 0-1.3-.5-3-.6-4-1.4-.4-1.5-5-1.5-7.7 0-.5 1 7.7-.4 7.6-10.1 36.5 9.5 25.2 4.8 41.3-1.9 5.5-11-2.9-10-7.6 1.2-5.2 1.4-5.7.5-9.4-1.4-5.3-3.5-1.6-4.9-2.5L137 132c-1.3-1-1.6-7.5-1.7-10.2-38.8-21.9-43.9 14.6-29-70.7 8.7-4.3 47-15.6 48.2 8Z" class="cls-2"/>
    <path d="M160.1 85q0 5.2-1.1.3l-4.6-26.2q1-1.2 1.2-3.6zM166 122.2h-1.8c.1-2.7-.3-5.4.5-9.2z" class="cls-1"/>
    <path d="M163.3 104.3c.4 2 1 4 .9 7.3-3.7-3.1-4-20-5.2-26.3l1.1-.3zM154.7 78q.5 5.3-1 3.7c-14.3-8.2-29-13-44.2-17.1-1.2.9-1.6 5.4-1.9 7.3-1.9 4.2-1.7-.2-1-4.4-.8-23.7 35.8-17.2 43.9-13.1zM159.8 129.3c-1.8 3.8-2 2.4-1.7-2.4l-3 1.9-12.3-4.7-2.4-4c-1 3.3-1.5 1.1-1-2.4.4-1.7.6-7.1 2.2-7.2 6.6 0 13.6.4 19.9 5 1.4 3.4-.5 11-1.6 13.8Z" class="cls-1"/>
    <path d="M107.6 71.9c-1.4 8.8-4 19.9-4 31.5l13.7 4.5c4.9 5.7-13.4-1.9-13.4-1.6-1.5-.4-3.6-3.2-3-6.7l5.7-32.1c-.3 2.2-.3 3.8 1 4.4ZM140.4 120q1.8.3 1.7 4.7L155 132q1.4-3.8 3.1-5l1.7 2.3c-1.9 8-2.6 10-7 8.3-8.4-6.2-17.4-6.4-13.5-20q.3 2.3 1 2.4Z" class="cls-1"/>
    <path d="m116.3 110.3 1-2.4c6.3 2 12.8 2.5 18.8 8.4zM153.6 81.7q.8-1.5 1.1-3.7l4.4 29q-.4.8-.9 1.2z" class="cls-1"/>
    <path d="M158.1 127c.2 3-1.4 9.5-3.5 8.3l-13.7-7.6c-1-.8-.7-6.5-.5-7.6 6 1.3 12 3 17.7 6.8Z" class="cls-2"/>
    <path d="M155.6 55.5q.6 6-1.2 3.6-2.2.8-2.9-5.1c-8.6-9.3-35.7-5.2-43.8-.2.3 3.4-12.8 52.8-5 54 25 10.4 34 3.1 35 21.2 33 24 15.2 7 26.5-6.9 0-5 .9-4 1.9 0q.9 0 .6 4 5.1 1.5 10.8 6c20-9.1 124.3 42.7 124 66.3 3-4 10.6-2.6 8.5 6-5.2 2.9-9.6 8.6-11.7 18.7l-2.1 1.4c.7 6.7-.5 22.7-3.5 26.5q1.5 2.5-.2 8c6.2 15.6 17.3 15.7 23.3-.6q3.3-15.6 6.5-8.2 1.7 18.8 8.6 22.5c-2.6-19.9-7-50-14.3-65.4-35.9-41.4-78.9-59.9-118.8-74.8-1.1-1.9-.7-4 .3-6a340 340 0 0 1 84.7-22.4l1.2 2.7c.9-4.9 8.8-5.7 9.7 0 2-6.5 8-1.7 3.7 5.2a67 67 0 0 0-13.4 8.7q12 3.2 24-.6 25 3.9 49.1 13.8c9.7 3.5 7.1 25.5-.3 10a21 21 0 0 0-10.3.2q-2.4 7.6-4.7 4.7c.4-8.2-14.2-1.6-14.8-.6-.3.4-2.5 11-2.4 11.7 11.2-.8 29.2-15.1 40.2-5.6q2.1 7.3 3.6 15.3l30.7-8q-16.3-13.6-33.3-25.1l-.3-4c-2.3-3.9 3-2 4.3-3.5 2.4-3 45 28.8 40.9 39.4 26.5 2.2 19 64.8 3.8 88.2a216 216 0 0 1-81.8 28.3c-6-.6-10.4-5.3-13.1-16.4-9.1 13.6-21.2 19-30.2 1.4-21 21.6-19-33-36.5-18.4a41 41 0 0 1-17.4-4.9c3.4 10 4.3 26-3 13.9a191 191 0 0 1 12.6 54.3c32.4 34.2 168.3-47.4 203-53.9q5.7-1.8 4.2-14.5 3-14.3.6-23.7c-4 13.8-22.4 17.4-25 1.8-1.7-10.5 2.9-12.8 6.3-5.2 7.4 7.1 14.7-.4 16-16.1l2-1.3q.5-5.3 2.1 2l5.4 12.8c1.3 13-5 27.4-3.4 32.4s6.7 0 11 11.5c5.3 21-3.4 47.2-14.8 51.8-10.8 5.4-9 20.6-17.4 23.1-31.7 2.2-165.9 91.8-180.5 42.7l6.5 9.8c41.7 7 98.4-29.3 139.4-43.8l35.5-13.5c2.5-1 4.7-5.4 4.6-9.3-46.2 18.4-120 56-167.3 61.2-6.2 1.3-19.6-8.2-27-17.7-7-8.9-8.4-27.7-8-42.2l3.5-4.2-5-29.3-12.1-38.6-7.5-13.7c-10.8-19.2-28.7-2.3-31.9 23.3-1.5 12.4-6.6 76-11.4 86.4l6 1.1c-3.6 10.8-15.2-1.7-20.1-2.8q-1-3.5 1.9-2l8.8 2.6c9-18.6 9.1-61 12.3-84.7 1-11.6 10.6-22.6 4.7-24.3 4-14.5 11.8-20 11-29.7-1.3-15.2-17-13.5-26.2-20.5-2.3 32.8-7.2 78.6-6.2 111.5l-9.7-.2C75.7 252 87 271.6 76 177.8c-.3-3.1 0-4.2 1.4-2l2 1.1q4.7 35.7 9.9 71.1c17.2 17.2 52 37.7 72.6 41.6q1.5-51 5.8-101.8c-23.9-19.2-64.6-25.3-90.2-37.3l-1-3.9c-6.4-1.2-6.5-11.7-1.2-17.9l-.2-2.6a158 158 0 0 1 17.1-14.4c12.1-76.8 3.8-68.4 45-76 5.3.2 16.5.7 19.1 10.1.9 3.1 1.2 8.3-.8 9.7Z" class="cls-4"/>
    <path d="M461.4 291.4c4 28.6-130.5 67.7-147.4 78-15.4 2.5-40.4 18-54.8 1.5-4.2-4-10.3-3.8-13-12.9-2.3-8.6-7.3-20.7-5.3-31 14.2 1.2 28.2 8 42.5 4.8a788 788 0 0 0 53-19.3c30-10.3 74.6-28 104.4-39 9.6-3.6 17-18 19.9-15.6.4.4.4 2.4.1 3.5-9 17-10.1 11.3-23.9 21.6-33.3 10.9-102.5 38.2-137 51.1l-28.3 6-23.8-3.6c-3 16.2 11 21.5 16.9 21.5 30.2 11.3 60.8-6.4 90.7-15.5 29.8-13 78.9-23.7 106-51.1ZM107.5 150.8C97 146.2 87 148 77.6 140.5c30.6.6 64 21.7 93.5 33 7.6-26.2 13.6-18.4-7-32.3-.6-.4-.4-4 0-4 29.2 13.5 12 16.3 7.6 46.6-1.8-1.7-2-4.2-3-6.2z" class="cls-2"/>
    <path d="M253 206.6c-5.9-3.8-32.5-26.3-38.7-31.5-7.7-6.4-16.2-8.1-23.3-19.6l45.2 32.4c5 4.5 13.7 7.7 16.8 18.7" class="cls-5"/>
    <path d="M223.4 218.6c-3.2 2.8-5-3.5-7.2-3.4l-16.4.6c-.3-3.2 1-6 2.7-6l14-.1c2.8 0 5.9 3 6.9 8.9M302.6 99.7c-7 3.6-10.8-2.2-8.9 7l-9.7.1c-.2-5.7 0-9.6 4.4-7zM299.2 228.9c-1 6.6.8 14.4-1.8 20.9q-2.6-1.7-4.7 1.3c.9-7.2 1.9-19.3 3.5-26.6-.2 3.8 1.5 3.8 3 4.4" class="cls-2"/>
    <path d="M457 230c-.4-2.6-.5-4.4 0-7.3 1 1.7 1.3 4.6 0 7.3" class="cls-1"/>
    <path d="m273 230.6 8.5-10.3c-8-6.3-13.3 10.6-13 25.5-4.8 7.5-3.8-28.6 8-32.5-.3-1.2-22.3-21.1-20.8-23.5l20 16.4 11.4 13.9c7 8.4 6.8 25.1 2 38.2-9.2 21.7-24.2-5.6-16-27.7" class="cls-2"/>
    <path d="M285.6 256.4c-4.6 6.8-13.7-3.2-10.6-15 5.7-14.1 21-5 10.6 15" class="cls-3"/>
    <path d="M258.6 236.7c-2.2 12.7-28 6.3-17.9-16.6 8-5.6 19.3 7.8 17.9 16.6" class="cls-5"/>
    <path d="M255.6 234.7c-5.5 6-18 1.1-12.5-10.5 4.5.2 8.8 2.5 12.5 10.5" class="cls-1"/>
    <path d="M363.8 265.7c-19 7.5-33 20-32.6-31.6-.2-38.7 23.1-38.6 37.5-44.8l40.1-12c8-3.7 15.5 6 14.9 23-.7 18-5 43.8-11.6 46.4z" class="cls-2"/>
    <path d="M360 261.8c-7.5 3-14.4 5.6-21.5 4.4-2.4-20.9-2.8-52.3 5.2-55.1l64.4-23c5.5-2 6.2 22 3.2 41.7-1 6.6-4.8 12.8-8.5 14.3z" class="cls-1"/>
    <path d="M368.1 218.7c.1-4 .2-6.2-.9-8.9-1.3 3.4-.9 5.8-1 9.1a16 16 0 0 1-7.7 2.6c0-3.4 0-5.5-1-8.1-1.5 2.7-1.4 5.2-1.5 8.5l-7.6 4c0-4.5 0-7.3-.7-10-3.6 3.3 1.4 15-7.7 10.8 0-7.8 2.8-11 6.2-12.2l58-21.5-1.2 9.7-6.1 2.9c0-3 .5-5 0-5.6-1-.7-2 .4-2.1 2.2-.5 6.9-6 7.7-6.6 6.8-.6-.8-1-3.3-1.2-6-1.7 2.2-1.4 4.5-1.4 7.6-3 2.1-5.3 3.2-8.4 3.8.4-3.4.3-6.4-1.3-7.6-1.2 6.9.6 12-7.8 12M385 228c-1.2 3.7-4.9 3.8-7.4 4.4q-1-5.7-.3-12.6 4.1-3.2 8.2-3.7c0 3.7.6 8.3-.5 12" class="cls-2"/>
    <path d="m385 246.8-7.5 2.6q-.7-5.2 0-11.5l7.5-4zM365.3 236.2c-1 3.5-4.6 3.2-6.7 3.5q-.6-5.8 0-13a11 11 0 0 1 7-2.4c.4 3.7.9 8-.3 12Z" class="cls-5"/>
    <path d="M345.8 242.6c-.6 2-5 4-6.1 2.4-.5-.7-.8-9.3-.2-11.5.4-1.9 5.9-3.4 6-3.2.9 1 .9 10 .3 12.3M375 232.6q-3 4-6.4 3.5-2.5-15.5 6-15.2c.5 3.3.4 6.6.4 11.7M355.7 240a11 11 0 0 1-7 2.2c-.2-4.4-.3-7.7.1-11.8l7-3z" class="cls-2"/>
    <path d="M346 248.3c.8 4 2.5 15.2-4.6 13.5-2.1-.3-2.3-4.6-2-8.2.6-5.7 6.3-6 6.7-5.3" class="cls-5"/>
    <path d="M366.4 251.3c-2.2 3.4-5.1 3-7.8 4.3-2.3-11.9 3.3-13.1 7.2-13 .6 1 .8 4.3.6 8.7M393.4 224.6c-.6 1.7-5 3.4-5.2 3.1-.6-.6-.7-8.7 0-11.6.5-2.1 5.1-4.4 6-3.6.3.3.1 9.4-.8 12.1M404.2 220.4c-.1-9.1 1.6-17.5 6.5-15.8 1 9.9-1.4 17.5-6.5 15.8" class="cls-2"/>
    <path d="M401.1 221a4.6 4.6 0 0 1-5 3c-1-10.4 1.5-16 6.7-16-.3 5.2-.3 9.3-1.7 13Z" class="cls-5"/>
    <path d="M355 255.9c-1.2 3-4.1 2.9-5.7 2.8-1.5-9.4 1-13.8 6-13 .3 2 1 7.3-.3 10.2ZM402.8 240.6c-.1-5 .1-9.3.8-14l5.4-3.3c.5 8-1 15-6.2 17.3" class="cls-2"/>
    <path d="M374.8 240.3c1.3 9.7-.9 12.3-5.3 11.4-1.5-.6-1.1-8.4.2-10.2 1.2-1.5 4.6-3.7 5.1-1.2" class="cls-5"/>
    <path d="M387.8 245.3c-.7-8 0-15.8 5.2-14.4 1.1 9.2.7 15.3-5.2 14.4M399.7 227.7c1.4.1 1.2 11.3.3 13.3-.6 1.3-2.7 2.3-4 2.3-1.5-5.2-.5-17 3.7-15.6" class="cls-2"/>
    <path d="M409.8 193.1c2.3 4.3-2.7 9.3-3.8 7-1.3-5.8.6-10.7 3.8-7M307 69.4l-1 2.2-1.7 1.7q-12.2-22.5-26-40.2l-.8-4.2 1.1-2.7c5.3 4.4 23.7 35.7 28.4 43.2" class="cls-1"/>
    <path d="M277.5 28.9c6.3 3.8 12 15 17 23.4 1.6 4.9 28.4 40.7 18.8 42l-16 1.7c-33.2 6.6-66.6 9.4-100 25.9q-8.5 3.4-16.2 0c-5-2.9-10.2-60-12.3-68-.7-4.5 1.2-7.9 3.3-9.1 33.5-17.1 71.3-27.3 105.4-16" class="cls-2"/>
    <path d="M177.6 48c1.7-.5 1.8.8.3 2.6l-1.3 4.4c0 3.8 5 49.2 8 53.6 6.2-5.8 72-20.7 81.9-23a132 132 0 0 1-24.7-18l-40-19.8L200 44q-3.6-1-3.5-4.1c75.6-12.8 76-26 114 48.4-6 5.1-11.5 1.8-17.8 2.2-37.7-1.2-74.4 20.6-111.2 24.4l-8.9-54.5c-1.6-7.9 1.3-11.8 5-12.3" class="cls-4"/>
    <path d="m196.5 39.8 3.5 4.1q-2 4.5-6.8 3.6l-13.7 6-1.6-2.9-.3-2.6z" class="cls-1"/>
    <path d="M200 43.9c10.1 3.2 32 16 42.4 20.5l17.5 14.2c4 3 8.2 1.9 11.7 9.2-23.4 7.7-64.2 11.7-86.1 24-1.8 1.1-3.5-1.7-4-4.9 1-5-12.1-55.7-3.6-56.3 5.3-1.9 16.8-9 22-6.7Z" class="cls-2"/>
    <path d="M235 389.8c-21.4 83.7-57-46.6-29-99 9.3-7.6 19.5 1 24.5 18.4 6.8 24.6 6.7 52.9 4.5 80.6" class="cls-1"/>
    <path d="M215.4 411.4c-24.3-20.3-23-135.2 3.1-117.3 18.5 12.6 26 119.8-3.2 117.3" class="cls-2"/>
    <path d="M227.4 391.6c-24 40.3-37.5-82.8-15-91.1 21 3.3 19.9 60 15 91.1" class="cls-1"/>
    <path d="M219.7 368.6c3.3 5.6 7.3 16.2 2.4 19.7-2-6-3.8-12.6-2.4-19.8M228.2 361.4c3.5 13.6-6.8 7.2-6-4q3.1-1 6 4" class="cls-2"/>
    <path d="M216 394.1a35 35 0 0 1-1-21.8c1.3 6.7 2.6 12.5 1 21.8" class="cls-5"/>
    <path d="m216.7 312.2 2.9 1-1.4 15.6-2.9-1zM229.1 341.5l.3 5.7-6.6 1.3-.3-5.7z" class="cls-1"/>
    <path d="M209.8 325.4q-3-9-.3-18.2c2 5.5 2.4 11.5.3 18.2M209.1 387.3a46 46 0 0 1 .3-17.4 29 29 0 0 1-.3 17.4" class="cls-2"/>
    <path d="m224.5 324.2 1.6 3.2-4.7 9-1.6-3.1z" class="cls-1"/>
    <path d="M206.5 332.2c-.6 4.6-5.2-1.1-3.7-4.3.8-1.8 4 2 3.7 4.3M204.9 345.4v6.4l-2.5.1-.1-6.4z" class="cls-2"/>
    <path d="M207.4 366.4c-1 3.7-1.7 5.4-3 3.2-1-3.4 2.3-9.2 3-3.3M218.7 363.4c-1 5.5-6.8 5.3-8.8 2-5.1-8.3-5.1-26.3-1.2-29.8 7.3-5 12.6 13.7 10 27.8" class="cls-5"/>
    <path d="M216.4 356.7c-8.3 2.6-11.1-16.6-5.2-16.6 3.3 1.8 5 8.5 5.2 16.6" class="cls-1"/>
    <path d="M64 231.8c1.2 11 1.7 23.7.4 35.6-6.7 40.4-21.4 32.2-24-6.3-1.3-25.6.3-61.2 10.9-63 8.2-1.3 11 16.8 12.7 33.7" class="cls-2"/>
    <path d="M42.5 249c.2-1.8 3.4-1 3-6q-1.3-.4-3.5 1.2l.4-16.1c3.8 10 6 3.7.8-2.5-1.7-10 6.7-20.5 10.4-18.1 6.2 4 9.5 34.2 8 56-3.3 33.2-21.1 17.5-19.1-14.6" class="cls-1"/>
    <path d="M53.8 227a19 19 0 0 1 1-14.6c1.6 4.2.7 10.8-1 14.6M54.4 258.9l1.5 15.3-2 .8-1.5-15.3zM48.7 226.3c-2-3.2-3-9-1.1-14.1 1.8 3.6 1.7 9 1 14M60.6 264c-3.3 1.5-5.6-3.9-5.4-9.4 2.3 1.8 4.3 4 5.4 9.4M58.6 233.7l-2 1.5c-1.9 1-1-4.3.3-5.3 2.6-4 3.8 1.2 1.6 3.8" class="cls-1"/>
    <path d="M56.1 244h4.4v3.5h-4.4zM45 262.8c-.8-.4-.9-6.6.4-6.6 1.5 0 1.5 5.9-.4 6.6" class="cls-5"/>
    <path d="m50.2 257.7-.6 17.7-1.1-.1-.8-18.6c-1.8-7.1-3.2-20.4 1.6-24 4.3-3.4 9.1 24.2.9 25" class="cls-5"/>
    <path d="M52 247.4c-3.1 5.2-6-9.5-2-10.2 1.5 0 3.3 7.4 2 10.2" class="cls-1"/>
    <path d="M235.2 15.6q13.4-1 26.6 3.6c.2 3.7-4.5 3-6.2 1.5-27.4 1.4-61 2.8-87 21-7.3 6.8 7.7 68.7 7.6 77.8 1 7.2 5.5 6.3 8.4 6.2.7-2.8 5.5-3 6.2-.1l6.3-1.8c20.9-14 64.7-28.3 87-22.4 2.5.2 2.3 4.3-.1 5.4l-39 6.7c-11.4 4.5-36 13.2-47.4 16.1 29.6 10.3 103.6 42.6 123.8 82.8 4.9 18.2 9.2 44.7 12 64.5-9.6-.5-10-11-13.1-28-7.4 44.3-36.2 19.7-27.6 2.1 1.4-6.1 3.1-8 4.7-1.3l2.2 1.3c6.8 28.2 21.2-15 17.6-23.5-1-2.4-13.7-.6-15.8 3l-2.2-1.6c-8 11.3-.8-26.4 10.8-27.5-12-9.3-17 24.2-19.4 21.5-2.7-3 3.9-19.3 10.8-28-28.4-27.9-87.5-60.7-114.8-60.3-6.2 2-10.7 2.2-16.5-3.9-6.9-2.9-.5-13.8-6.7-26.4-2.3 1.4-3.2-16.4-3.3-19.3-2.2-7.8-4.4-20.1-4.5-29.5C156.7 28 120.2 43 105.4 47c-3.4 19.5-9.6 43.3-11 63.8l34.7 13.8c1.8.7 3.5 1.7 3.2 6.7-4.3-.9-36.4-17-39.7-16.2-7.6 7.3-12.4 6.2-17.2 13.5-2.9 2.4-7.4 3.5-5.2 13.5-11.8-7.6 7.4-23.4 16.6-28.6L41.6 98.8l8.4-8c26.2-45.7 62.3-74.3 100.9-67 16.3 8.5 17.8 9.7 35 3 16.2-4 33.2-10 49.3-11.2Z" class="cls-2"/>
    <path d="M89 38q.6 2.2 2 2.6l-2.4 5.6C75.3 57.2 63 75 52 92.5l-2-1.6q-.4-1.3-1.1-2.5c4.1-3 7.2-9.7 10.8-15.4 9-14.7 19-25.9 29.4-35ZM286.6 97.6q.5 1.8 1.8 2.1l-4.4 1.7c-30.8-3.4-68.6 20.7-99.4 24.3l-3.5-3.7c7.2.7 14.4-1 22-4a233 233 0 0 1 83.5-20.4M86 106.2q0-3 3.8-3.3l-1.3-3L95 60.6a119 119 0 0 0-31.7 35c1 3.8-3.8 3.2-5.5 1.2 7.4-14.2 29.3-45.7 42.7-46.9l-9 58z" class="cls-1"/>
    <path d="m89.8 102.9-3.9 3.3-25.8-8c1.3-.4 2.4-.8 3.2-2.7 0-7.9 22.2 3.6 25.3 4z" class="cls-1"/>
    <path d="M197.1 123.9c-2 .7-3.8 1.6-6.3 1.7 1.7-3 4.2-2 6.3-1.7M89.8 102.9c-4.4.7-21.8-6.3-26.5-7.4-5-3.8 28.7-40.6 32.5-39.4 3.6 2.4-5.9 42.2-6 46.8" class="cls-2"/>
    <path d="M86.8 97.8a22 22 0 0 1-18.3-9l24.3-24.6z" class="cls-1"/>
    <path d="m85.8 95.2-14.9-4.9c3.3-7.2 7.5-10.1 11.8-13.8 2.3-2 4.3-5.7 7.5-5.2-.6 8.6-2.6 14.5-4.5 23.9Z" class="cls-2"/>
  </g>
</svg>
