<?xml version="1.0" encoding="UTF-8"?>
<svg id="Layer_2" data-name="Layer 2" xmlns="http://www.w3.org/2000/svg" viewBox="0 0 512 512">
  <defs>
    <style>
      .cls-1, .cls-2 {
        opacity: .24;
      }

      .cls-3 {
        opacity: .25;
      }

      .cls-3, .cls-4, .cls-2, .cls-5 {
        fill: #181514;
      }

      .cls-6 {
        fill: #fff;
      }

      .cls-7 {
        fill: #2196f3;
      }

      .cls-8 {
        fill: #606060;
      }

      .cls-9 {
        opacity: .23;
      }

      .cls-10 {
        fill: #03a9f4;
      }

      .cls-5 {
        opacity: .27;
      }

      .cls-11 {
        fill: #607d8b;
      }

      .cls-12 {
        opacity: .26;
      }

      .cls-13 {
        fill: #ffeb3b;
      }

      .cls-14 {
        fill: #fad506;
      }

      .cls-15 {
        fill: #ced2d7;
        opacity: 0;
      }

      .cls-16 {
        fill: #e6e6e6;
      }
    </style>
  </defs>
  <g id="Layer_1-2" data-name="Layer 1">
    <g>
      <rect class="cls-15" width="512" height="512"/>
      <g id="with-shodows">
        <g id="less_shadow">
          <path d="M332.42,482.01c.05-.15.1-.56.1-.81,0-.31,5.24-.51,14.65-.51,19.18,0,41.1-.66,35.46-1.07-3-.2-1.58-.31,5.6-.46,3.58-.03,8.8-.16,13.59-.3.02-.14.03-.27.05-.41-1.49.01-3.14.03-4.99.05-12.01.15-23.09.46-24.62.71s-11.09.46-21.26.46c-16.13,0-18.47-.1-18.47-.76s2.03-.76,15.67-.76c8.6,0,19.99-.2,25.28-.51,4.16-.24,12.86-.51,21.38-.69-.48-.18-.94-.42-1.36-.71-7.51.1-14.59.25-18.25.43-27.27,1.27-42.98,1.07-42.98-.56,0-.86.1-.86,5.49-.97,2.29-.05,3.92-.25,3.92-.56,0-.36-1.68-.41-4.83-.2-4.43.31-4.83.25-4.83-.56s.41-.86,4.48-.56c2.44.15,10.73.41,18.41.51,14.96.2,14.6.15-7.38-.71-15.92-.66-16.53-.71-16.53-1.83,0-.61.36-.71,1.42-.51,1.83.41,27.98,1.73,40.03,2.03,15.26.41,5.34-.51-15.77-1.42-10.07-.46-20.14-.97-22.38-1.12q-4.07-.31-5.6-2.44l-1.58-2.09,1.98-1.78c1.98-1.73,1.98-1.78,1.78-4.83l-.25-3.05,5.9-2.49c6.1-2.59,12.82-6.16,15.67-8.24.86-.66,1.73-1.22,1.88-1.22s.51.86.81,1.93c.81,3.1,2.59,5.34,5.24,6.66,2.29,1.12,2.65,1.17,5.29.56,2.7-.56,2.85-.56,4.12.66,2.09,1.98,6.66,3.92,9.31,3.92,4.93,0,9.21-2.14,11.6-5.8q1.32-2.09,4.68-2.14c4.22-.05,7.43-1.53,10.89-5.04,3.71-3.76,6-8.65,6.26-13.48.1-2.09-.1-4.83-.41-6.1-1.37-5.24-1.63-4.48,4.93-14.85,3.41-5.39,3.87-7.78,2.24-11.04-.61-1.17-1.83-2.59-2.75-3.1l-1.63-1.02-.05-9.51c-.1-12.56-1.37-22.43-4.83-37.29-3.46-14.75-4.63-21.42-5.8-33.42l-.31-3.15,1.98-1.32c3.26-2.14,3.71-4.07,2.34-9.61-.71-2.95-.71-3.66,0-8.14.92-5.95.36-9.05-2.19-11.7-1.58-1.63-1.58-1.68-1.32-5.95.15-2.34.51-8.85.76-14.45.41-8.39,1.63-26.5,3.36-51.43l.31-4.17,2.09-.61c4.32-1.22,6.46-4.27,6.87-9.72.25-4.07-.61-9.77-1.93-12.01-.92-1.58-.92-1.68,0-4.07,3.46-9.11,2.03-14.7-5.19-20.2-2.24-1.73-2.39-1.98-2.7-4.73-.76-6.87-3.92-20.7-6.26-27.62-10.63-31.54-26.76-52.55-54.53-70.91-15.87-10.53-34.69-18.21-48.68-19.89-3.92-.51-5.39-1.37-1.68-1.07,1.53.15,4.63.41,6.87.56,20.65,1.58,42.68,12.51,61.04,30.37,3.05,3,5.65,5.49,5.75,5.49.66,0-5.7-7.33-10.07-11.7-12.11-12.11-26.35-20.65-41.87-25.13-5.9-1.73-11.19-2.34-20.7-2.39-6.77-.05-7.48-.15-5.09-.56,3.76-.66,16.63-.15,21.37.86,5.19,1.07,17.7,5.34,24.06,8.19,17.3,7.73,32.71,19.53,41.81,32,3.71,5.14,4.37,5.75,2.54,2.54-10.53-18.87-31.74-35.3-55.7-43.19-9.46-3.1-13.38-3.87-21.52-4.22-7.94-.36-14.09.31-20.65,2.19-3.87,1.12-11.85,4.68-12.97,5.85-.31.25-1.88.46-3.56.46-2.9-.05-3.05-.1-2.09-.81,3.71-2.85,17.55-8.44,26.71-10.78,4.88-1.22,6.21-1.32,15.01-1.32s10.33.15,15.92,1.37c14.4,3.26,29.1,9.97,39.27,18.06,1.88,1.48,2.03,1.58,1.02.41-2.24-2.49-10.28-8.29-15.26-10.99-11.19-6.05-24.37-9.97-36.63-10.99l-4.83-.41,5.6-.92c4.48-.76,7.53-.92,15.01-.76,8.19.15,9.16.1,7.22-.46-1.22-.36-4.32-.92-6.97-1.22-4.53-.46-13.33-.56-17.8-.15-4.83.46-17.04,2.85-22.54,4.48-10.68,3.1-21.57,8.24-26.05,12.26-1.83,1.63-2.09,1.73-5.8,1.73s-4.02-.05-7.07-2.24c-5.9-4.17-16.63-8.75-26.45-11.24-15.11-3.82-34.08-4.73-44.21-2.14-2.14.56-1.48.61,5.6.41,7.73-.15,17.86.61,19.43,1.53.46.25-.71.46-3.1.46-8.24,0-17.8,2.75-31.03,8.85-10.84,5.04-20.65,11.65-26.15,17.65l-1.53,1.68,1.53-1.12c8.75-6.46,11.6-8.29,17.3-11.09,10.38-5.04,21.11-7.73,32.81-8.09l6.87-.2-3.31.76c-5.19,1.22-14.14,4.02-18.41,5.75-19.43,7.73-37.64,22.74-46.9,38.66-2.14,3.71-2.19,4.73-.05,1.48,7.07-10.68,19.53-22.18,32.56-30.01,4.83-2.9,15.01-7.88,20.96-10.28,11.04-4.43,19.43-5.85,29.81-5.09l5.7.41-8.65.36c-9.82.41-14.14,1.17-21.98,3.76-13.07,4.32-26.76,12.62-36.73,22.28-3.31,3.2-8.19,8.8-8.19,9.36,0,.2,1.53-1.17,3.46-2.95,13.79-13.23,34.79-24.57,52.24-28.18,2.44-.51,7.17-.92,11.95-1.02,4.32-.1,6.97-.05,5.85.05-16.53,1.63-34.13,7.83-48.07,16.84-7.78,5.09-17.75,12.87-23.76,18.62-22.79,21.98-37.29,50.51-42.22,83.22l-.86,5.75-3.36,2.7c-7.17,5.75-8.75,8.6-7.73,14.24.36,1.78,1.07,4.32,1.63,5.65l1.07,2.39-1.07,3c-1.78,5.19-1.17,14.55,1.12,17.5,1.27,1.58,4.63,3.2,6.66,3.26.76,0,1.37.31,1.37.61,0,.92,1.27,13.63,2.75,28.39,1.48,13.99,3.05,32.15,3.92,44.87l.56,8.5-1.53,1.32c-2.49,2.09-3.26,4.78-3.1,11.5.05,3.2-.05,7.58-.31,9.77l-.41,3.97,4.88,4.68-.61,4.12c-.36,2.24-1.88,9.05-3.36,15.06-5.14,20.7-5.85,25.43-6.16,40.95l-.25,12.21-1.78,1.48c-2.19,1.78-3.76,4.78-3.76,7.07s1.83,5.6,6.77,12.82l3.92,5.75-.51,2.24c-2.75,11.95,6.36,26.25,17.35,27.22,2.8.25,3.05.41,5.09,2.85,3.92,4.63,9.61,6.1,15.31,3.92,1.42-.56,3.36-1.73,4.32-2.65,1.48-1.42,1.93-1.63,4.27-1.48,4.83.25,9.82-3.26,10.89-7.73.2-.76.46-1.37.61-1.37s1.58.76,3.15,1.73c3.92,2.34,8.44,4.63,15.01,7.48l5.6,2.39-.15,3.15c-.1,3-.05,3.2,1.73,4.83l1.83,1.73-1.83,2.54c-1.02,1.37-2.24,3.71-2.75,5.24l-.92,2.7-6.56.41c-8.44.46-30.42,2.39-30.67,2.7-.36.31,2.8.2,9.11-.31,3.2-.25,9.31-.71,13.48-1.02,4.22-.25,9.16-.61,11.09-.81,2.85-.2,3.41-.15,3.41.51,0,.61-.51.81-1.88.81-1.07.05-5.49.25-9.82.56-14.19.92-21.47,1.37-32.05,1.98-5.7.31-10.53.66-10.63.81-.36.36,7.43.2,14.7-.31,3.76-.25,13.38-.81,21.37-1.27,7.99-.41,15.26-.86,16.18-1.02,1.17-.2,1.63-.1,1.63.41,0,.56-1.32.81-5.95,1.07-9.36.51-37.49,2.34-43.14,2.8l-5.09.41,4.58.05c2.54,0,7.43-.15,10.94-.41,32.66-2.14,38.66-2.29,39.02-1.22.15.41-3.15.66-10.63.97-5.95.2-13.33.56-16.43.76-3.41.25-.61.31,7.12.1,17.5-.46,19.79-.41,20.09.15.15.31-4.02.66-11.7.86-19.43.61-20.65.81-3.51.56,13.84-.15,16.18-.1,16.69.56.56.66-.05.81-4.88.97l-5.49.15,6.05.1c4.17.05,6.31.31,6.87.76,3,2.54,12.97,3.66,26.1,2.95,4.83-.25,29.86-.41,55.6-.31,37.13.1,47.97,0,52.4-.51,5.54-.71,18.26-1.37,42.73-2.29,11.38-.42,16.44-.66,22.76-1.21,1.11-.35,2.21-.72,3.3-1.12-1.54.09-2.82.17-3.68.25-2.8.31-12.06.76-20.6,1.07-8.55.25-20.65.71-26.91,1.02-6.31.25-11.5.41-11.65.31-.1-.15.46-.56,1.27-.97,1.02-.51,4.43-.81,12.36-1.07,29.91-.92,41.31-1.37,50.61-2.03.74-.05,1.61-.11,2.55-.17.41-.18.83-.35,1.24-.54.27-.13.54-.27.81-.4-6.64.28-12.69.56-16.56.81-7.99.51-48.43,1.53-48.73,1.27-.1-.05.2-.46.61-.86.61-.61,4.37-.81,22.03-1.12,11.7-.2,24.82-.56,29.15-.86,6.87-.42,12.28-.73,16.89-.95.56-.3,1.11-.61,1.67-.93-5.1.18-9.78.4-12.97.65-13.84,1.02-56.41,1.83-56.06,1.07Z"/>
          <path d="M387.66,474.26c-4.97.06-9.91.18-13.67.37-4.48.2-12.46.46-17.8.51-5.29,0-11.85.2-14.5.46-3.66.25-1.58.36,8.9.41,7.58.05,16.94-.15,20.86-.46,3.03-.24,10.03-.47,17.18-.57-.35-.22-.67-.46-.97-.72Z"/>
          <path d="M144.97,479.51c-.66.1-1.78.1-2.54,0-.81-.1-.25-.2,1.12-.2s2.03.1,1.42.2Z"/>
          <path d="M124.22,483.89c-1.11,0-2.72.06-4.46.16.38.16.73.34,1.07.54,1.81-.12,3.36-.25,4.16-.35l2.8-.41-3.56.05Z"/>
          <path d="M129.3,485.57l-6.88.36c.05.06.11.11.16.17l10.79-.17c8.7-.15,16.23-.46,16.79-.71,1.37-.56-6.66-.41-20.86.36Z"/>
          <path d="M380.97,488.34c-11.63.77-27.22,1.68-39.54,2.26-8.39.41-19.99.97-25.74,1.27-6.97.41-34.69.51-82.66.41-50.87-.1-66.79-.05-53.87.31,24.11.56,132.31.41,143.71-.2,4.88-.31,13.94-.76,20.09-1.02,8.89-.38,21.5-1.13,33.72-1.99,1.44-.33,2.87-.67,4.29-1.04Z"/>
          <path d="M164.15,487.45c-11.27.03-29.12.3-40.33.57.08.17.15.34.22.51.66,0,1.35-.01,2.06-.02.83-.26,1.75-.4,2.77-.4.93,0,1.78.13,2.56.35,10.26-.13,22.71-.37,30.95-.65l11.19-.36h-9.41Z"/>
          <path d="M186.68,488.67c-.66.1-1.68.1-2.29,0-.66-.1-.15-.2,1.12-.2s1.78.1,1.17.2Z"/>
          <path d="M364.62,491.97c-10.2.7-21.09,1.42-29.55,1.95-22.13,1.37-102.04,1.83-138.11.81-7.43-.25-7.48-.2-3.05.31,3,.36,24.88.56,63.33.61,56.61.04,66.11.05,101.97-2.45,1.79-.43,3.6-.83,5.42-1.22Z"/>
          <path d="M181.6,489.18c-.66.1-1.68.1-2.29,0-.66-.1-.15-.2,1.12-.2s1.78.1,1.17.2Z"/>
          <path d="M170.51,489.49c-3.36,0-14.7.31-25.18.66l-10.46.33c.05.05.11.11.16.17l11.58-.14c11.19-.15,22.54-.41,25.18-.61l4.83-.41h-6.1Z"/>
          <path d="M188.41,490.2c-1.02.1-2.65.1-3.56,0-.86-.1,0-.2,1.93-.2s2.7.1,1.63.2Z"/>
          <path d="M181.34,490.71c-.81.1-2.03.1-2.8,0-.81-.1-.15-.2,1.37-.2s2.19.1,1.42.2Z"/>
          <path d="M197.72,23.37c-4.93.51-12.62,2.34-16.69,3.92-1.78.71-3.1,1.37-3.05,1.48.1.05,1.73-.31,3.66-.81,5.7-1.63,17.19-2.29,26.6-1.58,12.16.92,19.84,2.8,28.49,6.97,4.32,2.09,8.29,2.95,8.29,1.83,0-.25-1.98-1.37-4.43-2.54-15.87-7.43-30.37-10.58-42.88-9.26Z"/>
          <path class="cls-13" d="M277.03,38.89c-2.09.41-5.19,1.17-6.87,1.73l-3,.97,3.05-.31c5.9-.66,18.11-.36,21.98.56,9.51,2.24,16.07,5.65,24.37,12.62,5.7,4.73,10.33,10.43,12.87,15.72.51,1.07.41,1.02-.56-.25-6.16-8.04-14.19-15.26-21.77-19.48-8.5-4.83-14.04-6.71-22.74-7.73-7.48-.92-19.84.66-23.4,2.95-2.29,1.42-1.22-.46,2.09-3.76l3.26-3.26h-21.98l1.78,1.88c1.88,1.98,3.51,4.22,3.51,4.78,0,.15-1.53-.2-3.41-.86-4.78-1.68-10.99-2.39-17.91-2.09-7.53.31-12.77,1.78-21.67,6.21-9.16,4.48-16.43,10.17-24.37,19.08-3.76,4.17-2.65,1.73,1.63-3.66,5.44-6.82,13.38-13.43,20.2-16.84,4.63-2.29,14.7-5.44,20.14-6.26,5.34-.81,10.84-.66,15.67.36,1.22.25,2.34.41,2.44.25.46-.46-9.41-2.29-13.89-2.65-7.94-.56-12.41.36-20.14,4.22-7.83,3.87-15.01,8.44-21.42,13.79-3.87,3.2-4.37,3.51-2.8,1.68,3.51-4.12,10.12-9.16,18.21-13.89,4.93-2.9,2.75-2.34-3.97,1.02-12.62,6.31-20.55,12.06-26.45,19.18l-1.68,2.03,1.17-2.24c.66-1.27,2.9-3.97,4.99-6.05l3.82-3.82-4.32,2.95c-9.51,6.41-16.79,13.43-21.16,20.35-1.32,2.09-2.49,3.71-2.65,3.61-.1-.15.76-2.03,1.88-4.27,2.54-4.83,6.26-9.46,11.04-13.63,5.65-4.93,21.06-15.16,28.94-19.18,1.98-1.02,3.41-1.83,3.15-1.88-.66,0-12.62,5.09-17.24,7.43-9.67,4.83-22.59,14.65-30.88,23.4-20.4,21.52-33.22,46.09-38.51,73.71-1.93,10.33-1.88,9.46-.46,8.8.86-.41,1.42-1.22,1.78-2.65,4.02-15.92,11.29-28.28,23.35-39.58,8.04-7.58,17.45-13.23,27.77-16.63,9-3,12.77-3.66,21.82-3.97,15.16-.51,25.33,1.83,44,10.22,11.5,5.14,18.11,9.87,22.89,16.48l2.24,3.05,2.9-4.43c11.75-17.8,39.53-29.35,65.01-27.06,15.97,1.42,27.57,5.6,44.41,15.87,7.83,4.83,12.21,9.26,15.62,15.97,1.27,2.59,1.73,3.05,2.95,3.15,3.82.2,8.19,9.16,11.09,22.59.2,1.02.86,1.53,2.7,2.24,1.37.51,2.75,1.12,3.1,1.42.36.25.71.41.86.31.31-.36-1.58-10.38-3.05-16.23-3.15-12.67-11.34-31.49-17.91-41.25-10.63-15.92-22.48-27.77-38.05-38.2-5.39-3.61-18.97-10.63-24.93-12.87-5.75-2.19-13.48-4.78-13.48-4.53,0,.15,1.68,1.02,3.71,1.93,30.52,13.99,41.71,22.33,50.51,37.8,2.7,4.73,3,6.26.41,1.93-3.31-5.49-9.97-12.92-16.48-18.41-6.05-5.09-21.87-14.8-21.87-13.43,0,.31,1.27,1.58,2.8,2.9,1.53,1.37,3.76,3.61,4.93,5.04l2.14,2.54-2.24-1.98c-1.27-1.12-3.1-2.8-4.07-3.76-3.82-3.66-12.82-9.16-19.74-12.06-2.34-1.02-1.53.05,1.07,1.32,4.99,2.54,13.12,8.7,17.6,13.38,2.44,2.49,1.53,2.29-1.63-.36-8.95-7.58-15.57-11.95-24.47-16.18-4.53-2.19-4.63-2.19-10.68-2.34-3.71-.05-7.68.2-10.02.61Z"/>
          <path class="cls-11" d="M307.34,93.57c-16.43,1.22-32.91,8.39-42.48,18.62-5.29,5.6-6.82,8.9-1.78,3.71,5.9-6,17.14-13.18,25.89-16.48,9.21-3.46,19.84-5.04,31.95-4.73,4.12.05,7.07,0,6.51-.2-.86-.31-14.09-1.53-14.7-1.37-.2.05-2.59.25-5.39.46Z"/>
          <path class="cls-11" d="M174.32,95.86c-13.63,2.24-26.66,8.65-37.69,18.57-4.07,3.61-10.17,10.73-12.97,15.16-4.93,7.63-9.05,18.16-10.63,27.06-1.17,6.56-1.58,20.2-.76,26.1,1.32,10.02,4.53,20.4,8.7,28.33,2.29,4.37,2.65,4.83,4.93,6.77,2.65,2.14,2.95,1.63.66-1.22-2.49-3.1-2.75-4.27-.46-2.19l1.63,1.48-1.83-2.54c-10.22-14.45-14.04-33.42-10.73-53.67,2.39-14.7,9.97-30.27,19.53-40.03,7.38-7.58,13.94-12.36,21.92-16.18,15.31-7.17,33.68-9.16,49.7-5.34,2.34.56,4.37.92,4.48.81.25-.25-3.92-1.48-9-2.59-5.29-1.17-21.62-1.48-27.47-.51Z"/>
          <path class="cls-11" d="M310.9,96.11c-10.48.81-17.7,2.8-26.81,7.48-12.41,6.31-21.67,15.06-28.38,26.86-1.58,2.8-2.54,4.02-2.39,3.2.1-.76,0-1.27-.2-1.12-.25.15-.46.61-.46,1.02,0,1.32-.81.71-1.88-1.48-2.7-5.49-9.77-13.38-16.89-18.87-14.4-11.04-31.13-16.28-49.14-15.41-15.77.76-29.1,6.36-42.58,17.86-29.3,25.03-33.83,73.56-9.46,102.45,9.16,10.89,22.28,19.64,34.79,23.2,25.28,7.17,50.61,1.32,68.67-15.87,5.29-4.99,8.44-8.95,12.36-15.46,1.93-3.15,3.87-5.8,4.27-5.9.46-.1,1.88,1.73,3.92,4.99,10.58,17.3,25.94,28.84,44,33.22,6.66,1.58,20.6,1.58,28.23-.1,14.14-3.05,25.64-9.41,36.42-20.14,8.55-8.55,13.58-16.69,18.16-29.3,3.1-8.55,4.43-14.96,4.78-23.6.66-15.57-2.19-26.86-10.07-40.24-4.22-7.17-12.56-15.82-19.79-20.55-14.09-9.16-30.78-13.48-47.56-12.21ZM323.11,110.92c6.97.86,11.65,2.24,17.8,5.24,6.66,3.26,10.84,6.36,16.02,11.8,6.92,7.27,11.45,15.46,14.09,25.64,1.73,6.46,2.19,18.41,1.02,25.18-2.19,12.56-7.88,23.15-17.45,32.61-15.41,15.26-37.19,20.65-57.48,14.19-7.38-2.29-13.43-5.95-19.13-11.34-5.24-5.04-7.73-8.19-10.84-13.63-3.61-6.31-5.09-11.24-6.31-20.55-.41-3.15-.46-3.2-.56-1.02l-.1,2.29-.41-2.03c-1.02-4.93-1.12-10.73-.31-15.77,2.29-14.04,7.22-24.93,15.82-35.05,11.19-13.12,29.35-19.79,47.82-17.55ZM199.5,113.51c17.55,3.41,32.76,14.85,40.24,30.17,4.12,8.5,5.8,16.33,5.8,26.91,0,11.14-1.78,18.87-6.46,27.93-7.53,14.6-21.11,25.59-36.63,29.71-4.27,1.12-6.1,1.32-12.87,1.37-13.12.05-21.11-2.29-32.56-9.77-5.09-3.31-12.56-10.68-15.97-15.77-8.04-12.16-11.5-28.59-8.9-42.83,3.71-20.4,17.91-37.39,37.54-44.82,4.43-1.68,2.03-1.48-3.05.31-14.29,4.93-27.06,18.47-32.81,34.85-.61,1.83-1.17,2.9-1.17,2.44-.05-.46.56-2.54,1.27-4.58,4.88-13.73,15.92-25.89,29.2-32.15,10.78-5.09,23.2-6.36,36.37-3.76Z"/>
          <path class="cls-11" d="M294.02,115.7c-5.8,2.34-10.84,5.8-15.67,10.63-4.37,4.37-10.12,12.62-12.46,17.8-3,6.66-5.65,17.96-5.54,23.35.1,3.1.1,3.05.51-1.17,2.19-22.89,15.52-41.87,35.76-50.97,4.43-1.98,2.39-1.73-2.59.36Z"/>
          <path class="cls-6" d="M312.69,116.26c-13.23,1.53-22.23,6-32.71,16.33-5.85,5.8-7.94,8.6-3.66,4.93,5.95-5.04,9.21-6.87,17.8-9.77,7.38-2.49,13.94-3.36,22.64-3,11.5.51,21.31,2.95,30.37,7.58,5.24,2.65,7.68,4.37,11.5,7.99,3.2,3.1,3.05,3.76-.25.97-7.27-6.16-15.62-10.17-26.86-13.02-4.93-1.27-6.16-1.37-16.02-1.37s-11.09.1-16.02,1.37c-9.97,2.54-17.55,5.95-22.74,10.22-1.37,1.12-2.95,2.19-3.56,2.44-1.27.46-3.87,5.29-5.95,11.04-4.78,13.38-4.63,30.01.36,40.49,4.37,9.05,10.94,15.06,22.48,20.4,9.82,4.58,25.43,6.97,37.39,5.7,4.63-.46,3.92.31-1.07,1.22-2.19.41-6.21.51-11.45.31-11.34-.41-18.36-2.03-27.47-6.46-4.53-2.19-13.53-8.6-15.41-10.99l-1.17-1.48.92,1.53c.46.81,2.03,2.9,3.46,4.53,12.26,14.29,34.08,21.16,51.17,16.13,4.12-1.22,3.66-1.27-2.24-.25-2.54.41-6.21.71-8.19.61-3.51-.15-3.46-.15,2.29-.71l5.85-.56-6.21-.05c-3.76-.05-6.26-.31-6.26-.61s1.98-.51,4.99-.51c12.82,0,25.08-3.1,30.88-7.88l1.53-1.22-3.05,1.22c-5.65,2.24-6.16,1.83-1.02-.76,2.75-1.48,5.75-3.1,6.61-3.71,12.26-8.5,19.53-26.91,17.6-44.41-.81-6.92-1.73-10.94-3.66-15.82-5.65-14.29-20.5-26.91-36.27-30.93-4.48-1.12-12.92-1.88-16.58-1.48ZM306.48,135.54c10.53,2.49,19.74,11.65,22.23,22.18.97,4.22.97,11.14,0,14.9-3.36,12.87-15.41,22.18-28.69,22.18-8.19,0-15.21-3-20.75-8.85-6.1-6.41-8.5-12.46-8.5-21.16s2.85-15.62,8.55-21.72c3.26-3.51,8.24-6.36,13.12-7.58,3.66-.86,10.17-.86,14.04.05Z"/>
          <path class="cls-16" d="M288.83,142.4c-4.63,1.12-8.19,5.65-8.19,10.53,0,3.1.46,4.27,2.7,6.66,3.92,4.12,11.45,3.66,15.26-.92,2.65-3.15,3-8.5.81-12.01-1.93-3.15-6.87-5.14-10.58-4.27Z"/>
          <path class="cls-16" d="M281.81,163.31c-2.29.86-2.85,3.71-1.02,5.44,2.34,2.19,5.44.86,5.44-2.29,0-2.29-2.29-3.97-4.43-3.15Z"/>
          <path class="cls-6" d="M181.8,118.5c-7.48.86-15.52,3.82-21.92,7.99-4.53,2.95-13.53,11.95-16.69,16.69-3.26,4.78-5.75,11.14-6.82,17.24-1.22,7.33-.81,19.18.97,25.74,4.02,15.26,14.14,27.57,27.47,33.57,4.07,1.78,10.17,3.36,15.62,4.07,5.65.66,19.84.66,23.71-.05,3.51-.66,9.16-3.15,14.24-6.31,5.54-3.46,5.29-3.82-.71-.92-8.24,4.02-17.19,6.31-23.76,6.16-1.68,0-2.34-.15-1.53-.25,8.85-1.12,18.82-4.07,25.89-7.63,10.58-5.34,17.5-13.53,21.62-25.54,3.61-10.58,3.2-25.74-1.02-36.68-2.95-7.63-10.63-17.7-17.91-23.25-10.53-8.14-25.74-12.31-39.17-10.84ZM199.5,128.42c12.46,2.19,24.47,8.04,31.95,15.67,1.88,1.93,3.41,3.71,3.41,4.02,0,.25-1.68-1.07-3.76-3-12.06-11.19-32.66-17.7-50.51-15.92-13.79,1.37-27.62,6.71-35.35,13.63-2.95,2.7-2.59,1.37.46-1.48,3.76-3.56,7.33-6,12.01-8.24,6.51-3.15,10.48-4.27,19.94-5.65,3.05-.46,17.4.2,21.87.97ZM179.15,138.08c11.45,2.39,20.96,12.11,23.2,23.55.86,4.58.36,11.75-1.22,15.92-3.36,9.36-12.21,16.94-22.08,19.03-4.73,1.02-7.94.97-12.56-.25-5.65-1.42-9.67-3.71-13.79-7.88-5.8-5.8-8.39-12.26-8.39-20.75.05-20.09,15.92-33.57,34.85-29.61Z"/>
          <path class="cls-16" d="M160.84,145.41c-6.97,3.26-8.55,11.45-3.15,16.18,3,2.65,6.31,3.26,10.07,1.93,4.53-1.63,7.48-6.16,6.97-10.68-.76-6.41-7.83-10.22-13.89-7.43Z"/>
          <path class="cls-16" d="M154.02,166.11c-1.22,1.58-1.27,1.88-.51,3.41.81,1.48,1.42,1.88,3.1,1.88,1.37,0,3.46-1.98,3.46-3.31s-2.09-3.31-3.56-3.31c-.97,0-1.83.46-2.49,1.32Z"/>
          <path d="M188.72,226.19c1.32.1,3.41.1,4.58,0s.1-.15-2.44-.15-3.46.05-2.14.15Z"/>
          <path d="M340.15,97.84c3.15,1.17,4.37,1.37,2.29.36-1.12-.56-2.49-1.02-3.05-1.02-.61,0-.31.25.76.66Z"/>
          <path d="M211.46,99.37c0,.1.46.31,1.02.46s.92.05.71-.2c-.25-.46-1.73-.66-1.73-.25Z"/>
          <path class="cls-11" d="M231.8,107.15c2.9,2.09,11.7,9.67,15.41,13.23,2.14,2.14,3.92,3.66,3.92,3.46,0-.25-1.27-2.09-2.8-4.12-2.85-3.76-5.95-6.56-10.78-9.67-3.1-1.98-7.78-4.32-5.75-2.9Z"/>
          <path class="cls-11" d="M365.84,110.92c7.17,6.71,10.84,10.63,12.87,13.79,3.1,4.73,3.2,4.88,1.58,1.42-3.2-6.66-7.68-11.85-13.94-16.33-4.88-3.51-5.04-3.15-.51,1.12Z"/>
          <path class="cls-11" d="M385.94,130.7c.41,1.37.31,1.78-.36,2.29-1.02.76-.66,2.85,1.12,7.33,5.09,12.46,6.77,33.73,3.87,48.53-1.32,6.66-4.07,14.75-6.51,19.13-1.58,2.85-1.68,3.15-.66,2.44.66-.46,1.58-1.48,2.09-2.24.71-1.07.97-1.22.97-.51,0,1.27-1.37,3.92-2.95,5.54-.71.81-1.07,1.42-.76,1.42.86,0,3.1-2.9,4.68-6.05,2.34-4.63,4.83-13.23,6.16-21.11,2.75-16.74.56-38.71-5.39-53.16-1.93-4.63-3.05-6.51-2.24-3.61Z"/>
          <path class="cls-11" d="M398.65,154.82c0,.15,1.22,1.07,2.7,1.98,4.43,2.85,8.95,6.92,10.02,9,1.22,2.39,1.27,4.22.2,8.24-.92,3.66-.66,4.99.51,2.29,2.49-5.7,2.03-9.87-1.37-13.18-3.1-3-12.06-9.21-12.06-8.34Z"/>
          <path class="cls-11" d="M109.26,159.85c-.31.41-1.73,1.32-3.2,2.14-4.43,2.39-8.04,5.29-8.9,7.17-.76,1.53-.76,2.29-.25,5.8.56,3.97,2.09,8.09,2.14,5.85,0-1.32,2.34-7.78,3.15-8.75.31-.41.86-.61,1.27-.46s.56.05.41-.2c-.15-.31.1-.66.61-.86s1.07-.56,1.27-.86c.25-.36.41-.31.41.1,0,.51.15.51.76-.1.41-.41.76-.97.76-1.27,0-1.37.97-.41,1.12,1.07.1.92.51-1.02.92-4.32.76-5.8.71-6.66-.46-5.29Z"/>
          <path d="M399.62,173.99c1.88,1.17,4.12,2.09,4.12,1.73,0-.41-4.43-2.8-5.14-2.8-.41,0,.05.46,1.02,1.07Z"/>
          <path class="cls-11" d="M105.8,179.54c-1.42.81-3.87,2.75-5.44,4.22-3.51,3.46-4.17,5.6-3.41,10.94.56,3.61,1.53,6.56,1.58,4.63.05-2.39,1.73-6.1,3.82-8.39,2.19-2.39,2.29-2.65,2.29-5.65q0-3.15,2.29-4.78c2.09-1.53,2.85-2.49,1.93-2.49-.25,0-1.58.71-3.05,1.53Z"/>
          <path class="cls-11" d="M408.32,180.96c0,.25.36.76.81,1.17,1.73,1.42,2.44,3.71,2.44,7.88s-.86,7.33-2.09,7.33c-.41,0-3.36-.71-6.61-1.53-6.87-1.78-7.78-1.88-7.78-.61,0,.97.51,1.12,10.28,3.15,2.7.56,5.29.86,5.75.71,1.58-.61,2.44-3.31,2.44-7.83.05-4.37-.61-6.51-2.65-8.8-1.02-1.22-2.59-2.09-2.59-1.48Z"/>
          <path d="M106.46,182.13c.15.25-.1.46-.51.46-.66,0-.81.56-.71,2.9.05,2.24.1,2.49.25,1.02.1-1.02.41-1.78.71-1.63.41.25.56-.36.41-1.63,0-.2.36-.51.86-.66.81-.31.76-.36-.2-.61-.61-.2-1.02-.1-.81.15Z"/>
          <path d="M384.97,194.9c-2.14,6.77-5.14,12.46-10.53,20.09-.46.66-.71,1.17-.56,1.17.71,0,6.77-8.8,8.24-11.95,1.93-4.27,4.48-11.75,4.22-12.51-.1-.31-.71,1.12-1.37,3.2Z"/>
          <path class="cls-13" d="M394.38,198.82c-.1.15-.56,1.68-1.07,3.36-1.02,3.56-3.82,9.77-5.39,12.01-1.83,2.59-4.83,4.43-7.73,4.78-2.34.31-2.85.61-4.43,2.59-3.56,4.53-12.56,12.46-19.18,16.89-4.73,3.2-13.53,7.48-19.53,9.46-12.82,4.32-28.54,4.53-41.05.56-12.26-3.87-28.64-15.11-37.24-25.54-2.09-2.54-3.97-4.68-4.17-4.68-.15-.05-.86.81-1.48,1.83-2.09,3.51-5.75,7.99-9.36,11.6-15.16,15.11-38.05,23.65-57.94,21.62-19.53-1.98-36.17-10.28-51.28-25.54-3.92-3.92-5.85-5.49-6.66-5.49-1.53,0-4.93-2.44-6.56-4.68-1.78-2.39-4.58-7.68-6.26-11.85-.81-1.98-1.53-3.61-1.53-3.71-.25-.36-5.85,2.59-5.85,3.1,0,1.02,1.42,15.46,2.75,27.88,1.27,11.95,4.02,44.21,4.73,55.65l.41,6.1,2.54,1.37c2.9,1.58,21.06,10.07,34.54,16.18,8.04,3.61,9.21,4.02,9.92,3.36,1.58-1.42,3.56-1.37,13.58.15,12.46,1.93,24.32,3.41,33.01,4.12,20.65,1.73,72.79.86,95.89-1.58,9.87-1.02,24.72-3,30.32-4.02,6.21-1.17,8.9-1.27,9.72-.46.66.66,1.02.51,12.21-6.51,6.51-4.02,28.18-16.53,38.36-22.18l3.36-1.88.36-6.71c1.12-20.6,2.44-42.68,3.36-56.26.61-8.44,1.02-16.33.92-17.5l-.15-2.09-4.48-1.12c-2.44-.61-4.53-1.02-4.63-.81ZM258.1,231.07c1.78,2.19,3.2,4.07,3.2,4.27,0,.56-5.14-5.24-6.87-7.83-1.93-2.85-2.44-4.37-.61-1.93.61.81,2.54,3.31,4.27,5.49ZM250.83,228.48c-1.42,2.85-5.09,7.83-6.61,9.05-.51.41-.15-.25.76-1.53.86-1.27,2.8-4.07,4.22-6.26,1.42-2.14,2.65-3.92,2.8-3.92.1,0-.46,1.22-1.17,2.65ZM365.08,240.23c-6.31,6.05-13.18,10.02-23.2,13.38-6.26,2.09-7.73,2.03-1.88-.05,8.34-2.95,18.52-8.75,25.33-14.45,1.68-1.37,3.15-2.54,3.31-2.54s-1.48,1.63-3.56,3.66ZM223.16,254.57c-1.48.86-10.38,3.82-11.34,3.76-.31,0,1.98-.86,5.14-1.93,3.1-1.07,5.85-2.09,6.05-2.24.15-.2.56-.36.86-.36.31.05,0,.36-.71.76ZM265.12,268.1c4.02,1.53,8.19,5.49,10.68,10.17,1.02,1.93,1.58,3.51,1.32,3.51-.31,0-.56-.15-.56-.41,0-.71-5.24-5.7-7.88-7.43-7.33-4.88-16.94-5.19-25.74-.81-4.43,2.19-8.14,4.73-11.09,7.73-3.1,3.1-3.36,2.54-.56-1.17,4.22-5.65,12.31-10.84,19.33-12.41,4.48-1.02,10.58-.66,14.5.81Z"/>
          <path class="cls-11" d="M236.13,227.71c-7.68,7.22-14.75,11.5-25.08,14.96-8.65,2.95-13.28,3.66-22.74,3.61-6.66,0-9.26-.25-14.24-1.32-3.31-.71-6.16-1.17-6.26-1.07s1.42.66,3.46,1.27c12.72,3.76,27.21,3.97,37.85.46,10.78-3.61,21.37-10.68,30.01-20.2,2.49-2.7,1.32-1.83-3,2.29Z"/>
          <path class="cls-11" d="M298.04,243.89c.86.86,9.87,2.24,14.14,2.19l4.83-.05-6.61-.66c-3.61-.36-7.73-.92-9.05-1.22-2.7-.56-3.71-.66-3.31-.25Z"/>
          <path class="cls-10" d="M402.47,285.8c-.56.56-8.24,4.99-17.09,9.92-17.8,9.87-36.27,20.75-43.7,25.74-9.21,6.21-12.92,10.68-12.97,15.77,0,3.56,1.42,6.36,4.17,8.34,3.82,2.65,7.33,1.73,15.21-4.17,10.94-8.09,30.06-20.14,49.29-31.08,7.99-4.53,7.38-3.82,6.71-7.99l-.56-3.56-2.29,1.22c-1.27.71-2.59,1.63-2.95,2.03s-.97.61-1.42.41c-.97-.36-.56-1.32.56-1.32.81,0,5.19-2.85,5.9-3.82.2-.31.41-1.37.41-2.49v-1.98l-1.32,1.37c-1.37,1.32-2.75,1.78-2.75.86,0-.56,2.29-2.24,3.71-2.75.86-.31,1.07-1.53.86-4.68-.15-2.44-.66-2.95-1.78-1.83ZM397.94,296.84c-.2.51-.71.71-1.32.56-.66-.15-1.83.36-3.31,1.53-1.27.97-2.54,1.58-2.85,1.42-.76-.51.25-1.48,2.7-2.59,1.22-.51,2.75-1.32,3.46-1.88,1.27-.97,1.88-.51,1.32.97ZM388.48,301.57c0,.86-1.58,2.09-2.7,2.09-.66,0-1.88.66-2.8,1.53-1.63,1.48-3.15,1.98-3.15,1.07,0-.41,1.07-1.12,6.87-4.48,1.32-.71,1.78-.76,1.78-.2ZM395.09,303.3c0,.76-2.39,2.24-2.85,1.78-.31-.36,1.78-2.44,2.44-2.44.2,0,.41.31.41.66ZM389.85,306.61c-.15.2-1.48,1.12-2.85,2.03-1.88,1.17-2.59,1.37-2.59.86,0-.41.31-.76.66-.76s1.58-.66,2.7-1.48c1.88-1.42,2.7-1.68,2.09-.66ZM377.19,308.34c-.31.92-2.8,2.24-3.31,1.78-.46-.46,1.78-2.34,2.8-2.39.41,0,.61.31.51.61ZM372.2,311.24c0,.66-2.8,2.59-3.76,2.59-1.32,0-.92-.71,1.12-1.88,2.09-1.27,2.65-1.37,2.65-.71ZM381.87,311.6c0,.46-1.63,1.68-2.24,1.73-.25,0-.05-.46.46-1.02.92-1.02,1.78-1.32,1.78-.71ZM376.48,314.9c-1.07,1.17-3.71,2.7-4.12,2.34-.25-.25,3.92-3.31,4.63-3.36.25-.05.05.41-.51,1.02ZM366.1,314.9c0,.86-1.58,1.93-2.8,1.93-.86,0-.81-.15.51-1.22,1.68-1.37,2.29-1.58,2.29-.71ZM361.01,318.06c0,.81-3.82,3.05-4.73,2.75-.31-.1.56-.92,1.93-1.78,2.95-1.88,2.8-1.83,2.8-.97ZM370.07,319.02c-.15.36-.66.76-1.22.86-.81.15-.86.05-.25-.66.81-.97,1.73-1.07,1.48-.2ZM367.12,320.8c0,.81-.81,1.58-2.03,1.88q-1.22.36.25-.92c1.73-1.42,1.78-1.48,1.78-.97ZM354.91,322.38c0,.61-3.05,2.29-3.46,1.88-.2-.15.2-.76.92-1.27,1.32-1.02,2.54-1.32,2.54-.61ZM363.55,323.45c0,.25-.76,1.02-1.63,1.63l-1.68,1.12,1.48-1.58c1.63-1.73,1.83-1.88,1.83-1.17ZM350.33,325.38c0,.2-.92,1.17-2.09,2.19-2.03,1.78-2.09,1.78-1.27,3.31.46.81.81,1.83.81,2.14,0,.97.41.81,2.65-.92,2.7-2.19,3.2-1.32.51.92-1.22,1.02-2.7,2.95-3.46,4.48-1.37,2.9-4.12,5.39-7.12,6.36-3.51,1.17-7.78-1.37-8.6-5.14-.51-2.34.1-4.58,1.83-7.02,2.24-3.05,4.99-4.32,8.6-3.97,2.49.2,3.05.1,4.83-1.22,1.98-1.37,3.31-1.83,3.31-1.12ZM359.48,326.5c0,.61-1.02,1.27-1.37.92s.31-1.37.92-1.37c.25,0,.46.2.46.46ZM356.94,328.48c0,.2-.46.66-1.02,1.02-1.12.66-1.37.15-.41-.81.71-.71,1.42-.81,1.42-.2Z"/>
          <path d="M337.61,331.13c-3,3,1.27,8.24,4.83,5.9,2.09-1.37,2.29-4.32.46-6.16-1.12-1.12-4.07-.97-5.29.25Z"/>
          <path d="M338.37,339.78c.2.31.56.41.81.25.71-.46.56-.76-.36-.76-.41,0-.61.25-.46.51Z"/>
          <path class="cls-10" d="M110.23,297.05c-.61,1.12-.66,4.07-.1,4.88.2.25,1.22,1.02,2.29,1.68,1.83,1.12,2.44,2.09,1.32,2.09-.31,0-1.22-.46-2.03-1.02l-1.42-1.07-.25,1.17c-.15.66-.36,3.26-.56,5.85l-.31,4.68,4.22,2.24c2.34,1.22,10.63,5.65,18.47,9.77,7.83,4.17,17.91,9.67,22.38,12.21,12.56,7.22,14.24,7.99,18.16,8.29,2.7.2,3.71.05,4.78-.61,1.78-1.22,2.14-.66.41.66-.76.56-2.19,1.12-3.2,1.12-1.63.1-1.68.1-.36.31,2.59.41,4.22-.71,5.9-4.07,1.12-2.24,1.53-3.76,1.53-5.75,0-3.31-1.63-7.83-3.61-10.12-2.03-2.29-6.51-5.24-9.51-6.21-6.87-2.29-41.51-18.36-53.57-24.82-3.76-2.03-4.07-2.14-4.53-1.27ZM118.01,306.66c1.42.76,1.83,1.58.71,1.58-.86,0-2.9-1.48-2.9-2.09,0-.31.15-.46.41-.36.2.1.97.51,1.78.86ZM113.07,309.82c.15.31.05.81-.25,1.12-.66.66-1.32.1-1.83-1.58-.31-1.07-.25-1.17.66-.66.61.31,1.22.81,1.42,1.12ZM122.38,308.8c.86.31,1.58.86,1.58,1.27,0,.61-.2.61-1.48-.05-.86-.41-1.68-.97-1.83-1.27-.41-.66-.25-.66,1.73.05ZM130.68,313.94c-.41.41-1.22.15-2.95-.92-3.61-2.24-3.36-3.1.31-1.22,2.29,1.17,3,1.78,2.65,2.14ZM116.48,312c1.12.86,1.12,1.27-.1.97-.56-.15-1.12-.56-1.27-.97-.36-.86.2-.86,1.37,0ZM120.91,314.6c.51.61.51.76-.15.76-.41,0-1.02-.36-1.37-.76-.51-.61-.51-.76.15-.76.41,0,1.02.36,1.37.76ZM134.29,315.21c1.22.66,1.42.92.76,1.07-1.02.2-2.95-.71-2.95-1.42s.31-.66,2.19.36ZM124.72,316.89c.51.56.76,1.02.56,1.02-.71,0-2.34-1.07-2.34-1.53,0-.81.81-.56,1.78.51ZM139.48,317.5c1.27.56,1.73,1.42.76,1.42-.81,0-3.05-1.17-3.05-1.63,0-.56.71-.51,2.29.2ZM128.54,318.92c1.42,1.12,1.22,1.27-.71.51-.71-.25-1.32-.71-1.32-1.02,0-.76.61-.61,2.03.51ZM144.31,319.94c1.02.76,1.07,1.02.41,1.02-1.12,0-3.46-1.07-3.46-1.63,0-.76,1.73-.41,3.05.61ZM132.3,320.96c.71.25,1.32.71,1.32,1.02,0,.81-.76.61-2.09-.51-1.37-1.12-1.12-1.27.76-.51ZM149.9,322.53c0,.66-1.73.56-2.44-.15-1.07-1.07-.66-1.37.92-.86.86.31,1.53.76,1.53,1.02ZM138.2,324.11c0,.56-.36.51-1.58-.1-1.42-.81-1.17-1.63.31-.92.71.31,1.27.76,1.27,1.02ZM153.52,324.31c.86.41,1.42.92,1.27,1.07-.46.51-2.75-.31-3.05-1.12-.36-.97-.1-.97,1.78.05ZM142.27,326.04c1.17.92,1.22,1.02.25,1.02-1.07,0-2.29-.86-2.29-1.63,0-.66.66-.46,2.03.61ZM160.99,328.33c.86.46,1.63,1.02,1.63,1.32s.61.05,1.32-.51c3.51-2.75,7.83-2.44,11.29.92,6.21,6.05,4.17,14.8-3.46,14.8-3.61,0-7.78-2.85-9.21-6.21-.31-.76-.97-1.42-1.48-1.42-.92,0-2.9-1.83-2.44-2.29.15-.15.81.2,1.53.76l1.32,1.02.51-2.9c.46-2.75.41-2.9-.86-4.02-.71-.66-1.93-1.42-2.7-1.78-.81-.31-1.42-.92-1.42-1.32,0-.66.15-.66,1.17.05.61.46,1.88,1.17,2.8,1.58ZM147.16,328.28c.51.41.86.81.71.97-.41.41-2.54-.56-2.54-1.17,0-.71.66-.66,1.83.2ZM152.19,330.72c1.37.61,1.73,1.42.56,1.42-.86,0-3.36-1.98-2.49-2.03.36,0,1.22.25,1.93.61ZM157.28,333.67c1.02,1.17.86,1.22-.97.51-.71-.25-1.32-.71-1.32-1.02,0-.86,1.32-.56,2.29.51Z"/>
          <path d="M165.78,331.28c-1.42,1.48-1.42,3.41-.05,5.14,1.37,1.78,3.56,1.78,4.99,0,1.53-1.93,1.73-3.05.81-4.78-.66-1.27-1.07-1.53-2.75-1.53-1.32,0-2.24.36-3,1.17Z"/>
          <path d="M171.12,339.47c-.51.71-.66,1.32-.41,1.32.66,0,1.68-1.42,1.48-2.09-.1-.31-.61,0-1.07.76Z"/>
          <path class="cls-13" d="M383.09,323.14c-8.44,5.09-17.96,10.99-21.26,13.07l-5.9,3.82.1,24.26c.1,15.77.36,24.32.66,24.32,1.07,0,10.78-1.53,13.23-2.09,5.09-1.12,14.35-4.02,18.62-5.8l4.37-1.83.36-7.73c.36-8.7,1.17-13.99,2.95-19.03l1.17-3.46.15,2.8c.1,1.53-.05,7.78-.36,13.89l-.56,11.09,1.37,1.83c1.93,2.54,2.19,7.33.71,13.58-.61,2.49-.97,4.68-.76,4.83.51.56,6,1.53,8.7,1.53,2.49.05,2.7-.05,3-1.27.56-2.24-.15-23.55-1.02-29.2-1.02-7.07-1.32-8.6-4.12-20.75-2.65-11.75-3.97-19.23-4.83-27.47-.36-3.1-.76-5.7-.97-5.7-.15.05-7.17,4.22-15.62,9.31Z"/>
          <path class="cls-7" d="M330.74,318.67c-20.5,3.56-36.27,5.04-63.59,5.9-19.69.61-47.61.36-57.48-.56-11.75-1.07-26.5-3-34.79-4.53-4.58-.86-8.44-1.48-8.6-1.32-.36.31-.56.2,4.07,2.49,2.14,1.07,5.39,3.15,7.22,4.68s3.66,2.75,4.07,2.75c1.22,0,1.53,1.07.36,1.37-.97.25-.97.31.46,2.14,1.42,1.73,3.1,5.6,3,6.87,0,.31-.56-.61-1.22-1.98-1.37-2.95-1.48-2.85-.76.71.86,4.53-1.12,10.78-4.22,13.28-1.27,1.02-2.14,1.27-4.27,1.22-1.48,0-2.39.15-2.03.41.31.2,1.37.41,2.34.41,2.39,0,1.78.41-1.63,1.02-2.24.46-3.2.41-4.63-.2-.97-.41-1.88-.61-1.98-.46-.15.15-.15,1.07,0,2.03.25,1.42.15,1.78-.41,1.58-.41-.1-.76-1.02-.86-2.03-.1-1.17-.66-2.29-1.68-3.26-.81-.76-1.48-1.78-1.53-2.19,0-.46-.25-.15-.46.66-.61,1.98,0,41.51.66,41.51.25,0,.56-.46.71-1.02.36-1.32,1.17-1.27,3,.1,1.83,1.42,2.29,2.09,1.83,2.54-.36.36-4.27-.46-6.26-1.32-.61-.25-.97.46-1.68,3.76-.66,2.75-1.58,5.09-2.85,7.02-2.14,3.31-6.71,7.68-9.36,8.95-.97.46-1.93,1.07-2.09,1.32-.2.31-.56.41-.81.2-.25-.15-1.88.41-3.61,1.27-1.83.92-3.92,1.58-5.04,1.58s-2.09.25-2.29.56c-.41.66,6.66,7.99,9.92,10.22,1.83,1.27,2.39,1.48,3.05.97,1.58-1.17,4.27-2.14,4.68-1.73.66.66-.1,1.42-2.29,2.24-1.07.36-1.93.92-1.98,1.22-.05.86,7.88,5.95,14.14,9.05,5.49,2.75,14.24,6,16.02,5.95.41-.05-.61-.71-2.29-1.53-1.68-.76-2.95-1.48-2.8-1.48.2-.05,8.24,2.75,10.89,3.82.76.31.86.2.56-.31s-.2-.61.56-.31c3.36,1.37,16.79,5.39,17.91,5.39.76,0,1.73.25,2.14.56,1.78,1.27-6.16,0-9.82-1.58-5.34-2.29-5.54-2.34-2.14-.31,2.29,1.37,2.7,1.78,1.53,1.53-.81-.2-2.9-1.02-4.58-1.83s-4.17-1.58-5.6-1.68c-1.37-.15-3.76-.51-5.24-.81-1.53-.31-2.85-.46-2.95-.31-.25.25,10.28,5.85,15.52,8.24,6.46,2.9,13.58,4.37,25.74,5.39,10.63.86,25.69,0,25.69-1.53,0-.2-1.07-.61-2.39-.92-4.68-1.07-13.18-3.26-17.45-4.53-4.53-1.27-7.02-1.63-5.6-.71.61.41.61.51-.25.51-2.19,0-8.39-2.03-12.97-4.27-5.34-2.54-5.54-2.85-1.17-1.37,7.22,2.39,12.46,3.2,22.79,3.66,13.18.51,24.77.56,25.59.05.51-.36.51-.97.05-3.05-.66-2.85-.41-3.66.81-2.65.51.41.76,1.53.76,3.1,0,2.44.05,2.49,1.53,2.49h1.48l.2-6.21.15-6.26.1,6.56c.1,5.7.2,6.46.92,6.21.46-.15,1.58-.31,2.49-.31q1.68,0,1.42-2.03c-.25-1.68-.15-2.03.56-2.03.81,0,1.07.76.86,2.85-.05.92.31,1.12,2.29,1.42,5.95.81,33.83-.25,37.08-1.42l2.03-.71-1.78-.46c-1.68-.46-1.58-.51,1.83-.81,1.98-.2,4.58-.71,5.8-1.12,2.85-1.02,3.2-.92,1.02.25-2.03,1.12-2.09,1.07,2.95,1.07,1.98,0,3.66.15,3.66.36s-2.9.66-6.46.97c-4.22.41-9.36,1.32-14.65,2.65-4.48,1.12-8.8,2.09-9.67,2.14-.81,0-1.98.2-2.54.41-2.75,1.12,10.63,1.58,15.21.56,3.41-.76,3.51-.31.2.76-3.71,1.17-13.23,1.53-21.31.76-3.66-.31-6.77-.46-6.92-.31s-.15.81.05,1.48c.36,1.48,1.73,2.14,6.66,3.15,9.05,1.88,31.39-.25,41.97-4.07,7.07-2.59,26.2-12.26,22.13-11.24-.56.15-2.03.51-3.26.81-1.27.36-3.92.71-5.85.81-6.36.46-7.12.56-8.95,1.37-1.68.71-7.12,1.93-7.12,1.58s3.1-1.78,6.97-3.2c6.31-2.34,6.16-2.34,4.73-1.12-1.17.92-.81.86,3.31-.46,2.54-.76,5.6-1.78,6.82-2.24,3.05-1.12,3.26-.97.56.46-1.27.66-2.19,1.22-2.03,1.27.66.05,7.22-2.03,10.43-3.36,6.21-2.44,16.53-8.29,16.53-9.36,0-.41-3.05-2.03-3.92-2.03-.71-.05-2.24-2.44-1.73-2.8.31-.15,2.03.66,3.87,1.78,3.2,1.98,3.41,2.03,4.83,1.27,2.24-1.17,7.63-5.8,7.63-6.56,0-.36-.66-.81-1.48-.97-.76-.15-2.14-.86-3-1.58-.81-.76-1.93-1.32-2.44-1.32-1.07,0-7.33-6.31-9.21-9.31-2.44-3.87-4.07-7.68-4.88-11.29-.97-4.17-2.29-8.04-2.34-6.71-.05.51-.25.76-.56.61-.71-.46-.61-3.2.15-3.41.46-.2.66-4.68.76-19.53.1-10.58.05-20.75-.15-22.59l-.36-3.31-.76,1.53c-.97,1.78-2.29,3-4.83,4.32-1.73.92-1.93,1.22-1.93,3.05,0,1.48-.2,2.03-.76,2.03-.51,0-.76-.51-.76-1.53,0-1.73-.05-1.78-2.8-.76-1.12.41-2.7.71-3.56.71l-1.53-.05,1.42-.61c.76-.36,1.22-.81,1.02-1.07-.25-.2,0-.25.51-.1.46.2.86.15.86-.1s-.86-.61-1.88-.81c-4.07-.76-8.24-4.07-9.41-7.48-.25-.76-.76-1.42-1.02-1.42-.86,0-.15-5.7,1.07-8.44.61-1.37,1.78-3.36,2.65-4.43,1.42-1.73,1.42-1.88.46-1.88-1.63,0-1.22-.86.71-1.53,1.78-.56,10.07-6.31,10.38-7.17.25-.61.46-.61-10.84,1.32ZM327.84,327.16c-.25.76-4.32,2.24-4.83,1.73-.2-.2.15-.81.81-1.37,1.32-1.07,4.32-1.37,4.02-.36ZM319.3,328.79c0,.76-1.53,1.32-3.66,1.32s-1.73-.81.51-1.42c2.7-.71,3.15-.71,3.15.1ZM187.95,328.99c1.48.46,1.42,1.42-.05,1.22-2.34-.31-3.41-.66-3.41-1.12,0-.56,1.63-.61,3.46-.1ZM326.78,331.59c-.86,1.68-1.68,2.95-1.78,2.85-.2-.2,1.83-4.27,2.54-5.24,1.07-1.32.81-.51-.76,2.39ZM194.87,330.42c1.02.15,1.98.51,2.14.76.41.71-4.07.56-4.78-.15-.81-.81-.76-1.58.1-1.27.41.15,1.58.46,2.54.66ZM311.67,330.11c0,.71-2.24,1.53-4.12,1.53-1.98,0-1.88-.86.2-1.48,2.24-.66,3.92-.66,3.92-.05ZM203.62,331.38c.86.71.76.76-1.78.66-1.68-.1-2.85-.41-3-.81-.31-.92,3.51-.81,4.78.15ZM209.98,331.64c1.48,0,1.98.2,1.98.81s-.41.76-1.88.51c-1.07-.15-2.34-.25-2.8-.31-.51,0-.92-.36-.92-.81,0-.56.25-.71.81-.51.46.15,1.68.31,2.8.31ZM303.02,331.84c-.25.25-1.63.56-3,.71-2.09.2-2.59.1-2.59-.51s.66-.76,3-.71c1.78.05,2.85.25,2.59.51ZM294.88,332.15c0,.71-.66.86-4.43,1.17-2.44.2-3.2.1-3.2-.41,0-.81,1.27-1.12,4.99-1.22,1.53,0,2.65.15,2.65.46ZM221.53,333.06c.15.51-.51.61-2.75.51-1.83-.1-3-.41-3.15-.81-.15-.51.51-.61,2.75-.51,1.83.1,3,.41,3.15.81ZM229.67,333.52c.15.46-.61.66-2.65.66-2.65,0-3.36-.36-2.49-1.22.61-.56,4.88-.1,5.14.56ZM275.55,333.42c0,.56-.61.76-2.39.76-1.37,0-2.95.15-3.56.31-.86.25-1.17.1-1.17-.46,0-.86,1.27-1.17,4.99-1.32,1.58-.05,2.14.15,2.14.71ZM283.69,333.11c0,.41-2.8,1.07-4.68,1.07-.51,0-.92-.36-.92-.76,0-.61.66-.76,2.8-.76,1.53,0,2.8.2,2.8.46ZM255.71,333.77c0,.41-.86.71-2.29.76-2.14.05-2.75-.25-1.93-1.02.61-.66,4.22-.41,4.22.25ZM265.28,333.77c-.15.41-1.42.71-3.36.81-2.59.1-3.15,0-3.15-.66,0-.61.66-.76,3.36-.76,2.44,0,3.31.15,3.15.61ZM239.43,334.13c0,.25-.51.56-1.07.71-1.42.41-4.07-.15-3.71-.71.36-.61,4.78-.61,4.78,0ZM249.1,334.18c0,.31-1.42.51-3.31.51s-3.31-.2-3.31-.51,1.42-.51,3.31-.51,3.31.2,3.31.51ZM293.15,347.36c-.46.71-5.85,2.03-11.55,2.8-10.68,1.48-21.31,1.93-39.88,1.68-18.92-.25-24.32-.76-27.52-2.59-1.42-.81-1.17-.86,5.39-.56,26.91,1.07,41.71.86,60.28-1.02,7.99-.76,13.63-.92,13.28-.31ZM214.81,358.95c.76,7.33,1.32,11.5,3,22.13.2,1.22.56,1.93,1.02,1.93.56,0,.76.61.76,2.03,0,1.12-.2,2.03-.51,2.03-.81,0-.56,1.68.51,3.31.66.97,1.02,2.39,1.02,3.92,0,2.85.36,3.97,1.22,3.66.36-.15,1.22.51,1.93,1.42,1.58,2.09,3.1,4.99,2.59,4.99-.2,0-1.17-.76-2.14-1.68l-1.73-1.63,1.12,1.63c1.27,1.88,4.58,4.73,5.44,4.73.36,0,.71-.25.81-.56.1-.36,1.27-.05,3.1.76,1.98.86,2.8,1.48,2.59,1.98-.15.46.46.97,1.93,1.53,2.75,1.07,2.95,1.07,2.95.05,0-.66.46-.71,2.95-.41,1.58.15,3.15.51,3.41.71.31.2,1.53.56,2.8.76,1.22.2,2.65.66,3.15.97.76.46,1.07.41,1.42-.2s1.53-.76,5.19-.76c4.07,0,4.73-.1,4.88-.86.1-.51.56-.92,1.02-.92s1.78-.15,2.85-.36c1.73-.25,1.93-.2,1.68.51-.2.51-.2.86-.05.86.61,0,3.26-1.58,3.26-1.98,0-.25,1.17-.92,2.54-1.48,2.09-.86,2.54-.92,2.54-.31,0,.36.15.71.36.71.86,0,5.39-3.36,6.36-4.78l1.12-1.58-1.88,1.63c-3.66,3.2-3.61,1.68.1-2.39,1.63-1.83,2.03-2.09,2.09-1.27,0,.66.41.2,1.02-1.22,1.22-2.65,1.27-3.46.25-2.59-.46.36-.92.51-1.07.36-.56-.51,1.37-5.44,2.14-5.44s.81-.25.97-2.8c.05-.86.1-2.39.15-3.41s.51-2.24.97-2.7c.66-.71.71-1.07.25-1.78-.61-1.02-.36-4.17.56-6,.41-.86.41-1.27-.05-1.73-.92-.92-.81-5.49.15-5.49.41,0,.76-.46.76-.97s-.36-1.07-.76-1.27c-.56-.2-.76-1.02-.76-2.85,0-3.26.92-3.36,1.12-.15.1,1.42.36-.2.61-3.92.31-4.73.61-6.61,1.27-7.33.76-.86.81-.71,1.07,2.8.56,7.68-1.07,27.42-3.05,37.74-2.9,15.06-10.89,21.11-30.62,23.3-3.15.31-5.9.76-6.1.92s-.05,2.34.25,4.88l.61,4.58,1.78-.15c.97-.1,2.54-.51,3.51-.92,2.09-.86,2.14-.86,1.78-.05-.2.56.76.51,4.99-.2,2.85-.51,5.29-.81,5.39-.71.31.25-6.87,2.34-9.16,2.7l-1.93.25v2.7c0,2.8-.66,3.66-1.22,1.58-.15-.61-.31-1.88-.31-2.8,0-1.58-.05-1.63-2.29-1.63-1.53,0-2.39.25-2.7.81s-.56-.41-.81-3.15c-.2-2.24-.56-4.83-.76-5.8-.81-3.2-.66,4.02.25,11.75.41,3.87.71,7.53.61,8.19s-.41-.76-.61-3.15c-.61-6.71-1.07-7.99-2.85-8.24-1.48-.2-1.53-.2-1.22,1.73.41,2.54-.56,2.59-1.32,0-.56-1.73-.86-1.98-3.71-2.85-3.61-1.12-14.45-6.56-15.62-7.78-.71-.76-.61-.76.61,0,3.1,1.93,15.92,6.56,18.47,6.71.86.05,2.19.25,2.95.51l1.42.36-.15-4.73-.15-4.73-4.99-.61c-6.21-.81-13.43-2.85-17.4-4.93-1.68-.92-4.58-3.15-6.51-4.99-5.8-5.7-7.43-10.58-10.02-29.71-1.27-9.72-2.03-17.86-2.03-22.38v-3.56l1.12,1.78c.76,1.32,1.22,3.36,1.73,7.99ZM291.73,355.7c.1,1.02-.05,1.88-.31,1.88-.66,0-1.12-1.27-1.12-2.9,0-1.98,1.27-1.12,1.42,1.02ZM218.58,356.87c0,.97-.2,1.73-.51,1.73-.25,0-.51-.92-.51-2.09s.2-1.93.51-1.73c.31.15.51,1.12.51,2.09ZM344.73,358.6c0,1.93-.2,2.54-.76,2.54s-.76-.61-.76-2.54.2-2.54.76-2.54.76.61.76,2.54ZM167.71,361.19c0,2.03-.66,2.65-1.22,1.17-.41-1.07-.41-3,0-3.41.71-.66,1.22.31,1.22,2.24ZM253.17,360.12c0,1.12-2.29,6.51-3.61,8.44-1.78,2.59-6,6.46-9,8.19-2.39,1.42-7.73,3.36-8.14,3-.31-.36.76-6.82,1.68-9.77,1.48-5.04,3.66-6.56,12.67-8.9,6.51-1.63,6.41-1.63,6.41-.97ZM261.82,360.58c7.58,1.68,10.28,3.36,11.95,7.27.71,1.73,2.8,9.97,2.8,11.04,0,.76-4.78-.71-8.14-2.54-6.21-3.31-13.73-11.9-13.73-15.67,0-1.37,1.27-1.37,7.12-.1ZM218.58,363.18c0,1.37-.2,2.54-.46,2.54-.56,0-1.27-3.82-.81-4.58.71-1.17,1.27-.36,1.27,2.03ZM344.33,367.2c-.15,1.78-.41,2.59-.92,2.59-.86,0-.97-3.1-.15-4.63.81-1.58,1.22-.76,1.07,2.03ZM168.47,368.11c.25,1.73.2,2.19-.41,2.19-.51,0-.81-.71-.97-2.19-.15-1.17-.15-2.34,0-2.54.41-.76,1.02.36,1.37,2.54ZM218.98,370.45c.1,1.42-.05,1.88-.61,1.88-.61,0-.81-.56-.81-2.09,0-2.65,1.22-2.44,1.42.2ZM254.9,372.03c.92,2.19,4.12,5.75,6.1,6.77,2.34,1.22,6.31,2.19,9.21,2.24,2.9,0,2.59.2-3,1.98-1.98.56-4.78,1.93-6.31,3-2.8,1.98-6.21,6.21-6.21,7.63,0,.41-.61-.41-1.32-1.88-1.63-3.26-5.14-6.46-9.41-8.6-2.8-1.42-3.05-1.63-1.78-1.68,1.98,0,6.56-2.7,8.44-4.99.81-1.02,1.93-2.85,2.39-4.02.51-1.22.97-2.19,1.02-2.19.1,0,.46.76.86,1.73ZM344.22,374.88c0,1.93-.2,2.54-.76,2.54s-.76-.56-.76-2.19c0-1.22.15-2.39.36-2.54.81-.86,1.17-.15,1.17,2.19ZM168.93,373.66c.46,1.22.36,4.78-.15,4.78-.41,0-1.07-2.8-1.07-4.73,0-1.07.81-1.12,1.22-.05ZM219.59,377.83c0,2.85-.81,2.34-1.32-.81-.31-1.88-.2-2.14.51-1.83.56.2.81.97.81,2.65ZM343.72,382.25c0,1.68-.2,2.29-.76,2.29-.61,0-.76-.51-.66-2.29.2-3.1,1.42-3.1,1.42,0ZM169.64,383.17c.1,1.42-.05,2.39-.36,2.39s-.56-.76-.56-1.73-.15-2.14-.36-2.65c-.2-.61-.1-.76.41-.61.46.15.76,1.12.86,2.59ZM276.01,384.95c-1.42,10.17-7.22,15.62-19.89,18.62-1.32.31-1.32.25-.92-1.22,1.48-5.14,6.66-10.84,16.28-17.75,2.65-1.88,4.88-3.46,4.93-3.41s-.15,1.73-.41,3.76ZM247.57,394.21c3.1,3.1,6.71,8.7,6,9.41-.15.15-1.83-.05-3.71-.51-9.82-2.24-16.43-9.36-17.4-18.72l-.31-3.05,6.05,4.78c3.31,2.65,7.53,6.26,9.36,8.09ZM343.72,388.92c0,1.63-.2,2.24-.76,2.24s-.76-.56-.76-2.19c0-1.22.15-2.39.31-2.54.71-.71,1.22.31,1.22,2.49ZM170.51,389.83c.2.97.2,2.19.05,2.7s-.1,1.17.1,1.48,2.75,1.37,5.7,2.39c7.73,2.65,4.43,2.29-4.68-.51-.56-.15-.86.1-1.02.92-.1.61-.41,1.22-.76,1.32-.41.15-.56-1.22-.56-4.88,0-5.09.56-6.71,1.17-3.41ZM349.67,391.51c.71,1.07.66,1.12-1.22,1.63-1.07.31-2.54.56-3.31.56-1.37,0-1.42.1-1.42,2.85,0,3.31-1.17,3.71-1.42.51-.15-1.58-.31-1.83-1.02-1.58-2.09.81-9.46,2.8-10.22,2.75-.46,0,1.37-.76,4.02-1.68,8.7-3,9.11-3.51.81-1.07-2.44.71-4.73,1.22-4.99,1.17-.61-.2,11.19-4.17,12.56-4.17.56-.05,1.73-.56,2.54-1.22,1.73-1.37,2.65-1.27,3.66.25ZM178.29,395.17c2.9,1.02,5.04,1.88,4.73,1.98-.71.25-7.58-1.88-9.82-3-1.93-.97-2.75-1.93-1.02-1.17.46.2,3.2,1.17,6.1,2.19ZM163.89,400.31c0,.56-.46.71-1.73.61-2.03-.15-2.34-.31-1.83-1.12.51-.86,3.56-.41,3.56.51ZM169.44,402.7c-.41,2.34-.66,2.8-1.27,2.44-.25-.2-.46-1.22-.46-2.34,0-1.68.15-1.98,1.02-1.98.97,0,1.02.2.71,1.88ZM352.52,401.58c.1.61-4.17,1.27-4.53.66-.36-.56,1.78-1.42,3.26-1.27.61.05,1.22.31,1.27.61ZM345.39,403.31c.31,1.32.25,1.93-.41,2.54-.71.71-.86.71-1.27.05-.25-.41-.51-1.63-.51-2.7,0-1.58.15-1.93.86-1.78.46.1,1.07.92,1.32,1.88ZM167.96,408.81c-.2,1.07-.46,2.09-.56,2.29-.51.81-1.22.36-1.22-.76,0-1.98.61-3.41,1.37-3.41.61,0,.71.41.41,1.88ZM347.58,410.84c.36,1.98.05,2.59-1.02,1.73-.81-.71-1.53-3.87-1.02-4.73.51-.81,1.63.86,2.03,3ZM165.67,414.05c0,.51-.56,1.63-1.27,2.39-1.02,1.17-1.22,1.27-1.27.51,0-.51.36-1.73.76-2.7.76-1.83,1.78-1.93,1.78-.2ZM350.07,415.11c.46.86.76,1.88.66,2.29-.31,1.42-2.44-.66-2.44-2.39,0-1.93.76-1.88,1.78.1ZM161.86,419.39c.05.76-.46,1.48-1.32,1.98-1.93,1.12-2.19.36-.66-1.93,1.37-1.98,1.98-2.03,1.98-.05ZM353.53,419.69c1.17,2.03,1.12,2.44-.25,2.09-1.63-.41-2.44-1.63-1.88-2.75.66-1.27,1.07-1.12,2.14.66ZM358.16,424.47c.15.51-.05.92-.56,1.12-.92.36-2.7-1.48-2.7-2.7,0-.61.2-.61,1.48,0,.81.46,1.58,1.12,1.78,1.58ZM157.79,423.15c.41.71-2.49,2.59-3.92,2.59-1.12-.05-1.07-.1.61-1.53,1.83-1.58,2.8-1.88,3.31-1.07ZM251.54,433.33c.1.92-.05,1.93-.36,2.24-.71.71-.92.46-1.32-2.09-.31-1.98-.25-2.19.56-2.03.66.1,1.02.71,1.12,1.88ZM262.32,435.31c0,1.93-.36,2.8-.97,2.39-.51-.25,0-4.32.51-4.32.25,0,.46.86.46,1.93ZM252.3,439.33c.1,1.07.05,2.14-.15,2.39-.76.81-1.53-.31-1.53-2.29,0-2.65,1.32-2.75,1.68-.1ZM262.58,441.52c0,3.05-1.12,3.26-1.37.25-.15-2.49-.05-2.95.81-2.65.31.1.56,1.17.56,2.39ZM315.69,448.33c-.1.1-1.32.51-2.7.97-2.7.92-2.8.51-.15-.51,1.58-.56,3.31-.86,2.85-.46ZM302.87,451.49c-.15.15-.61.2-.97.05-.41-.15-.25-.31.31-.31.56-.05.86.1.66.25ZM298.7,452.45c-1.37.36-3.46.66-4.58.66-1.63,0-1.42-.1,1.02-.46,1.68-.25,3.26-.56,3.56-.66.25-.1.97-.2,1.53-.2s-.1.31-1.53.66Z"/>
          <path class="cls-13" d="M114.65,324.36c-.2.15-.36.86-.36,1.53s-1.37,6.51-3,13.02c-4.07,15.97-5.44,21.98-6.41,28.44-1.17,8.24-1.02,28.33.25,30.42.31.46,1.22.41,4.27-.2,4.83-1.02,7.07-2.09,6.71-3.26-.15-.46-.61-2.54-1.07-4.58-1.42-6.97-.81-11.04,2.03-13.58l1.12-1.02-.92-8.65c-1.07-9.97-1.27-18.36-.41-16.89,1.07,1.78,3.41,12.36,4.22,18.92,1.37,10.89.86,9.61,5.04,11.34,6.16,2.54,20.04,5.54,29.5,6.41l2.9.25v-18.92c0-10.43-.15-19.43-.31-20.09-.25-.97-3-2.49-13.38-7.73-12.11-6.05-18.16-9.21-26.55-13.89-1.83-1.02-3.51-1.73-3.66-1.53Z"/>
          <path d="M348.24,346.24q-.66.86.31.15c.56-.41,1.12-.81,1.22-.86.1-.1,0-.15-.31-.15s-.86.41-1.22.86Z"/>
          <path d="M169.23,350.97c.41.25,1.12.46,1.53.46.51,0,.41-.15-.25-.46-1.37-.61-2.19-.61-1.27,0Z"/>
          <path class="cls-10" d="M118.01,384.34c.31,3.82.71,5.29,1.42,5.29.92,0,3,1.63,2.7,2.09-.15.25-.97.1-1.83-.36l-1.58-.81.36,1.48c.15.76,1.68,4.17,3.36,7.53,3.56,7.17,9.16,15.01,10.68,15.01,1.68,0,10.12-3.05,12.46-4.53,8.19-5.09,10.02-7.43,12.06-15.01.51-1.98.76-3.71.56-3.92-.25-.2-2.7-.66-5.49-.97-11.45-1.32-20.96-3.66-29.5-7.22-5.95-2.49-5.54-2.65-5.19,1.42ZM126.81,392.48c2.24,1.07,2.24,1.93.1,1.48-1.78-.41-2.95-1.12-2.95-1.83,0-.66.92-.56,2.85.36ZM134.8,394.51c.46.15.86.61.86,1.02s-.05.71-.1.71c-1.22-.1-4.73-1.53-4.88-2.03-.2-.61,1.22-.51,4.12.31ZM140.75,396.24c0,.86-.2.97-1.37.71-2.85-.66-3.05-1.73-.41-1.73,1.42,0,1.78.2,1.78,1.02ZM148.33,396.95c1.22.76-.2,1.32-2.49.92-1.48-.25-2.34-.66-2.44-1.17-.1-.66.2-.76,2.03-.46,1.22.15,2.54.51,2.9.71ZM154.18,397.56c1.48.56.81,1.22-1.22,1.22-1.48,0-2.03-.2-2.03-.76,0-.81,1.78-1.02,3.26-.46Z"/>
          <path class="cls-10" d="M390.52,384.34c-6.1,2.49-18.26,5.9-27.06,7.58-8.34,1.58-8.14,1.37-6.97,5.54l.56,1.93,2.24-.36c2.03-.31,2.24-.2,2.24.71s-.31,1.07-2.03,1.07h-2.03l.86,2.14c2.59,6.66,9.11,13.23,17.35,17.55l1.63.86,2.59-2.54c6.61-6.41,13.68-19.58,13.84-25.79.05-1.02.36-1.88.66-1.88s.71-.71.92-1.58c.41-2.24.41-7.07-.05-7.07-.25.05-2.34.86-4.73,1.83ZM392.55,392.17c0,.66-1.98,1.88-3.71,2.34-1.27.31-1.42.2-1.27-.61.1-.61.92-1.12,2.44-1.53,1.27-.36,2.34-.61,2.44-.66.05-.05.1.15.1.46ZM385.94,394.36c0,.71-3.92,2.19-4.43,1.68-.41-.41.41-1.37,1.58-1.83,1.63-.66,2.85-.61,2.85.15ZM380.34,395.89c0,.71-3.41,2.03-4.17,1.58s-.41-1.22.76-1.73c1.68-.66,3.41-.61,3.41.15ZM373.73,397.11c-.05.92-.86,1.48-2.9,1.98-1.73.46-2.19.41-2.19-.05,0-.36.31-.86.66-1.17,1.07-.86,4.43-1.42,4.43-.76ZM367.12,398.99c0,.81-1.07,1.32-2.85,1.32-1.58,0-1.63-1.37-.05-1.68,2.24-.41,2.9-.36,2.9.36Z"/>
          <path class="cls-11" d="M98.53,402.04c0,1.68.81,3.1,7.07,12.67,3.1,4.68,3.41,4.99,5.8,5.7,2.95.86,3.87.92,4.88.31.56-.36.15-.61-1.53-1.07-2.49-.66-4.53-1.78-4.53-2.54,0-.25.41-.36.92-.15.81.31.81.25.05-.66-.46-.51-1.78-3-2.95-5.44-1.42-3-2.54-4.68-3.36-5.04-1.58-.71-1.17-1.42.81-1.42,1.58,0,6.56-1.88,6.56-2.49,0-.2-2.24-.25-4.99-.15-3.71.15-5.44,0-6.87-.56l-1.88-.81v1.68Z"/>
          <path d="M412.13,402.96c-1.37.15-3.82.36-5.34.41l-2.8.05,2.03.76c1.22.51,3.1.71,4.73.56,1.42-.1,2.65-.1,2.65.05,0,.1-1.37,2.49-3.05,5.29-1.73,2.8-3,5.34-2.9,5.7.25.66,5.6-7.43,6.77-10.12,1.12-2.75.86-3.1-2.09-2.7Z"/>
          <path class="cls-11" d="M404.4,420.81c-2.09,1.42-2.14,2.09-.05,1.68,1.83-.36,2.95-1.17,2.95-2.14s-.97-.81-2.9.46Z"/>
          <path class="cls-11" d="M108.5,425.08c-.56,6.21,1.07,11.19,4.68,14.8,2.34,2.29,4.32,3.41,5.44,2.95.71-.25.46-.71-1.32-2.75-3.05-3.41-4.53-6.82-4.53-10.43,0-2.59.2-3.15,1.42-4.32.76-.76,1.88-1.68,2.39-2.03.56-.36.76-.56.46-.41-.56.25-5.9-.76-7.38-1.42-.76-.31-.92.2-1.17,3.61Z"/>
          <path class="cls-11" d="M405.37,424.32c-.36.36-.61,2.24-.61,4.68-.05,3.66-.36,5.24-1.78,8.65-.71,1.68.86.66,2.44-1.53,1.73-2.44,2.14-4.68,1.63-9.05-.36-3.41-.61-3.82-1.68-2.75Z"/>
          <path class="cls-11" d="M134.08,446.3c-1.27.86-2.8,1.83-3.31,2.19-.81.51-.86.66-.2,1.12.41.31,1.37.56,2.14.56,1.17,0,1.63-.41,2.75-2.59.71-1.42,1.22-2.65,1.12-2.7s-1.22.56-2.49,1.42Z"/>
          <path d="M252.76,455.1c-.86.15-1.12.46-.86,1.07.15.46.46,2.59.61,4.78.31,3.71.2,4.07-.92,5.29-.66.71-1.83,1.63-2.59,2.03-.81.41-1.42,1.12-1.42,1.58,0,.71.76.76,7.73.51,4.22-.2,9-.36,10.68-.36,2.49,0,2.95-.15,2.95-.92,0-.46-.81-1.37-1.78-1.98-.97-.66-2.14-1.88-2.59-2.8-.86-1.63-.81-2.09.66-8.44q.25-1.12-5.49-1.07c-3.2.05-6.31.2-6.97.31Z"/>
          <path class="cls-7" d="M191.11,458.81c-.76,1.37-.25,2.75,1.17,3.41.81.41,2.19.36,4.68-.15,7.27-1.37,15.31-.66,27.01,2.39,10.02,2.59,20.45,2.59,22.84-.05.76-.81.76-1.17.2-2.75-.36-1.02-.86-1.83-1.12-1.83s-1.73.41-3.31.86c-2.29.71-4.73.92-11.29.92-12.31,0-34.95-2.09-38.81-3.61-.51-.15-1.02.15-1.37.81Z"/>
          <path class="cls-7" d="M323.01,458.3c-2.19.92-9.36,2.03-21.31,3.36-14.04,1.53-21.87,1.48-27.88-.31-2.8-.76-3.66-.86-3.97-.36-1.58,2.39,2.34,4.83,8.39,5.29,4.53.36,11.19-.41,20.91-2.44,8.39-1.73,17.5-2.39,21.92-1.53,2.85.56,3.1.51,4.17-.61,1.07-1.02,1.12-1.32.56-2.54-.71-1.48-1.02-1.58-2.8-.86Z"/>
          <path class="cls-11" d="M201.38,466.49c-4.22.71-7.53,2.39-9.82,4.93-2.19,2.49-3.82,6.97-3.31,9.05.51,1.98,1.07,1.37,1.17-1.27.05-1.42.56-3.36,1.17-4.43.56-1.12.86-1.42.66-.71-.76,2.39-.31,5.14,1.02,6.46.97,1.02,1.93,1.32,4.48,1.53l3.26.25,1.58-3.2c3.36-6.77,8.09-10.22,14.04-10.33l3.05-.05-2.09-.92c-4.02-1.73-9.67-2.24-15.21-1.32Z"/>
          <path class="cls-11" d="M303.27,468.43c-1.27.36-1.02.46,1.58.51,4.22.05,7.73,1.22,10.22,3.36,2.29,1.93,4.22,5.39,4.22,7.53,0,.71.2,1.42.51,1.63.76.46,3.92-1.07,4.78-2.39,1.88-2.85-1.42-7.58-6.66-9.56-3.2-1.22-11.8-1.83-14.65-1.07Z"/>
          <path d="M264.11,470.77c-.25.1-4.07.25-8.39.36-7.22.15-7.88.25-8.04,1.12-.2.92.05.97,2.95.66,1.78-.2,6.51-.36,10.48-.36,6.97,0,7.33-.05,7.33-1.02,0-.86-.31-1.02-1.88-.97-1.07,0-2.14.1-2.44.2Z"/>
          <path d="M255,473.56c-5.04.15-7.17.46-7.33.86-.2.76,3.1.86,13.79.31,5.34-.25,6.97-.46,6.97-1.02,0-.71.2-.71-13.43-.15Z"/>
          <path d="M254.95,476.11l-7.12.25-.1,1.63-.15,1.68h10.43c9.31,0,10.43-.1,10.43-.81,0-.76-.97-.81-9.92-.61-5.44.15-9.92.1-9.92-.1,0-.46,13.33-1.17,17.04-.97,2.09.15,2.54,0,2.7-.71.2-.97.97-.92-13.38-.36Z"/>
          <path d="M247.32,481.19c-.61.25,3.2.46,9.67.46,5.9.05,11.24.2,11.95.36q1.22.25.31-.51c-.86-.66-2.65-.81-10.94-.76-5.49,0-10.43.2-10.99.46Z"/>
          <path d="M243.91,482.97c-1.02.25-2.03.66-2.24.86-.2.25,7.07.41,16.13.41,12.87-.05,16.28-.15,15.46-.61-.66-.41-4.48-.66-10.68-.76-5.29-.1-11.29-.2-13.28-.31-1.98-.05-4.43.1-5.39.41Z"/>
          <path d="M236.23,485.77c-1.37.25-2.65.61-2.8.76-.2.2,10.84.25,24.52.15,21.21-.15,24.42-.25,21.62-.76-3.76-.71-39.32-.81-43.34-.15Z"/>
          <path d="M246.3,487.81c-15.72.36-22.64.86-23.55,1.73-.1.1,14.55.2,32.56.15,18.01-.05,36.37.05,40.85.25l8.14.36-5.85-.71c-3.2-.36-7.22-.92-8.9-1.27-4.02-.76-20.5-.97-43.24-.51Z"/>
        </g>
        <g id="shadows">
          <path class="cls-2" d="M183.94,118.5c-55.88,1-66.62,82-17.87,102.86,85.49,34.94,109.03-104.27,17.87-102.86ZM236.51,183.2c-9.27,36.72-66.23,49.65-85.04,14.5-39.21-77.84,89.07-101.49,86.13-14.77-.38.02-.75.11-1.08.28Z"/>
          <path class="cls-2" d="M369.92,172.13c.24-65.95-82.84-75.47-103.57-18.6.06.23.14.45.26.65-23.31,50.24,46.27,94.88,85.04,55.59,0,0-.02-.02-.02-.03,8.38-7.48,14.16-17.17,16.76-28.12.13-.11.21-.36.26-.52-.02.03-.04.06-.07.1.69-2.92,1.11-5.99,1.35-9.07ZM365.46,183.36c-3.28,9.84-8.9,20.51-17.88,26.09-.03,0-.05,0-.08,0-24.05,16.34-57.34,9.17-75.26-13.04-43.38-84.35,113.75-96.81,93.22-13.04Z"/>
          <g class="cls-1">
            <path class="cls-4" d="M134.79,230.7s.06.07.09.11c.04.04.03.03-.09-.11Z"/>
            <g>
              <path class="cls-4" d="M393.29,202.62c.03-.07.06-.14.09-.22-.03.07-.06.15-.09.22Z"/>
              <g>
                <path class="cls-4" d="M363.01,286.61c.01-.09.02-.18.04-.28l-.04.28Z"/>
                <path class="cls-4" d="M398.54,199.48c-1.19.22-5.07-1.77-4.59,1.01-2.51,9.65-5.85,16.65-15.34,19.27-22.68,25.5-66.12,41.16-91.86,24.98,0-.03-.02-.06-.03-.08-12.04-3.26-20.19-13.89-28.21-22.97-3.69-9.65-12.83,8.69-15.53,11.92-28.68,26.83-75.69,26.71-104.23-.98-.17-3.06-3.62-5.6-6.72-6.27-.11,1.3-.45,2.6-.53,3.92,27.9,41.04,90.82,41.11,122.91,6.97,73.12,56.37,120.57-7.88,107.42,62.86-7.93,4.64-15.38,9.13-23.73,13.29,1.81-.21,3.86.51,5.56-.2,3.92,3.09,7.65-3.27,11.3-4.12,13.8-8.38,27.35-17.54,42.14-24.16,2.39-25.93,1-52.71,4.06-78.33.03-.02.04-.05.06-.08,0-1.92.07-3.88.73-5.7-.38-1.24-1.82-1.19-3.37-1.32Z"/>
              </g>
            </g>
          </g>
          <g class="cls-12">
            <g>
              <path class="cls-4" d="M397.73,378.44c-.09-.15-.21-.28-.32-.42.11.14.22.28.32.42Z"/>
              <path class="cls-4" d="M409.43,382.52c-.35-4.86-1.01-9.7-1.84-14.19-.96-5.19-1.37-10.36-2.63-15.45-2.5-10.08-4.33-20.04-5.93-30.24-.13-.85-1.55-7.78-.99-8.1-3.26,1.86-6.51,3.73-9.77,5.59-2.39,1.37-5.3,2.23-7.52,3.84-5.77,4.19-17.74,10.67-24.27,15.9-1.08.58-1.49,2.04-.89,3.11-.94,13.5.14,27.06-.04,40.65-.08.05-.15.11-.22.17-.25,2.07.11,4.15.06,6.23.03.02.06.05.09.07,1.82-.72,3.61-1.22,5.47-1.59.39-4.75.06-9.53-.11-14.28-.21-6.04.13-12.03-.3-18.06-.27-3.81-.59-9.66,3.71-11.48-.04.02-.09.04-.13.05,3.01-1.97,5.66-4.53,9.07-5.83-.61,15.51-.72,31.32-1.78,46.86.01,0,.03,0,.04-.01,0,.17.03.33.09.48,5.79-1.34,11.81-2.73,17.38-4.59,0,.02.02.04.02.07,1.18-.48,2.51-.93,3.79-.77.28-1.03.51-2.01.72-2.96-.1-.05-.19-.12-.28-.18.17-9.95-.11-20.01,4.24-29.29.03,2.85.27,5.71-.11,8.54,0-.06.01-.11.02-.17-.09,8-2.87,16.82,1.43,23.92,1.24,2.05.7,5.66.39,7.91-.28,2.03-2.76,6.33-.72,8.08,2.18,1.88,9.94,2.65,11.05-.74,1.24-3.76.21-9.63-.08-13.52Z"/>
            </g>
            <path class="cls-4" d="M401.52,326.59c.02.27.06.53.11.8-.04-.27-.07-.53-.11-.8Z"/>
          </g>
          <g>
            <path class="cls-14" d="M329.47,65.13s.03.03.04.05c-.6-.94-.23-.29-.04-.05Z"/>
            <path class="cls-5" d="M403.89,151.2c-7.31-44.19-41.79-91.81-84.29-102.41,7.98,5.01,17.28,13.55,20.89,21.81-9.23-10.38-21.67-20.47-35.41-23.37,13.59,9.37,29.47,21.79,44.27,35.83,4.92,7.6,9.63,15.42,15.18,22.58,4.61,3.73,10.29,6.05,13.46,11.47,2.3,2.57,3.29,6.41,6.04,8.48,7.41,4.38,8.86,13.13,11.36,20.69.32,3.81,5.7,8.92,8.5,4.92Z"/>
          </g>
          <path class="cls-3" d="M158.21,349.25c1.61-5.03-37.32-21.23-43.26-25.54.72,1.89-4.01,8.37-2.28,10.56,12.03,6.65,24.55,13.21,36.47,20.27,3.08,1.73,4.3,1.94,4.53,5.66.53,8.6-.13,17.15.34,25.74.02.28,4.64.03,5.18,0-2.16-12.07.38-24.56-.98-36.68Z"/>
          <path class="cls-3" d="M115.44,378.41c4.15-3.51,2.28-7.16,1.71-11.85,0-2.27,0-4.55-.07-6.81-.04-1.27-1.27-5.93-.72-6.84-4.52,7.44-6,17.92-6.17,26.52-.12,6.32-.32,12.15,1.3,18.3,1.27-1.42,2.91-1.04,4.18-1.92,1.44-1,.62-2.84.16-4.18-.93-2.76-3.13-10.89-.39-13.21Z"/>
          <g class="cls-9">
            <path class="cls-8" d="M395.3,382.46c-1.38-.45-2.54.72-3.53,1.51-5.54,2.95-11.89,3.96-17.88,5.94-7.59,3.16,0,17.01-15.76,26.41-50.32,28.17-156.14,39.71-204.79,4.77-1.06-.98-2.45-1.75-3.39-2.84-1.49-.89-2.88-1.94-4.14-3.21-.45.4-.9.92-1.31,1.57-1.95-2.84-5.2,1.49-5.89,4.65.85.84,1.68,1.7,2.49,2.59.11-.04.22-.07.34-.12.16.18.3.37.46.55.31.52.66,1.03,1.01,1.52.8.86,1.61,1.7,2.47,2.5.44.4.68.84.8,1.29,6.37,6.2,15.7,10,23.62,13.51,11,8.02,25,11.1,38.02,14.42,44.51,7.57,104.04,9.74,142.41-17.2,14.09-9.7,30.39-17.54,39.12-33,2.87-5.43,9.71-19.94,5.96-24.85Z"/>
            <path class="cls-8" d="M371.09,402.35c-.05.08-.18.32-.2.41.02-.05.04-.07.06-.11.04-.1.1-.21.14-.29Z"/>
            <path class="cls-8" d="M371.35,415.24s0,0,.01,0c.08-.08.17-.17.25-.25.11-.11.12-.12-.26.26Z"/>
          </g>
        </g>
      </g>
    </g>
  </g>
</svg>