<?xml version="1.0" encoding="UTF-8"?>
<svg id="Layer_2" data-name="Layer 2" xmlns="http://www.w3.org/2000/svg" viewBox="0 0 512 512">
  <defs>
    <style>
      .cls-1, .cls-2 {
        opacity: .24;
      }

      .cls-3 {
        opacity: .25;
      }

      .cls-3, .cls-4, .cls-2, .cls-5 {
        fill: #181514;
      }

      .cls-6 {
        fill: #fff;
      }

      .cls-7 {
        fill: #2196f3;
      }

      .cls-8 {
        fill: #606060;
      }

      .cls-9 {
        opacity: .23;
      }

      .cls-10 {
        fill: #03a9f4;
      }

      .cls-5 {
        opacity: .27;
      }

      .cls-11 {
        fill: #607d8b;
      }

      .cls-12 {
        opacity: .26;
      }

      .cls-13 {
        fill: #ffeb3b;
      }

      .cls-14 {
        fill: #fad506;
      }

      .cls-15 {
        fill: #ced2d7;
        opacity: 0;
      }

      .cls-16 {
        fill: #e6e6e6;
      }
    </style>
  </defs>
  <g id="Layer_1-2" data-name="Layer 1">
    <g>
      <rect class="cls-15" width="512" height="512"/>
      <g id="with-shodows">
        <g id="less_shadow">
          <path d="M365.32,482.41c.07-.15.15-.56.15-.82,0-.31,7.56-.51,21.15-.51,27.69,0,59.34-.66,51.19-1.07-4.33-.2-2.28-.31,8.08-.46,5.17-.03,12.71-.16,19.62-.3.02-.14.04-.27.07-.41-2.15.01-4.54.03-7.21.05-17.33.15-33.34.46-35.54.71s-16.01.46-30.7.46c-23.28,0-26.66-.1-26.66-.76s2.94-.76,22.62-.76c12.41,0,28.86-.2,36.5-.51,6.01-.24,18.57-.51,30.87-.69-.7-.19-1.35-.42-1.96-.72-10.85.1-21.07.25-26.34.43-39.36,1.27-62.06,1.07-62.06-.56,0-.87.15-.87,7.93-.97,3.3-.05,5.65-.25,5.65-.56,0-.36-2.42-.41-6.98-.2-6.39.31-6.98.25-6.98-.56s.59-.87,6.46-.56c3.53.15,15.5.41,26.59.51,21.59.2,21.08.15-10.65-.71-22.99-.66-23.87-.71-23.87-1.83,0-.61.51-.71,2.06-.51,2.64.41,40.39,1.73,57.8,2.04,22.03.41,7.71-.51-22.77-1.43-14.54-.46-29.08-.97-32.31-1.12q-5.88-.31-8.08-2.45l-2.28-2.09,2.86-1.78c2.86-1.73,2.86-1.78,2.57-4.84l-.37-3.06,8.52-2.5c8.81-2.6,18.51-6.17,22.62-8.26,1.25-.66,2.5-1.22,2.72-1.22s.73.87,1.18,1.94c1.18,3.11,3.75,5.35,7.56,6.68,3.3,1.12,3.82,1.17,7.64.56,3.89-.56,4.11-.56,5.95.66,3.01,1.99,9.62,3.92,13.44,3.92,7.12,0,13.29-2.14,16.74-5.81q1.91-2.09,6.76-2.14c6.1-.05,10.72-1.53,15.72-5.04,5.36-3.77,8.67-8.66,9.03-13.5.15-2.09-.15-4.84-.59-6.12-1.98-5.25-2.35-4.48,7.12-14.88,4.92-5.4,5.58-7.8,3.23-11.06-.88-1.17-2.64-2.6-3.97-3.11l-2.35-1.02-.07-9.53c-.15-12.59-1.98-22.47-6.98-37.35-4.99-14.78-6.68-21.45-8.37-33.48l-.44-3.16,2.86-1.32c4.7-2.14,5.36-4.08,3.38-9.63-1.03-2.96-1.03-3.67,0-8.15,1.32-5.96.51-9.07-3.16-11.72-2.28-1.63-2.28-1.68-1.91-5.96.22-2.34.73-8.87,1.1-14.47.59-8.41,2.35-26.55,4.85-51.52l.44-4.18,3.01-.61c6.24-1.22,9.33-4.28,9.91-9.73.37-4.08-.88-9.78-2.79-12.03-1.32-1.58-1.32-1.68,0-4.08,4.99-9.12,2.94-14.73-7.49-20.23-3.23-1.73-3.45-1.99-3.89-4.74-1.1-6.88-5.65-20.74-9.03-27.67-15.35-31.59-38.63-52.64-78.73-71.04-22.91-10.55-50.09-18.24-70.28-19.92-5.65-.51-7.78-1.38-2.42-1.07,2.2.15,6.68.41,9.91.56,29.82,1.58,61.62,12.54,88.13,30.42,4.41,3.01,8.15,5.5,8.3,5.5.95,0-8.23-7.34-14.54-11.72-17.48-12.13-38.04-20.69-60.44-25.17-8.52-1.73-16.16-2.34-29.89-2.4-9.77-.05-10.8-.15-7.34-.56,5.43-.66,24.01-.15,30.84.87,7.49,1.07,25.56,5.35,34.74,8.2,24.97,7.75,47.22,19.57,60.37,32.05,5.36,5.15,6.32,5.76,3.67,2.55-15.2-18.91-45.83-35.37-80.42-43.26-13.66-3.11-19.31-3.87-31.06-4.23-11.46-.36-20.34.31-29.82,2.19-5.58,1.12-17.11,4.69-18.73,5.86-.44.25-2.72.46-5.14.46-4.19-.05-4.41-.1-3.01-.82,5.36-2.85,25.34-8.46,38.56-10.8,7.05-1.22,8.96-1.32,21.66-1.32s14.91.15,22.99,1.38c20.78,3.26,42.01,9.99,56.7,18.09,2.72,1.48,2.94,1.58,1.47.41-3.23-2.5-14.83-8.31-22.03-11.01-16.16-6.06-35.18-9.99-52.88-11.01l-6.98-.41,8.08-.92c6.46-.76,10.87-.92,21.66-.76,11.82.15,13.22.1,10.43-.46-1.76-.36-6.24-.92-10.06-1.22-6.54-.46-19.24-.56-25.7-.15-6.98.46-24.6,2.85-32.53,4.48-15.42,3.11-31.14,8.26-37.6,12.28-2.64,1.63-3.01,1.73-8.37,1.73s-5.8-.05-10.21-2.24c-8.52-4.18-24.01-8.76-38.19-11.26-21.81-3.82-49.2-4.74-63.82-2.14-3.08.56-2.13.61,8.08.41,11.16-.15,25.78.61,28.05,1.53.66.25-1.03.46-4.48.46-11.9,0-25.7,2.75-44.8,8.87-15.64,5.04-29.82,11.67-37.75,17.68l-2.2,1.68,2.2-1.12c12.63-6.47,16.74-8.31,24.97-11.11,14.98-5.04,30.48-7.75,47.37-8.1l9.91-.2-4.77.76c-7.49,1.22-20.42,4.03-26.59,5.76-28.05,7.75-54.35,22.78-67.71,38.73-3.08,3.72-3.16,4.74-.07,1.48,10.21-10.7,28.2-22.22,47-30.07,6.98-2.9,21.66-7.9,30.26-10.29,15.94-4.43,28.05-5.86,43.04-5.1l8.23.41-12.48.36c-14.17.41-20.42,1.17-31.73,3.77-18.87,4.33-38.63,12.64-53.02,22.32-4.77,3.21-11.82,8.82-11.82,9.38,0,.2,2.2-1.17,4.99-2.96,19.9-13.25,50.23-24.61,75.42-28.23,3.53-.51,10.35-.92,17.26-1.02,6.24-.1,10.06-.05,8.45.05-23.87,1.63-49.28,7.85-69.4,16.87-11.24,5.1-25.63,12.89-34.3,18.65-32.9,22.01-53.83,50.6-60.95,83.37l-1.25,5.76-4.85,2.7c-10.35,5.76-12.63,8.61-11.16,14.27.51,1.78,1.54,4.33,2.35,5.66l1.54,2.4-1.54,3.01c-2.57,5.2-1.69,14.57,1.62,17.53,1.84,1.58,6.68,3.21,9.62,3.26,1.1,0,1.98.31,1.98.61,0,.92,1.84,13.66,3.97,28.44,2.13,14.01,4.41,32.21,5.65,44.95l.81,8.51-2.2,1.32c-3.6,2.09-4.7,4.79-4.48,11.52.07,3.21-.07,7.59-.44,9.78l-.59,3.97,7.05,4.69-.88,4.13c-.51,2.24-2.72,9.07-4.85,15.08-7.42,20.74-8.45,25.48-8.89,41.02l-.37,12.23-2.57,1.48c-3.16,1.78-5.43,4.79-5.43,7.08s2.64,5.61,9.77,12.84l5.65,5.76-.73,2.24c-3.97,11.98,9.18,26.29,25.04,27.26,4.04.25,4.41.41,7.34,2.85,5.65,4.64,13.88,6.12,22.11,3.92,2.06-.56,4.85-1.73,6.24-2.65,2.13-1.43,2.79-1.63,6.17-1.48,6.98.25,14.17-3.26,15.72-7.75.29-.76.66-1.38.88-1.38s2.28.76,4.55,1.73c5.65,2.34,12.19,4.64,21.66,7.49l8.08,2.4-.22,3.16c-.15,3.01-.07,3.21,2.5,4.84l2.64,1.73-2.64,2.55c-1.47,1.38-3.23,3.72-3.97,5.25l-1.32,2.7-9.47.41c-12.19.46-43.92,2.4-44.28,2.7-.51.31,4.04.2,13.15-.31,4.63-.25,13.44-.71,19.46-1.02,6.1-.25,13.22-.61,16.01-.82,4.11-.2,4.92-.15,4.92.51,0,.61-.73.82-2.72.82-1.54.05-7.93.25-14.17.56-20.49.92-30.99,1.38-46.27,1.99-8.23.31-15.2.66-15.35.82-.51.36,10.72.2,21.22-.31,5.43-.25,19.31-.82,30.84-1.27,11.53-.41,22.03-.87,23.35-1.02,1.69-.2,2.35-.1,2.35.41,0,.56-1.91.82-8.59,1.07-13.51.51-54.12,2.34-62.28,2.8l-7.34.41,6.61.05c3.67,0,10.72-.15,15.79-.41,47.15-2.14,55.81-2.29,56.33-1.22.22.41-4.55.66-15.35.97-8.59.2-19.24.56-23.72.76-4.92.25-.88.31,10.28.1,25.26-.46,28.57-.41,29.01.15.22.31-5.8.66-16.89.87-28.05.61-29.82.82-5.07.56,19.98-.15,23.35-.1,24.09.56.81.66-.07.82-7.05.97l-7.93.15,8.74.1c6.02.05,9.11.31,9.91.76,4.33,2.55,18.73,3.67,37.67,2.96,6.98-.25,43.11-.41,80.27-.31,53.61.1,69.25,0,75.64-.51,8-.71,26.36-1.38,61.69-2.29,16.42-.42,23.73-.66,32.86-1.22,1.6-.35,3.19-.73,4.77-1.13-2.22.09-4.07.17-5.32.25-4.04.31-17.41.76-29.74,1.07-12.34.25-29.82.71-38.85,1.02-9.11.25-16.6.41-16.82.31-.15-.15.66-.56,1.84-.97,1.47-.51,6.39-.82,17.85-1.07,43.18-.92,59.63-1.38,73.07-2.04,1.08-.05,2.32-.11,3.69-.17.6-.18,1.2-.35,1.79-.54.39-.13.78-.27,1.18-.4-9.59.28-18.31.57-23.91.81-11.53.51-69.91,1.53-70.36,1.27-.15-.05.29-.46.88-.87.88-.61,6.32-.82,31.8-1.12,16.89-.2,35.84-.56,42.08-.87,9.92-.42,17.74-.73,24.39-.95.81-.3,1.61-.61,2.41-.93-7.36.18-14.12.4-18.72.65-19.98,1.02-81.44,1.83-80.93,1.07Z"/>
          <path d="M445.06,474.65c-7.17.06-14.31.18-19.74.37-6.46.2-17.99.46-25.7.51-7.64,0-17.11.2-20.93.46-5.29.25-2.28.36,12.85.41,10.94.05,24.46-.15,30.11-.46,4.38-.24,14.48-.47,24.81-.57-.5-.22-.96-.46-1.4-.72Z"/>
          <path d="M94.69,479.91c-.95.1-2.57.1-3.67,0-1.18-.1-.37-.2,1.62-.2s2.94.1,2.06.2Z"/>
          <path d="M64.73,484.29c-1.6,0-3.92.06-6.45.16.54.16,1.06.34,1.54.55,2.61-.12,4.86-.25,6.01-.35l4.04-.41-5.14.05Z"/>
          <path d="M72.08,485.97l-9.94.36c.08.06.16.11.24.17l15.58-.17c12.56-.15,23.43-.46,24.24-.71,1.98-.56-9.62-.41-30.11.36Z"/>
          <path d="M435.4,488.75c-16.79.77-39.3,1.68-57.08,2.27-12.12.41-28.86.97-37.16,1.27-10.06.41-50.09.51-119.34.41-73.44-.1-96.43-.05-77.77.31,34.81.56,191.02.41,207.47-.2,7.05-.31,20.12-.76,29.01-1.02,12.83-.38,31.04-1.14,48.68-1.99,2.08-.33,4.14-.67,6.2-1.04Z"/>
          <path d="M122.38,487.86c-16.27.03-42.04.3-58.23.57.11.17.21.34.31.51.96,0,1.95-.01,2.97-.02,1.2-.26,2.53-.41,4-.41,1.35,0,2.57.13,3.69.35,14.82-.13,32.78-.37,44.68-.65l16.16-.36h-13.59Z"/>
          <path d="M154.92,489.08c-.95.1-2.42.1-3.3,0-.95-.1-.22-.2,1.62-.2s2.57.1,1.69.2Z"/>
          <path d="M411.81,492.38c-14.72.7-30.45,1.42-42.67,1.95-31.95,1.38-147.32,1.83-199.39.82-10.72-.25-10.8-.2-4.41.31,4.33.36,35.91.56,91.43.61,81.73.04,95.44.05,147.21-2.46,2.59-.43,5.2-.83,7.82-1.22Z"/>
          <path d="M147.57,489.59c-.95.1-2.42.1-3.3,0-.95-.1-.22-.2,1.62-.2s2.57.1,1.69.2Z"/>
          <path d="M131.56,489.9c-4.85,0-21.22.31-36.35.66l-15.1.34c.08.05.15.11.23.17l16.71-.14c16.16-.15,32.53-.41,36.35-.61l6.98-.41h-8.81Z"/>
          <path d="M157.41,490.61c-1.47.1-3.82.1-5.14,0-1.25-.1,0-.2,2.79-.2s3.89.1,2.35.2Z"/>
          <path d="M147.2,491.12c-1.18.1-2.94.1-4.04,0-1.18-.1-.22-.2,1.98-.2s3.16.1,2.06.2Z"/>
          <path d="M170.85,22.96c-7.12.51-18.21,2.34-24.09,3.92-2.57.71-4.48,1.38-4.41,1.48.15.05,2.5-.31,5.29-.82,8.23-1.63,24.82-2.29,38.41-1.58,17.55.92,28.64,2.8,41.13,6.98,6.24,2.09,11.97,2.96,11.97,1.83,0-.25-2.86-1.38-6.39-2.55-22.91-7.44-43.84-10.6-61.91-9.27Z"/>
          <path class="cls-13" d="M285.34,38.5c-3.01.41-7.49,1.17-9.91,1.73l-4.33.97,4.41-.31c8.52-.66,26.14-.36,31.73.56,13.73,2.24,23.21,5.66,35.18,12.64,8.23,4.74,14.91,10.45,18.58,15.75.73,1.07.59,1.02-.81-.25-8.89-8.05-20.49-15.29-31.43-19.52-12.26-4.84-20.27-6.73-32.83-7.75-10.8-.92-28.64.66-33.78,2.96-3.3,1.43-1.76-.46,3.01-3.77l4.7-3.26h-31.73l2.57,1.89c2.72,1.99,5.07,4.23,5.07,4.79,0,.15-2.2-.2-4.92-.87-6.9-1.68-15.86-2.4-25.85-2.09-10.87.31-18.43,1.78-31.29,6.22-13.22,4.48-23.72,10.19-35.18,19.11-5.43,4.18-3.82,1.73,2.35-3.67,7.86-6.83,19.31-13.45,29.16-16.87,6.68-2.29,21.22-5.45,29.08-6.27,7.71-.82,15.64-.66,22.62.36,1.76.25,3.38.41,3.53.25.66-.46-13.59-2.29-20.05-2.65-11.46-.56-17.92.36-29.08,4.23-11.31,3.87-21.66,8.46-30.92,13.81-5.58,3.21-6.32,3.52-4.04,1.68,5.07-4.13,14.61-9.17,26.29-13.91,7.12-2.9,3.97-2.34-5.73,1.02-18.21,6.32-29.67,12.08-38.19,19.21l-2.42,2.04,1.69-2.24c.95-1.27,4.19-3.97,7.2-6.06l5.51-3.82-6.24,2.96c-13.73,6.42-24.24,13.45-30.55,20.38-1.91,2.09-3.6,3.72-3.82,3.62-.15-.15,1.1-2.04,2.72-4.28,3.67-4.84,9.03-9.48,15.94-13.66,8.15-4.94,30.4-15.19,41.79-19.21,2.86-1.02,4.92-1.83,4.55-1.89-.95,0-18.21,5.1-24.9,7.44-13.95,4.84-32.61,14.68-44.58,23.44-29.45,21.56-47.96,46.17-55.59,73.84-2.79,10.34-2.72,9.48-.66,8.82,1.25-.41,2.06-1.22,2.57-2.65,5.8-15.95,16.3-28.33,33.71-39.65,11.6-7.59,25.19-13.25,40.1-16.66,13-3.01,18.43-3.67,31.51-3.97,21.89-.51,36.57,1.83,63.53,10.24,16.6,5.15,26.14,9.89,33.05,16.51l3.23,3.06,4.19-4.43c16.96-17.84,57.06-29.4,93.86-27.11,23.06,1.43,39.8,5.61,64.11,15.9,11.31,4.84,17.63,9.27,22.55,16,1.84,2.6,2.5,3.06,4.26,3.16,5.51.2,11.82,9.17,16.01,22.63.29,1.02,1.25,1.53,3.89,2.24,1.98.51,3.97,1.12,4.48,1.43.51.25,1.03.41,1.25.31.44-.36-2.28-10.4-4.41-16.26-4.55-12.69-16.38-31.54-25.85-41.33-15.35-15.95-32.46-27.82-54.93-38.27-7.78-3.62-27.39-10.65-35.99-12.89-8.3-2.19-19.46-4.79-19.46-4.54,0,.15,2.42,1.02,5.36,1.94,44.06,14.01,60.22,22.37,72.93,37.86,3.89,4.74,4.33,6.27.59,1.94-4.77-5.5-14.39-12.94-23.79-18.45-8.74-5.1-31.58-14.83-31.58-13.45,0,.31,1.84,1.58,4.04,2.9,2.2,1.38,5.43,3.62,7.12,5.04l3.08,2.55-3.23-1.99c-1.84-1.12-4.48-2.8-5.88-3.77-5.51-3.67-18.51-9.17-28.49-12.08-3.38-1.02-2.2.05,1.54,1.32,7.2,2.55,18.95,8.71,25.41,13.4,3.53,2.5,2.2,2.29-2.35-.36-12.93-7.59-22.47-11.98-35.32-16.2-6.54-2.19-6.68-2.19-15.42-2.34-5.36-.05-11.09.2-14.47.61Z"/>
          <path class="cls-11" d="M329.11,93.28c-23.72,1.22-47.52,8.41-61.32,18.65-7.64,5.61-9.84,8.92-2.57,3.72,8.52-6.01,24.75-13.2,37.38-16.51,13.29-3.47,28.64-5.04,46.12-4.74,5.95.05,10.21,0,9.4-.2-1.25-.31-20.34-1.53-21.22-1.38-.29.05-3.75.25-7.78.46Z"/>
          <path class="cls-11" d="M137.07,95.58c-19.68,2.24-38.48,8.66-54.42,18.6-5.88,3.62-14.69,10.75-18.73,15.19-7.12,7.64-13.07,18.19-15.35,27.11-1.69,6.57-2.28,20.23-1.1,26.14,1.91,10.04,6.54,20.43,12.56,28.38,3.3,4.38,3.82,4.84,7.12,6.78,3.82,2.14,4.26,1.63.95-1.22-3.6-3.11-3.97-4.28-.66-2.19l2.35,1.48-2.64-2.55c-14.76-14.47-20.27-33.48-15.5-53.76,3.45-14.73,14.39-30.32,28.2-40.1,10.65-7.59,20.12-12.38,31.65-16.2,22.11-7.19,48.62-9.17,71.75-5.35,3.38.56,6.32.92,6.46.82.37-.25-5.65-1.48-13-2.6-7.64-1.17-31.21-1.48-39.66-.51Z"/>
          <path class="cls-11" d="M334.26,95.83c-15.13.82-25.56,2.8-38.7,7.49-17.92,6.32-31.29,15.08-40.98,26.91-2.28,2.8-3.67,4.03-3.45,3.21.15-.76,0-1.27-.29-1.12-.37.15-.66.61-.66,1.02,0,1.32-1.18.71-2.72-1.48-3.89-5.5-14.1-13.4-24.38-18.91-20.78-11.06-44.95-16.31-70.94-15.44-22.77.76-42.01,6.37-61.47,17.89-42.3,25.07-48.84,73.69-13.66,102.63,13.22,10.91,32.17,19.67,50.23,23.24,36.5,7.19,73.07,1.32,99.14-15.9,7.64-4.99,12.19-8.97,17.85-15.49,2.79-3.16,5.58-5.81,6.17-5.91.66-.1,2.72,1.73,5.65,4.99,15.28,17.33,37.45,28.89,63.53,33.28,9.62,1.58,29.74,1.58,40.76-.1,20.42-3.06,37.01-9.43,52.58-20.18,12.34-8.56,19.61-16.71,26.22-29.35,4.48-8.56,6.39-14.98,6.9-23.64.95-15.59-3.16-26.91-14.54-40.31-6.1-7.19-18.14-15.85-28.57-20.59-20.34-9.17-44.43-13.5-68.67-12.23ZM351.88,110.66c10.06.87,16.82,2.24,25.7,5.25,9.62,3.26,15.64,6.37,23.13,11.82,9.99,7.29,16.52,15.49,20.34,25.68,2.5,6.47,3.16,18.45,1.47,25.22-3.16,12.59-11.38,23.19-25.19,32.66-22.25,15.29-53.68,20.69-82.99,14.22-10.65-2.29-19.39-5.96-27.61-11.36-7.56-5.04-11.16-8.2-15.64-13.66-5.21-6.32-7.34-11.26-9.11-20.59-.59-3.16-.66-3.21-.81-1.02l-.15,2.29-.59-2.04c-1.47-4.94-1.62-10.75-.44-15.8,3.3-14.06,10.43-24.97,22.84-35.11,16.16-13.15,42.37-19.82,69.03-17.58ZM173.42,113.26c25.34,3.41,47.3,14.88,58.09,30.22,5.95,8.51,8.37,16.36,8.37,26.96,0,11.16-2.57,18.91-9.33,27.98-10.87,14.63-30.48,25.63-52.88,29.76-6.17,1.12-8.81,1.32-18.58,1.38-18.95.05-30.48-2.29-47-9.78-7.34-3.31-18.14-10.7-23.06-15.8-11.6-12.18-16.6-28.64-12.85-42.91,5.36-20.43,25.85-37.45,54.2-44.89,6.39-1.68,2.94-1.48-4.41.31-20.64,4.94-39.07,18.5-47.37,34.91-.88,1.83-1.69,2.9-1.69,2.45-.07-.46.81-2.55,1.84-4.59,7.05-13.76,22.99-25.94,42.15-32.21,15.57-5.1,33.49-6.37,52.51-3.77Z"/>
          <path class="cls-11" d="M309.87,115.45c-8.37,2.34-15.64,5.81-22.62,10.65-6.32,4.38-14.61,12.64-17.99,17.84-4.33,6.68-8.15,17.99-8,23.39.15,3.11.15,3.06.73-1.17,3.16-22.93,22.4-41.94,51.63-51.06,6.39-1.99,3.45-1.73-3.75.36Z"/>
          <path class="cls-6" d="M336.83,116.01c-19.09,1.53-32.09,6.01-47.22,16.36-8.45,5.81-11.46,8.61-5.29,4.94,8.59-5.04,13.29-6.88,25.7-9.78,10.65-2.5,20.12-3.36,32.68-3.01,16.6.51,30.77,2.96,43.84,7.59,7.56,2.65,11.09,4.38,16.6,8,4.63,3.11,4.41,3.77-.37.97-10.5-6.17-22.55-10.19-38.78-13.05-7.12-1.27-8.89-1.38-23.13-1.38s-16.01.1-23.13,1.38c-14.39,2.55-25.34,5.96-32.83,10.24-1.98,1.12-4.26,2.19-5.14,2.45-1.84.46-5.58,5.3-8.59,11.06-6.9,13.4-6.68,30.07.51,40.56,6.32,9.07,15.79,15.08,32.46,20.43,14.17,4.59,36.72,6.98,53.98,5.71,6.68-.46,5.65.31-1.54,1.22-3.16.41-8.96.51-16.52.31-16.38-.41-26.51-2.04-39.66-6.47-6.54-2.19-19.53-8.61-22.25-11.01l-1.69-1.48,1.32,1.53c.66.82,2.94,2.9,4.99,4.54,17.7,14.32,49.2,21.2,73.88,16.15,5.95-1.22,5.29-1.27-3.23-.25-3.67.41-8.96.71-11.82.61-5.07-.15-4.99-.15,3.3-.71l8.45-.56-8.96-.05c-5.43-.05-9.03-.31-9.03-.61s2.86-.51,7.2-.51c18.51,0,36.21-3.11,44.58-7.9l2.2-1.22-4.41,1.22c-8.15,2.24-8.89,1.83-1.47-.76,3.97-1.48,8.3-3.11,9.55-3.72,17.7-8.51,28.2-26.96,25.41-44.49-1.18-6.93-2.5-10.96-5.29-15.85-8.15-14.32-29.6-26.96-52.36-30.98-6.46-1.12-18.65-1.89-23.94-1.48ZM327.87,135.32c15.2,2.5,28.49,11.67,32.09,22.22,1.4,4.23,1.4,11.16,0,14.93-4.85,12.89-22.25,22.22-41.42,22.22-11.82,0-21.96-3.01-29.96-8.87-8.81-6.42-12.26-12.48-12.26-21.2s4.11-15.64,12.34-21.76c4.7-3.52,11.9-6.37,18.95-7.59,5.29-.87,14.69-.87,20.27.05Z"/>
          <path class="cls-16" d="M302.38,142.2c-6.68,1.12-11.82,5.66-11.82,10.55,0,3.11.66,4.28,3.89,6.68,5.65,4.13,16.52,3.67,22.03-.92,3.82-3.16,4.33-8.51,1.18-12.03-2.79-3.16-9.91-5.15-15.28-4.28Z"/>
          <path class="cls-16" d="M292.25,163.15c-3.3.87-4.11,3.72-1.47,5.45,3.38,2.19,7.86.87,7.86-2.29,0-2.29-3.3-3.97-6.39-3.16Z"/>
          <path class="cls-6" d="M147.87,118.25c-10.8.87-22.4,3.82-31.65,8-6.54,2.96-19.53,11.98-24.09,16.71-4.7,4.79-8.3,11.16-9.84,17.28-1.76,7.34-1.18,19.21,1.4,25.79,5.8,15.29,20.42,27.62,39.66,33.63,5.88,1.78,14.69,3.36,22.55,4.08,8.15.66,28.64.66,34.22-.05,5.07-.66,13.22-3.16,20.56-6.32,8-3.47,7.64-3.82-1.03-.92-11.9,4.03-24.82,6.32-34.3,6.17-2.42,0-3.38-.15-2.2-.25,12.78-1.12,27.17-4.08,37.38-7.64,15.28-5.35,25.26-13.56,31.21-25.58,5.21-10.6,4.63-25.79-1.47-36.74-4.26-7.64-15.35-17.73-25.85-23.29-15.2-8.15-37.16-12.33-56.55-10.85ZM173.42,128.19c17.99,2.19,35.32,8.05,46.12,15.7,2.72,1.94,4.92,3.72,4.92,4.03,0,.25-2.42-1.07-5.43-3.01-17.41-11.21-47.15-17.73-72.93-15.95-19.9,1.38-39.88,6.73-51.04,13.66-4.26,2.7-3.75,1.38.66-1.48,5.43-3.57,10.58-6.01,17.33-8.26,9.4-3.16,15.13-4.28,28.79-5.66,4.41-.46,25.12.2,31.58.97ZM144.05,137.87c16.52,2.4,30.26,12.13,33.49,23.59,1.25,4.59.51,11.77-1.76,15.95-4.85,9.38-17.63,16.97-31.87,19.06-6.83,1.02-11.46.97-18.14-.25-8.15-1.43-13.95-3.72-19.9-7.9-8.37-5.81-12.12-12.28-12.12-20.79.07-20.13,22.99-33.63,50.31-29.66Z"/>
          <path class="cls-16" d="M117.61,145.21c-10.06,3.26-12.34,11.47-4.55,16.2,4.33,2.65,9.11,3.26,14.54,1.94,6.54-1.63,10.8-6.17,10.06-10.7-1.1-6.42-11.31-10.24-20.05-7.44Z"/>
          <path class="cls-16" d="M107.77,165.95c-1.76,1.58-1.84,1.89-.73,3.41,1.18,1.48,2.06,1.89,4.48,1.89,1.98,0,4.99-1.99,4.99-3.31s-3.01-3.31-5.14-3.31c-1.4,0-2.64.46-3.6,1.32Z"/>
          <path d="M157.85,226.13c1.91.1,4.92.1,6.61,0s.15-.15-3.53-.15-4.99.05-3.08.15Z"/>
          <path d="M376.48,97.56c4.55,1.17,6.32,1.38,3.3.36-1.62-.56-3.6-1.02-4.41-1.02-.88,0-.44.25,1.1.66Z"/>
          <path d="M190.68,99.09c0,.1.66.31,1.47.46s1.32.05,1.03-.2c-.37-.46-2.5-.66-2.5-.25Z"/>
          <path class="cls-11" d="M220.06,106.89c4.19,2.09,16.89,9.68,22.25,13.25,3.08,2.14,5.65,3.67,5.65,3.47,0-.25-1.84-2.09-4.04-4.13-4.11-3.77-8.59-6.57-15.57-9.68-4.48-1.99-11.24-4.33-8.3-2.9Z"/>
          <path class="cls-11" d="M413.57,110.66c10.35,6.73,15.64,10.65,18.58,13.81,4.48,4.74,4.63,4.89,2.28,1.43-4.63-6.68-11.09-11.87-20.12-16.36-7.05-3.52-7.27-3.16-.73,1.12Z"/>
          <path class="cls-11" d="M442.58,130.48c.59,1.38.44,1.78-.51,2.29-1.47.76-.95,2.85,1.62,7.34,7.34,12.48,9.77,33.79,5.58,48.61-1.91,6.68-5.88,14.78-9.4,19.16-2.28,2.85-2.42,3.16-.95,2.45.95-.46,2.28-1.48,3.01-2.24,1.03-1.07,1.4-1.22,1.4-.51,0,1.27-1.98,3.92-4.26,5.55-1.03.82-1.54,1.43-1.1,1.43,1.25,0,4.48-2.9,6.76-6.06,3.38-4.64,6.98-13.25,8.89-21.15,3.97-16.77.81-38.78-7.78-53.25-2.79-4.64-4.41-6.52-3.23-3.62Z"/>
          <path class="cls-11" d="M460.94,154.64c0,.15,1.76,1.07,3.89,1.99,6.39,2.85,12.93,6.93,14.47,9.02,1.76,2.4,1.84,4.23.29,8.26-1.32,3.67-.95,4.99.73,2.29,3.6-5.71,2.94-9.89-1.98-13.2-4.48-3.01-17.41-9.22-17.41-8.36Z"/>
          <path class="cls-11" d="M43.14,159.68c-.44.41-2.5,1.32-4.63,2.14-6.39,2.4-11.6,5.3-12.85,7.19-1.1,1.53-1.1,2.29-.37,5.81.81,3.97,3.01,8.1,3.08,5.86,0-1.32,3.38-7.8,4.55-8.76.44-.41,1.25-.61,1.84-.46s.81.05.59-.2c-.22-.31.15-.66.88-.87s1.54-.56,1.84-.87c.37-.36.59-.31.59.1,0,.51.22.51,1.1-.1.59-.41,1.1-.97,1.1-1.27,0-1.38,1.4-.41,1.62,1.07.15.92.73-1.02,1.32-4.33,1.1-5.81,1.03-6.68-.66-5.3Z"/>
          <path d="M462.33,173.85c2.72,1.17,5.95,2.09,5.95,1.73,0-.41-6.39-2.8-7.42-2.8-.59,0,.07.46,1.47,1.07Z"/>
          <path class="cls-11" d="M38.15,179.4c-2.06.82-5.58,2.75-7.86,4.23-5.07,3.47-6.02,5.61-4.92,10.96.81,3.62,2.2,6.57,2.28,4.64.07-2.4,2.5-6.12,5.51-8.41,3.16-2.4,3.3-2.65,3.3-5.66q0-3.16,3.3-4.79c3.01-1.53,4.11-2.5,2.79-2.5-.37,0-2.28.71-4.41,1.53Z"/>
          <path class="cls-11" d="M474.89,180.83c0,.25.51.76,1.18,1.17,2.5,1.43,3.53,3.72,3.53,7.9s-1.25,7.34-3.01,7.34c-.59,0-4.85-.71-9.55-1.53-9.91-1.78-11.24-1.89-11.24-.61,0,.97.73,1.12,14.83,3.16,3.89.56,7.64.87,8.3.71,2.28-.61,3.53-3.31,3.53-7.85.07-4.38-.88-6.52-3.82-8.82-1.47-1.22-3.75-2.09-3.75-1.48Z"/>
          <path d="M39.1,182c.22.25-.15.46-.73.46-.95,0-1.18.56-1.03,2.9.07,2.24.15,2.5.37,1.02.15-1.02.59-1.78,1.03-1.63.59.25.81-.36.59-1.63,0-.2.51-.51,1.25-.66,1.18-.31,1.1-.36-.29-.61-.88-.2-1.47-.1-1.18.15Z"/>
          <path d="M441.18,194.79c-3.08,6.78-7.42,12.48-15.2,20.13-.66.66-1.03,1.17-.81,1.17,1.03,0,9.77-8.82,11.9-11.98,2.79-4.28,6.46-11.77,6.1-12.54-.15-.31-1.03,1.12-1.98,3.21Z"/>
          <path class="cls-13" d="M454.77,198.72c-.15.15-.81,1.68-1.54,3.36-1.47,3.57-5.51,9.78-7.78,12.03-2.64,2.6-6.98,4.43-11.16,4.79-3.38.31-4.11.61-6.39,2.6-5.14,4.54-18.14,12.48-27.69,16.92-6.83,3.21-19.53,7.49-28.2,9.48-18.51,4.33-41.2,4.54-59.27.56-17.7-3.87-41.35-15.13-53.76-25.58-3.01-2.55-5.73-4.69-6.02-4.69-.22-.05-1.25.82-2.13,1.83-3.01,3.52-8.3,8-13.51,11.62-21.89,15.13-54.93,23.7-83.65,21.66-28.2-1.99-52.22-10.29-74.03-25.58-5.65-3.92-8.45-5.5-9.62-5.5-2.2,0-7.12-2.45-9.47-4.69-2.57-2.4-6.61-7.69-9.03-11.87-1.18-1.99-2.2-3.62-2.2-3.72-.37-.36-8.45,2.6-8.45,3.11,0,1.02,2.06,15.49,3.97,27.93,1.84,11.98,5.8,44.28,6.83,55.75l.59,6.12,3.67,1.38c4.19,1.58,30.4,10.09,49.87,16.2,11.6,3.62,13.29,4.03,14.32,3.36,2.28-1.43,5.14-1.38,19.61.15,17.99,1.94,35.1,3.41,47.66,4.13,29.82,1.73,105.09.87,138.43-1.58,14.25-1.02,35.69-3.01,43.77-4.03,8.96-1.17,12.85-1.27,14.03-.46.95.66,1.47.51,17.63-6.52,9.4-4.03,40.69-16.56,55.37-22.22l4.85-1.89.51-6.73c1.62-20.64,3.53-42.75,4.85-56.36.88-8.46,1.47-16.36,1.32-17.53l-.22-2.09-6.46-1.12c-3.53-.61-6.54-1.02-6.68-.82ZM258.02,231.03c2.57,2.19,4.63,4.08,4.63,4.28,0,.56-7.42-5.25-9.91-7.85-2.79-2.85-3.53-4.38-.88-1.94.88.82,3.67,3.31,6.17,5.5ZM247.52,228.43c-2.06,2.85-7.34,7.85-9.55,9.07-.73.41-.22-.25,1.1-1.53,1.25-1.27,4.04-4.08,6.1-6.27,2.06-2.14,3.82-3.92,4.04-3.92.15,0-.66,1.22-1.69,2.65ZM412.47,240.2c-9.11,6.06-19.02,10.04-33.49,13.4-9.03,2.09-11.16,2.04-2.72-.05,12.04-2.96,26.73-8.76,36.57-14.47,2.42-1.38,4.55-2.55,4.77-2.55s-2.13,1.63-5.14,3.67ZM207.57,254.57c-2.13.87-14.98,3.82-16.38,3.77-.44,0,2.86-.87,7.42-1.94,4.48-1.07,8.45-2.09,8.74-2.24.22-.2.81-.36,1.25-.36.44.05,0,.36-1.03.76ZM268.16,268.12c5.8,1.53,11.82,5.5,15.42,10.19,1.47,1.94,2.28,3.52,1.91,3.52-.44,0-.81-.15-.81-.41,0-.71-7.56-5.71-11.38-7.44-10.58-4.89-24.46-5.2-37.16-.82-6.39,2.19-11.75,4.74-16.01,7.75-4.48,3.11-4.85,2.55-.81-1.17,6.1-5.66,17.77-10.85,27.91-12.43,6.46-1.02,15.28-.66,20.93.82Z"/>
          <path class="cls-11" d="M226.3,227.66c-11.09,7.24-21.3,11.52-36.21,14.98-12.48,2.96-19.17,3.67-32.83,3.62-9.62,0-13.37-.25-20.56-1.32-4.77-.71-8.89-1.17-9.03-1.07s2.06.66,4.99,1.27c18.36,3.77,39.29,3.97,54.64.46,15.57-3.62,30.84-10.7,43.33-20.23,3.6-2.7,1.91-1.83-4.33,2.29Z"/>
          <path class="cls-11" d="M315.67,243.87c1.25.87,14.25,2.24,20.42,2.19l6.98-.05-9.55-.66c-5.21-.36-11.16-.92-13.07-1.22-3.89-.56-5.36-.66-4.77-.25Z"/>
          <path class="cls-10" d="M466.45,285.86c-.81.56-11.9,4.99-24.68,9.94-25.7,9.89-52.36,20.79-63.08,25.79-13.29,6.22-18.65,10.7-18.73,15.8,0,3.57,2.06,6.37,6.02,8.36,5.51,2.65,10.58,1.73,21.96-4.18,15.79-8.1,43.4-20.18,71.16-31.14,11.53-4.54,10.65-3.82,9.69-8l-.81-3.57-3.3,1.22c-1.84.71-3.75,1.63-4.26,2.04s-1.4.61-2.06.41c-1.4-.36-.81-1.32.81-1.32,1.18,0,7.49-2.85,8.52-3.82.29-.31.59-1.38.59-2.5v-1.99l-1.91,1.38c-1.98,1.32-3.97,1.78-3.97.87,0-.56,3.3-2.24,5.36-2.75,1.25-.31,1.54-1.53,1.25-4.69-.22-2.45-.95-2.96-2.57-1.83ZM459.91,296.92c-.29.51-1.03.71-1.91.56-.95-.15-2.64.36-4.77,1.53-1.84.97-3.67,1.58-4.11,1.43-1.1-.51.37-1.48,3.89-2.6,1.76-.51,3.97-1.32,4.99-1.89,1.84-.97,2.72-.51,1.91.97ZM446.25,301.65c0,.87-2.28,2.09-3.89,2.09-.95,0-2.72.66-4.04,1.53-2.35,1.48-4.55,1.99-4.55,1.07,0-.41,1.54-1.12,9.91-4.48,1.91-.71,2.57-.76,2.57-.2ZM455.8,303.39c0,.76-3.45,2.24-4.11,1.78-.44-.36,2.57-2.45,3.53-2.45.29,0,.59.31.59.66ZM448.23,306.7c-.22.2-2.13,1.12-4.11,2.04-2.72,1.17-3.75,1.38-3.75.87,0-.41.44-.76.95-.76s2.28-.66,3.89-1.48c2.72-1.43,3.89-1.68,3.01-.66ZM429.95,308.43c-.44.92-4.04,2.24-4.77,1.78-.66-.46,2.57-2.34,4.04-2.4.59,0,.88.31.73.61ZM422.75,311.34c0,.66-4.04,2.6-5.43,2.6-1.91,0-1.32-.71,1.62-1.89,3.01-1.27,3.82-1.38,3.82-.71ZM436.7,311.69c0,.46-2.35,1.68-3.23,1.73-.37,0-.07-.46.66-1.02,1.32-1.02,2.57-1.32,2.57-.71ZM428.92,315.01c-1.54,1.17-5.36,2.7-5.95,2.34-.37-.25,5.65-3.31,6.68-3.36.37-.05.07.41-.73,1.02ZM413.94,315.01c0,.87-2.28,1.94-4.04,1.94-1.25,0-1.18-.15.73-1.22,2.42-1.38,3.3-1.58,3.3-.71ZM406.59,318.17c0,.82-5.51,3.06-6.83,2.75-.44-.1.81-.92,2.79-1.78,4.26-1.89,4.04-1.83,4.04-.97ZM419.67,319.13c-.22.36-.95.76-1.76.87-1.18.15-1.25.05-.37-.66,1.18-.97,2.5-1.07,2.13-.2ZM415.41,320.92c0,.82-1.18,1.58-2.94,1.89q-1.76.36.37-.92c2.5-1.43,2.57-1.48,2.57-.97ZM397.78,322.5c0,.61-4.41,2.29-4.99,1.89-.29-.15.29-.76,1.32-1.27,1.91-1.02,3.67-1.32,3.67-.61ZM410.27,323.57c0,.25-1.1,1.02-2.35,1.63l-2.42,1.12,2.13-1.58c2.35-1.73,2.64-1.89,2.64-1.17ZM391.17,325.5c0,.2-1.32,1.17-3.01,2.19-2.94,1.78-3.01,1.78-1.84,3.31.66.82,1.18,1.83,1.18,2.14,0,.97.59.82,3.82-.92,3.89-2.19,4.63-1.32.73.92-1.76,1.02-3.89,2.96-4.99,4.48-1.98,2.9-5.95,5.4-10.28,6.37-5.07,1.17-11.24-1.38-12.41-5.15-.73-2.34.15-4.59,2.64-7.03,3.23-3.06,7.2-4.33,12.41-3.97,3.6.2,4.41.1,6.98-1.22,2.86-1.38,4.77-1.83,4.77-1.12ZM404.39,326.62c0,.61-1.47,1.27-1.98.92s.44-1.38,1.32-1.38c.37,0,.66.2.66.46ZM400.72,328.61c0,.2-.66.66-1.47,1.02-1.62.66-1.98.15-.59-.82,1.03-.71,2.06-.82,2.06-.2Z"/>
          <path d="M372.81,331.26c-4.33,3.01,1.84,8.26,6.98,5.91,3.01-1.38,3.3-4.33.66-6.17-1.62-1.12-5.88-.97-7.64.25Z"/>
          <path d="M373.91,339.93c.29.31.81.41,1.18.25,1.03-.46.81-.76-.51-.76-.59,0-.88.25-.66.51Z"/>
          <path class="cls-10" d="M44.54,297.12c-.88,1.12-.95,4.08-.15,4.89.29.25,1.76,1.02,3.3,1.68,2.64,1.12,3.53,2.09,1.91,2.09-.44,0-1.76-.46-2.94-1.02l-2.06-1.07-.37,1.17c-.22.66-.51,3.26-.81,5.86l-.44,4.69,6.1,2.24c3.38,1.22,15.35,5.66,26.66,9.78,11.31,4.18,25.85,9.68,32.31,12.23,18.14,7.24,20.56,8,26.22,8.31,3.89.2,5.36.05,6.9-.61,2.57-1.22,3.08-.66.59.66-1.1.56-3.16,1.12-4.63,1.12-2.35.1-2.42.1-.51.31,3.75.41,6.1-.71,8.52-4.08,1.62-2.24,2.2-3.77,2.2-5.76,0-3.31-2.35-7.85-5.21-10.14-2.94-2.29-9.4-5.25-13.73-6.22-9.91-2.29-59.93-18.4-77.33-24.87-5.43-2.04-5.88-2.14-6.54-1.27ZM55.77,306.75c2.06.76,2.64,1.58,1.03,1.58-1.25,0-4.19-1.48-4.19-2.09,0-.31.22-.46.59-.36.29.1,1.4.51,2.57.87ZM48.65,309.91c.22.31.07.82-.37,1.12-.95.66-1.91.1-2.64-1.58-.44-1.07-.37-1.17.95-.66.88.31,1.76.82,2.06,1.12ZM62.09,308.89c1.25.31,2.28.87,2.28,1.27,0,.61-.29.61-2.13-.05-1.25-.41-2.42-.97-2.64-1.27-.59-.66-.37-.66,2.5.05ZM74.06,314.04c-.59.41-1.76.15-4.26-.92-5.21-2.24-4.85-3.11.44-1.22,3.3,1.17,4.33,1.78,3.82,2.14ZM53.57,312.1c1.62.87,1.62,1.27-.15.97-.81-.15-1.62-.56-1.84-.97-.51-.87.29-.87,1.98,0ZM59.96,314.7c.73.61.73.76-.22.76-.59,0-1.47-.36-1.98-.76-.73-.61-.73-.76.22-.76.59,0,1.47.36,1.98.76ZM79.27,315.31c1.76.66,2.06.92,1.1,1.07-1.47.2-4.26-.71-4.26-1.43s.44-.66,3.16.36ZM65.47,316.99c.73.56,1.1,1.02.81,1.02-1.03,0-3.38-1.07-3.38-1.53,0-.82,1.18-.56,2.57.51ZM86.76,317.61c1.84.56,2.5,1.43,1.1,1.43-1.18,0-4.41-1.17-4.41-1.63,0-.56,1.03-.51,3.3.2ZM70.97,319.03c2.06,1.12,1.76,1.27-1.03.51-1.03-.25-1.91-.71-1.91-1.02,0-.76.88-.61,2.94.51ZM93.74,320.05c1.47.76,1.54,1.02.59,1.02-1.62,0-4.99-1.07-4.99-1.63,0-.76,2.5-.41,4.41.61ZM76.41,321.07c1.03.25,1.91.71,1.91,1.02,0,.82-1.1.61-3.01-.51-1.98-1.12-1.62-1.27,1.1-.51ZM101.82,322.65c0,.66-2.5.56-3.53-.15-1.54-1.07-.95-1.38,1.32-.87,1.25.31,2.2.76,2.2,1.02ZM84.93,324.23c0,.56-.51.51-2.28-.1-2.06-.82-1.69-1.63.44-.92,1.03.31,1.84.76,1.84,1.02ZM107.03,324.43c1.25.41,2.06.92,1.84,1.07-.66.51-3.97-.31-4.41-1.12-.51-.97-.15-.97,2.57.05ZM90.8,326.17c1.69.92,1.76,1.02.37,1.02-1.54,0-3.3-.87-3.3-1.63,0-.66.95-.46,2.94.61ZM117.83,328.46c1.25.46,2.35,1.02,2.35,1.32s.88.05,1.91-.51c5.07-2.75,11.31-2.45,16.3.92,8.96,6.06,6.02,14.83-4.99,14.83-5.21,0-11.24-2.85-13.29-6.22-.44-.76-1.4-1.43-2.13-1.43-1.32,0-4.19-1.83-3.53-2.29.22-.15,1.18.2,2.2.76l1.91,1.02.73-2.9c.66-2.75.59-2.9-1.25-4.03-1.03-.66-2.79-1.43-3.89-1.78-1.18-.31-2.06-.92-2.06-1.32,0-.66.22-.66,1.69.05.88.46,2.72,1.17,4.04,1.58ZM97.85,328.41c.73.41,1.25.82,1.03.97-.59.41-3.67-.56-3.67-1.17,0-.71.95-.66,2.64.2ZM105.12,330.85c1.98.61,2.5,1.43.81,1.43-1.25,0-4.85-1.99-3.6-2.04.51,0,1.76.25,2.79.61ZM112.47,333.81c1.47,1.17,1.25,1.22-1.4.51-1.03-.25-1.91-.71-1.91-1.02,0-.87,1.91-.56,3.3.51Z"/>
          <path d="M124.73,331.41c-2.06,1.48-2.06,3.41-.07,5.15,1.98,1.78,5.14,1.78,7.2,0,2.2-1.94,2.5-3.06,1.18-4.79-.95-1.27-1.54-1.53-3.97-1.53-1.91,0-3.23.36-4.33,1.17Z"/>
          <path d="M132.44,339.62c-.73.71-.95,1.32-.59,1.32.95,0,2.42-1.43,2.13-2.09-.15-.31-.88,0-1.54.76Z"/>
          <path class="cls-13" d="M438.47,323.26c-12.19,5.1-25.92,11.01-30.7,13.1l-8.52,3.82.15,24.31c.15,15.8.51,24.36.95,24.36,1.54,0,15.57-1.53,19.09-2.09,7.34-1.12,20.71-4.03,26.88-5.81l6.32-1.83.51-7.75c.51-8.71,1.69-14.01,4.26-19.06l1.69-3.47.22,2.8c.15,1.53-.07,7.8-.51,13.91l-.81,11.11,1.98,1.83c2.79,2.55,3.16,7.34,1.03,13.61-.88,2.5-1.4,4.69-1.1,4.84.73.56,8.67,1.53,12.56,1.53,3.6.05,3.89-.05,4.33-1.27.81-2.24-.22-23.59-1.47-29.25-1.47-7.08-1.91-8.61-5.95-20.79-3.82-11.77-5.73-19.26-6.98-27.52-.51-3.11-1.1-5.71-1.4-5.71-.22.05-10.35,4.23-22.55,9.33Z"/>
          <path class="cls-7" d="M362.9,318.78c-29.6,3.57-52.36,5.04-91.8,5.91-28.42.61-68.74.36-82.99-.56-16.96-1.07-38.26-3.01-50.23-4.54-6.61-.87-12.19-1.48-12.41-1.32-.51.31-.81.2,5.88,2.5,3.08,1.07,7.78,3.16,10.43,4.69,2.64,1.53,5.29,2.75,5.88,2.75,1.76,0,2.2,1.07.51,1.38-1.4.25-1.4.31.66,2.14,2.06,1.73,4.48,5.61,4.33,6.88,0,.31-.81-.61-1.76-1.99-1.98-2.96-2.13-2.85-1.1.71,1.25,4.54-1.62,10.8-6.1,13.3-1.84,1.02-3.08,1.27-6.17,1.22-2.13,0-3.45.15-2.94.41.44.2,1.98.41,3.38.41,3.45,0,2.57.41-2.35,1.02-3.23.46-4.63.41-6.68-.2-1.4-.41-2.72-.61-2.86-.46-.22.15-.22,1.07,0,2.04.37,1.43.22,1.78-.59,1.58-.59-.1-1.1-1.02-1.25-2.04-.15-1.17-.95-2.29-2.42-3.26-1.18-.76-2.13-1.78-2.2-2.19,0-.46-.37-.15-.66.66-.88,1.99,0,41.58.95,41.58.37,0,.81-.46,1.03-1.02.51-1.32,1.69-1.27,4.33.1,2.64,1.43,3.3,2.09,2.64,2.55-.51.36-6.17-.46-9.03-1.32-.88-.25-1.4.46-2.42,3.77-.95,2.75-2.28,5.1-4.11,7.03-3.08,3.31-9.69,7.69-13.51,8.97-1.4.46-2.79,1.07-3.01,1.32-.29.31-.81.41-1.18.2-.37-.15-2.72.41-5.21,1.27-2.64.92-5.65,1.58-7.27,1.58s-3.01.25-3.3.56c-.59.66,9.62,8,14.32,10.24,2.64,1.27,3.45,1.48,4.41.97,2.28-1.17,6.17-2.14,6.76-1.73.95.66-.15,1.43-3.3,2.24-1.54.36-2.79.92-2.86,1.22-.07.87,11.38,5.96,20.42,9.07,7.93,2.75,20.56,6.01,23.13,5.96.59-.05-.88-.71-3.3-1.53-2.42-.76-4.26-1.48-4.04-1.48.29-.05,11.9,2.75,15.72,3.82,1.1.31,1.25.2.81-.31s-.29-.61.81-.31c4.85,1.38,24.24,5.4,25.85,5.4,1.1,0,2.5.25,3.08.56,2.57,1.27-8.89,0-14.17-1.58-7.71-2.29-8-2.34-3.08-.31,3.3,1.38,3.89,1.78,2.2,1.53-1.18-.2-4.19-1.02-6.61-1.83s-6.02-1.58-8.08-1.68c-1.98-.15-5.43-.51-7.56-.82-2.2-.31-4.11-.46-4.26-.31-.37.25,14.83,5.86,22.4,8.26,9.33,2.9,19.61,4.38,37.16,5.4,15.35.87,37.09,0,37.09-1.53,0-.2-1.54-.61-3.45-.92-6.76-1.07-19.02-3.26-25.19-4.54-6.54-1.27-10.13-1.63-8.08-.71.88.41.88.51-.37.51-3.16,0-12.12-2.04-18.73-4.28-7.71-2.55-8-2.85-1.69-1.38,10.43,2.4,17.99,3.21,32.9,3.67,19.02.51,35.77.56,36.94.05.73-.36.73-.97.07-3.06-.95-2.85-.59-3.67,1.18-2.65.73.41,1.1,1.53,1.1,3.11,0,2.45.07,2.5,2.2,2.5h2.13l.29-6.22.22-6.27.15,6.57c.15,5.71.29,6.47,1.32,6.22.66-.15,2.28-.31,3.6-.31q2.42,0,2.06-2.04c-.37-1.68-.22-2.04.81-2.04,1.18,0,1.54.76,1.25,2.85-.07.92.44,1.12,3.3,1.43,8.59.82,48.84-.25,53.54-1.43l2.94-.71-2.57-.46c-2.42-.46-2.28-.51,2.64-.82,2.86-.2,6.61-.71,8.37-1.12,4.11-1.02,4.63-.92,1.47.25-2.94,1.12-3.01,1.07,4.26,1.07,2.86,0,5.29.15,5.29.36s-4.19.66-9.33.97c-6.1.41-13.51,1.32-21.15,2.65-6.46,1.12-12.71,2.09-13.95,2.14-1.18,0-2.86.2-3.67.41-3.97,1.12,15.35,1.58,21.96.56,4.92-.76,5.07-.31.29.76-5.36,1.17-19.09,1.53-30.77.76-5.29-.31-9.77-.46-9.99-.31s-.22.82.07,1.48c.51,1.48,2.5,2.14,9.62,3.16,13.07,1.89,45.31-.25,60.59-4.08,10.21-2.6,37.82-12.28,31.95-11.26-.81.15-2.94.51-4.7.82-1.84.36-5.65.71-8.45.82-9.18.46-10.28.56-12.93,1.38-2.42.71-10.28,1.94-10.28,1.58s4.48-1.78,10.06-3.21c9.11-2.34,8.89-2.34,6.83-1.12-1.69.92-1.18.87,4.77-.46,3.67-.76,8.08-1.78,9.84-2.24,4.41-1.12,4.7-.97.81.46-1.84.66-3.16,1.22-2.94,1.27.95.05,10.43-2.04,15.06-3.36,8.96-2.45,23.87-8.31,23.87-9.38,0-.41-4.41-2.04-5.65-2.04-1.03-.05-3.23-2.45-2.5-2.8.44-.15,2.94.66,5.58,1.78,4.63,1.99,4.92,2.04,6.98,1.27,3.23-1.17,11.02-5.81,11.02-6.57,0-.36-.95-.82-2.13-.97-1.1-.15-3.08-.87-4.33-1.58-1.18-.76-2.79-1.32-3.53-1.32-1.54,0-10.58-6.32-13.29-9.33-3.53-3.87-5.88-7.69-7.05-11.31-1.4-4.18-3.3-8.05-3.38-6.73-.07.51-.37.76-.81.61-1.03-.46-.88-3.21.22-3.41.66-.2.95-4.69,1.1-19.57.15-10.6.07-20.79-.22-22.63l-.51-3.31-1.1,1.53c-1.4,1.78-3.3,3.01-6.98,4.33-2.5.92-2.79,1.22-2.79,3.06,0,1.48-.29,2.04-1.1,2.04-.73,0-1.1-.51-1.1-1.53,0-1.73-.07-1.78-4.04-.76-1.62.41-3.89.71-5.14.71l-2.2-.05,2.06-.61c1.1-.36,1.76-.82,1.47-1.07-.37-.2,0-.25.73-.1.66.2,1.25.15,1.25-.1s-1.25-.61-2.72-.82c-5.88-.76-11.9-4.08-13.59-7.49-.37-.76-1.1-1.43-1.47-1.43-1.25,0-.22-5.71,1.54-8.46.88-1.38,2.57-3.36,3.82-4.43,2.06-1.73,2.06-1.89.66-1.89-2.35,0-1.76-.87,1.03-1.53,2.57-.56,14.54-6.32,14.98-7.19.37-.61.66-.61-15.64,1.32ZM358.71,327.29c-.37.76-6.24,2.24-6.98,1.73-.29-.2.22-.82,1.18-1.38,1.91-1.07,6.24-1.38,5.8-.36ZM346.37,328.92c0,.76-2.2,1.32-5.29,1.32s-2.5-.82.73-1.43c3.89-.71,4.55-.71,4.55.1ZM156.75,329.12c2.13.46,2.06,1.43-.07,1.22-3.38-.31-4.92-.66-4.92-1.12,0-.56,2.35-.61,4.99-.1ZM357.17,331.72c-1.25,1.68-2.42,2.96-2.57,2.85-.29-.2,2.64-4.28,3.67-5.25,1.54-1.32,1.18-.51-1.1,2.4ZM166.74,330.55c1.47.15,2.86.51,3.08.76.59.71-5.88.56-6.9-.15-1.18-.82-1.1-1.58.15-1.27.59.15,2.28.46,3.67.66ZM335.36,330.24c0,.71-3.23,1.53-5.95,1.53-2.86,0-2.72-.87.29-1.48,3.23-.66,5.65-.66,5.65-.05ZM179.37,331.52c1.25.71,1.1.76-2.57.66-2.42-.1-4.11-.41-4.33-.82-.44-.92,5.07-.82,6.9.15ZM188.55,331.77c2.13,0,2.86.2,2.86.82s-.59.76-2.72.51c-1.54-.15-3.38-.25-4.04-.31-.73,0-1.32-.36-1.32-.82,0-.56.37-.71,1.18-.51.66.15,2.42.31,4.04.31ZM322.87,331.98c-.37.25-2.35.56-4.33.71-3.01.2-3.75.1-3.75-.51s.95-.76,4.33-.71c2.57.05,4.11.25,3.75.51ZM311.12,332.28c0,.71-.95.87-6.39,1.17-3.53.2-4.63.1-4.63-.41,0-.82,1.84-1.12,7.2-1.22,2.2,0,3.82.15,3.82.46ZM205.22,333.2c.22.51-.73.61-3.97.51-2.64-.1-4.33-.41-4.55-.82-.22-.51.73-.61,3.97-.51,2.64.1,4.33.41,4.55.82ZM216.97,333.66c.22.46-.88.66-3.82.66-3.82,0-4.85-.36-3.6-1.22.88-.56,7.05-.1,7.42.56ZM283.21,333.56c0,.56-.88.76-3.45.76-1.98,0-4.26.15-5.14.31-1.25.25-1.69.1-1.69-.46,0-.87,1.84-1.17,7.2-1.32,2.28-.05,3.08.15,3.08.71ZM294.96,333.25c0,.41-4.04,1.07-6.76,1.07-.73,0-1.32-.36-1.32-.76,0-.61.95-.76,4.04-.76,2.2,0,4.04.2,4.04.46ZM254.57,333.91c0,.41-1.25.71-3.3.76-3.08.05-3.97-.25-2.79-1.02.88-.66,6.1-.41,6.1.25ZM268.38,333.91c-.22.41-2.06.71-4.85.82-3.75.1-4.55,0-4.55-.66,0-.61.95-.76,4.85-.76,3.53,0,4.77.15,4.55.61ZM231.07,334.27c0,.25-.73.56-1.54.71-2.06.41-5.88-.15-5.36-.71.51-.61,6.9-.61,6.9,0ZM245.03,334.32c0,.31-2.06.51-4.77.51s-4.77-.2-4.77-.51,2.06-.51,4.77-.51,4.77.2,4.77.51ZM308.62,347.52c-.66.71-8.45,2.04-16.67,2.8-15.42,1.48-30.77,1.94-57.58,1.68-27.32-.25-35.1-.76-39.73-2.6-2.06-.82-1.69-.87,7.78-.56,38.85,1.07,60.22.87,87.03-1.02,11.53-.76,19.68-.92,19.17-.31ZM195.53,359.14c1.1,7.34,1.91,11.52,4.33,22.17.29,1.22.81,1.94,1.47,1.94.81,0,1.1.61,1.1,2.04,0,1.12-.29,2.04-.73,2.04-1.18,0-.81,1.68.73,3.31.95.97,1.47,2.4,1.47,3.92,0,2.85.51,3.97,1.76,3.67.51-.15,1.76.51,2.79,1.43,2.28,2.09,4.48,4.99,3.75,4.99-.29,0-1.69-.76-3.08-1.68l-2.5-1.63,1.62,1.63c1.84,1.89,6.61,4.74,7.86,4.74.51,0,1.03-.25,1.18-.56.15-.36,1.84-.05,4.48.76,2.86.87,4.04,1.48,3.75,1.99-.22.46.66.97,2.79,1.53,3.97,1.07,4.26,1.07,4.26.05,0-.66.66-.71,4.26-.41,2.28.15,4.55.51,4.92.71.44.2,2.2.56,4.04.76,1.76.2,3.82.66,4.55.97,1.1.46,1.54.41,2.06-.2s2.2-.76,7.49-.76c5.88,0,6.83-.1,7.05-.87.15-.51.81-.92,1.47-.92s2.57-.15,4.11-.36c2.5-.25,2.79-.2,2.42.51-.29.51-.29.87-.07.87.88,0,4.7-1.58,4.7-1.99,0-.25,1.69-.92,3.67-1.48,3.01-.87,3.67-.92,3.67-.31,0,.36.22.71.51.71,1.25,0,7.78-3.36,9.18-4.79l1.62-1.58-2.72,1.63c-5.29,3.21-5.21,1.68.15-2.4,2.35-1.83,2.94-2.09,3.01-1.27,0,.66.59.2,1.47-1.22,1.76-2.65,1.84-3.47.37-2.6-.66.36-1.32.51-1.54.36-.81-.51,1.98-5.45,3.08-5.45s1.18-.25,1.4-2.8c.07-.87.15-2.4.22-3.41s.73-2.24,1.4-2.7c.95-.71,1.03-1.07.37-1.78-.88-1.02-.51-4.18.81-6.01.59-.87.59-1.27-.07-1.73-1.32-.92-1.18-5.5.22-5.5.59,0,1.1-.46,1.1-.97s-.51-1.07-1.1-1.27c-.81-.2-1.1-1.02-1.1-2.85,0-3.26,1.32-3.36,1.62-.15.15,1.43.51-.2.88-3.92.44-4.74.88-6.62,1.84-7.34,1.1-.87,1.18-.71,1.54,2.8.81,7.69-1.54,27.47-4.41,37.81-4.19,15.08-15.72,21.15-44.21,23.34-4.55.31-8.52.76-8.81.92s-.07,2.34.37,4.89l.88,4.59,2.57-.15c1.4-.1,3.67-.51,5.07-.92,3.01-.87,3.08-.87,2.57-.05-.29.56,1.1.51,7.2-.2,4.11-.51,7.64-.82,7.78-.71.44.25-9.91,2.34-13.22,2.7l-2.79.25v2.7c0,2.8-.95,3.67-1.76,1.58-.22-.61-.44-1.89-.44-2.8,0-1.58-.07-1.63-3.3-1.63-2.2,0-3.45.25-3.89.82s-.81-.41-1.18-3.16c-.29-2.24-.81-4.84-1.1-5.81-1.18-3.21-.95,4.03.37,11.77.59,3.87,1.03,7.54.88,8.2s-.59-.76-.88-3.16c-.88-6.73-1.54-8-4.11-8.26-2.13-.2-2.2-.2-1.76,1.73.59,2.55-.81,2.6-1.91,0-.81-1.73-1.25-1.99-5.36-2.85-5.21-1.12-20.86-6.57-22.55-7.8-1.03-.76-.88-.76.88,0,4.48,1.94,22.99,6.57,26.66,6.73,1.25.05,3.16.25,4.26.51l2.06.36-.22-4.74-.22-4.74-7.2-.61c-8.96-.82-19.39-2.85-25.12-4.94-2.42-.92-6.61-3.16-9.4-4.99-8.37-5.71-10.72-10.6-14.47-29.76-1.84-9.73-2.94-17.89-2.94-22.42v-3.57l1.62,1.78c1.1,1.32,1.76,3.36,2.5,8ZM306.57,355.88c.15,1.02-.07,1.89-.44,1.89-.95,0-1.62-1.27-1.62-2.9,0-1.99,1.84-1.12,2.06,1.02ZM200.96,357.05c0,.97-.29,1.73-.73,1.73-.37,0-.73-.92-.73-2.09s.29-1.94.73-1.73c.44.15.73,1.12.73,2.09ZM383.09,358.78c0,1.94-.29,2.55-1.1,2.55s-1.1-.61-1.1-2.55.29-2.55,1.1-2.55,1.1.61,1.1,2.55ZM127.52,361.38c0,2.04-.95,2.65-1.76,1.17-.59-1.07-.59-3.01,0-3.41,1.03-.66,1.76.31,1.76,2.24ZM250.9,360.31c0,1.12-3.3,6.52-5.21,8.46-2.57,2.6-8.67,6.47-13,8.2-3.45,1.43-11.16,3.36-11.75,3.01-.44-.36,1.1-6.83,2.42-9.78,2.13-5.04,5.29-6.57,18.29-8.92,9.4-1.63,9.25-1.63,9.25-.97ZM263.39,360.77c10.94,1.68,14.83,3.36,17.26,7.29,1.03,1.73,4.04,9.99,4.04,11.06,0,.76-6.9-.71-11.75-2.55-8.96-3.31-19.83-11.92-19.83-15.7,0-1.38,1.84-1.38,10.28-.1ZM200.96,363.37c0,1.38-.29,2.55-.66,2.55-.81,0-1.84-3.82-1.18-4.59,1.03-1.17,1.84-.36,1.84,2.04ZM382.5,367.39c-.22,1.78-.59,2.6-1.32,2.6-1.25,0-1.4-3.11-.22-4.64,1.18-1.58,1.76-.76,1.54,2.04ZM128.62,368.31c.37,1.73.29,2.19-.59,2.19-.73,0-1.18-.71-1.4-2.19-.22-1.17-.22-2.34,0-2.55.59-.76,1.47.36,1.98,2.55ZM201.55,370.65c.15,1.43-.07,1.89-.88,1.89-.88,0-1.18-.56-1.18-2.09,0-2.65,1.76-2.45,2.06.2ZM253.4,372.23c1.32,2.19,5.95,5.76,8.81,6.78,3.38,1.22,9.11,2.19,13.29,2.24,4.19,0,3.75.2-4.33,1.99-2.86.56-6.9,1.94-9.11,3.01-4.04,1.99-8.96,6.22-8.96,7.64,0,.41-.88-.41-1.91-1.89-2.35-3.26-7.42-6.47-13.59-8.61-4.04-1.43-4.41-1.63-2.57-1.68,2.86,0,9.47-2.7,12.19-4.99,1.18-1.02,2.79-2.85,3.45-4.03.73-1.22,1.4-2.19,1.47-2.19.15,0,.66.76,1.25,1.73ZM382.36,375.09c0,1.94-.29,2.55-1.1,2.55s-1.1-.56-1.1-2.19c0-1.22.22-2.4.51-2.55,1.18-.87,1.69-.15,1.69,2.19ZM129.28,373.86c.66,1.22.51,4.79-.22,4.79-.59,0-1.54-2.8-1.54-4.74,0-1.07,1.18-1.12,1.76-.05ZM202.43,378.04c0,2.85-1.18,2.34-1.91-.82-.44-1.89-.29-2.14.73-1.83.81.2,1.18.97,1.18,2.65ZM381.62,382.48c0,1.68-.29,2.29-1.1,2.29-.88,0-1.1-.51-.95-2.29.29-3.11,2.06-3.11,2.06,0ZM130.31,383.39c.15,1.43-.07,2.4-.51,2.4s-.81-.76-.81-1.73-.22-2.14-.51-2.65c-.29-.61-.15-.76.59-.61.66.15,1.1,1.12,1.25,2.6ZM283.88,385.18c-2.06,10.19-10.43,15.64-28.71,18.65-1.91.31-1.91.25-1.32-1.22,2.13-5.15,9.62-10.85,23.5-17.78,3.82-1.89,7.05-3.47,7.12-3.41s-.22,1.73-.59,3.77ZM242.82,394.45c4.48,3.11,9.69,8.71,8.67,9.43-.22.15-2.64-.05-5.36-.51-14.17-2.24-23.72-9.38-25.12-18.75l-.44-3.06,8.74,4.79c4.77,2.65,10.87,6.27,13.51,8.1ZM381.62,389.15c0,1.63-.29,2.24-1.1,2.24s-1.1-.56-1.1-2.19c0-1.22.22-2.4.44-2.55,1.03-.71,1.76.31,1.76,2.5ZM131.56,390.07c.29.97.29,2.19.07,2.7s-.15,1.17.15,1.48,3.97,1.38,8.23,2.4c11.16,2.65,6.39,2.29-6.76-.51-.81-.15-1.25.1-1.47.92-.15.61-.59,1.22-1.1,1.32-.59.15-.81-1.22-.81-4.89,0-5.1.81-6.73,1.69-3.41ZM390.22,391.75c1.03,1.07.95,1.12-1.76,1.63-1.54.31-3.67.56-4.77.56-1.98,0-2.06.1-2.06,2.85,0,3.31-1.69,3.72-2.06.51-.22-1.58-.44-1.83-1.47-1.58-3.01.82-13.66,2.8-14.76,2.75-.66,0,1.98-.76,5.8-1.68,12.56-3.01,13.15-3.52,1.18-1.07-3.53.71-6.83,1.22-7.2,1.17-.88-.2,16.16-4.18,18.14-4.18.81-.05,2.5-.56,3.67-1.22,2.5-1.38,3.82-1.27,5.29.25ZM142.8,395.42c4.19,1.02,7.27,1.89,6.83,1.99-1.03.25-10.94-1.89-14.17-3.01-2.79-.97-3.97-1.94-1.47-1.17.66.2,4.63,1.17,8.81,2.19ZM122.01,400.57c0,.56-.66.71-2.5.61-2.94-.15-3.38-.31-2.64-1.12.73-.87,5.14-.41,5.14.51ZM130.02,402.96c-.59,2.34-.95,2.8-1.84,2.45-.37-.2-.66-1.22-.66-2.34,0-1.68.22-1.99,1.47-1.99,1.4,0,1.47.2,1.03,1.89ZM394.33,401.84c.15.61-6.02,1.27-6.54.66-.51-.56,2.57-1.43,4.7-1.27.88.05,1.76.31,1.84.61ZM384.05,403.57c.44,1.32.37,1.94-.59,2.55-1.03.71-1.25.71-1.84.05-.37-.41-.73-1.63-.73-2.7,0-1.58.22-1.94,1.25-1.78.66.1,1.54.92,1.91,1.89ZM127.89,409.08c-.29,1.07-.66,2.09-.81,2.29-.73.82-1.76.36-1.76-.76,0-1.99.88-3.41,1.98-3.41.88,0,1.03.41.59,1.89ZM387.21,411.11c.51,1.99.07,2.6-1.47,1.73-1.18-.71-2.2-3.87-1.47-4.74.73-.82,2.35.87,2.94,3.01ZM124.58,414.33c0,.51-.81,1.63-1.84,2.4-1.47,1.17-1.76,1.27-1.84.51,0-.51.51-1.73,1.1-2.7,1.1-1.83,2.57-1.94,2.57-.2ZM390.8,415.4c.66.87,1.1,1.89.95,2.29-.44,1.43-3.53-.66-3.53-2.4,0-1.94,1.1-1.89,2.57.1ZM119.08,419.68c.07.76-.66,1.48-1.91,1.99-2.79,1.12-3.16.36-.95-1.94,1.98-1.99,2.86-2.04,2.86-.05ZM395.8,419.98c1.69,2.04,1.62,2.45-.37,2.09-2.35-.41-3.53-1.63-2.72-2.75.95-1.27,1.54-1.12,3.08.66ZM402.48,424.77c.22.51-.07.92-.81,1.12-1.32.36-3.89-1.48-3.89-2.7,0-.61.29-.61,2.13,0,1.18.46,2.28,1.12,2.57,1.58ZM113.2,423.45c.59.71-3.6,2.6-5.65,2.6-1.62-.05-1.54-.1.88-1.53,2.64-1.58,4.04-1.89,4.77-1.07ZM248.55,433.64c.15.92-.07,1.94-.51,2.24-1.03.71-1.32.46-1.91-2.09-.44-1.99-.37-2.19.81-2.04.95.1,1.47.71,1.62,1.89ZM264.12,435.63c0,1.94-.51,2.8-1.4,2.4-.73-.25,0-4.33.73-4.33.37,0,.66.87.66,1.94ZM249.65,439.65c.15,1.07.07,2.14-.22,2.4-1.1.82-2.2-.31-2.2-2.29,0-2.65,1.91-2.75,2.42-.1ZM264.49,441.84c0,3.06-1.62,3.26-1.98.25-.22-2.5-.07-2.96,1.18-2.65.44.1.81,1.17.81,2.4ZM341.16,448.67c-.15.1-1.91.51-3.89.97-3.89.92-4.04.51-.22-.51,2.28-.56,4.77-.87,4.11-.46ZM322.65,451.83c-.22.15-.88.2-1.4.05-.59-.15-.37-.31.44-.31.81-.05,1.25.1.95.25ZM316.63,452.8c-1.98.36-4.99.66-6.61.66-2.35,0-2.06-.1,1.47-.46,2.42-.25,4.7-.56,5.14-.66.37-.1,1.4-.2,2.2-.2s-.15.31-2.2.66Z"/>
          <path class="cls-13" d="M50.92,324.48c-.29.15-.51.87-.51,1.53s-1.98,6.52-4.33,13.05c-5.88,16-7.86,22.01-9.25,28.49-1.69,8.26-1.47,28.38.37,30.47.44.46,1.76.41,6.17-.2,6.98-1.02,10.21-2.09,9.69-3.26-.22-.46-.88-2.55-1.54-4.59-2.06-6.98-1.18-11.06,2.94-13.61l1.62-1.02-1.32-8.66c-1.54-9.99-1.84-18.4-.59-16.92,1.54,1.78,4.92,12.38,6.1,18.96,1.98,10.91,1.25,9.63,7.27,11.36,8.89,2.55,28.94,5.55,42.6,6.42l4.19.25v-18.96c0-10.45-.22-19.47-.44-20.13-.37-.97-4.33-2.5-19.31-7.75-17.48-6.06-26.22-9.22-38.34-13.91-2.64-1.02-5.07-1.73-5.29-1.53Z"/>
          <path d="M388.16,346.4q-.95.87.44.15c.81-.41,1.62-.82,1.76-.87.15-.1,0-.15-.44-.15s-1.25.41-1.76.87Z"/>
          <path d="M129.73,351.14c.59.25,1.62.46,2.2.46.73,0,.59-.15-.37-.46-1.98-.61-3.16-.61-1.84,0Z"/>
          <path class="cls-10" d="M55.77,384.57c.44,3.82,1.03,5.3,2.06,5.3,1.32,0,4.33,1.63,3.89,2.09-.22.25-1.4.1-2.64-.36l-2.28-.82.51,1.48c.22.76,2.42,4.18,4.85,7.54,5.14,7.19,13.22,15.03,15.42,15.03,2.42,0,14.61-3.06,17.99-4.54,11.82-5.1,14.47-7.44,17.41-15.03.73-1.99,1.1-3.72.81-3.92-.37-.2-3.89-.66-7.93-.97-16.52-1.32-30.26-3.67-42.6-7.24-8.59-2.5-8-2.65-7.49,1.43ZM68.48,392.72c3.23,1.07,3.23,1.94.15,1.48-2.57-.41-4.26-1.12-4.26-1.83,0-.66,1.32-.56,4.11.36ZM80.01,394.76c.66.15,1.25.61,1.25,1.02s-.07.71-.15.71c-1.76-.1-6.83-1.53-7.05-2.04-.29-.61,1.76-.51,5.95.31ZM88.6,396.49c0,.87-.29.97-1.98.71-4.11-.66-4.41-1.73-.59-1.73,2.06,0,2.57.2,2.57,1.02ZM99.54,397.2c1.76.76-.29,1.32-3.6.92-2.13-.25-3.38-.66-3.53-1.17-.15-.66.29-.76,2.94-.46,1.76.15,3.67.51,4.19.71ZM107.99,397.81c2.13.56,1.18,1.22-1.76,1.22-2.13,0-2.94-.2-2.94-.76,0-.82,2.57-1.02,4.7-.46Z"/>
          <path class="cls-10" d="M449.19,384.57c-8.81,2.5-26.36,5.91-39.07,7.59-12.04,1.58-11.75,1.38-10.06,5.55l.81,1.94,3.23-.36c2.94-.31,3.23-.2,3.23.71s-.44,1.07-2.94,1.07h-2.94l1.25,2.14c3.75,6.68,13.15,13.25,25.04,17.58l2.35.87,3.75-2.55c9.55-6.42,19.76-19.62,19.98-25.84.07-1.02.51-1.89.95-1.89s1.03-.71,1.32-1.58c.59-2.24.59-7.08-.07-7.08-.37.05-3.38.87-6.83,1.83ZM452.13,392.41c0,.66-2.86,1.89-5.36,2.34-1.84.31-2.06.2-1.84-.61.15-.61,1.32-1.12,3.53-1.53,1.84-.36,3.38-.61,3.53-.66.07-.05.15.15.15.46ZM442.58,394.6c0,.71-5.65,2.19-6.39,1.68-.59-.41.59-1.38,2.28-1.83,2.35-.66,4.11-.61,4.11.15ZM434.5,396.13c0,.71-4.92,2.04-6.02,1.58s-.59-1.22,1.1-1.73c2.42-.66,4.92-.61,4.92.15ZM424.95,397.36c-.07.92-1.25,1.48-4.19,1.99-2.5.46-3.16.41-3.16-.05,0-.36.44-.87.95-1.17,1.54-.87,6.39-1.43,6.39-.76ZM415.41,399.24c0,.82-1.54,1.32-4.11,1.32-2.28,0-2.35-1.38-.07-1.68,3.23-.41,4.19-.36,4.19.36Z"/>
          <path class="cls-11" d="M27.64,402.3c0,1.68,1.18,3.11,10.21,12.69,4.48,4.69,4.92,4.99,8.37,5.71,4.26.87,5.58.92,7.05.31.81-.36.22-.61-2.2-1.07-3.6-.66-6.54-1.78-6.54-2.55,0-.25.59-.36,1.32-.15,1.18.31,1.18.25.07-.66-.66-.51-2.57-3.01-4.26-5.45-2.06-3.01-3.67-4.69-4.85-5.04-2.28-.71-1.69-1.43,1.18-1.43,2.28,0,9.47-1.89,9.47-2.5,0-.2-3.23-.25-7.2-.15-5.36.15-7.86,0-9.91-.56l-2.72-.82v1.68Z"/>
          <path d="M480.4,403.22c-1.98.15-5.51.36-7.71.41l-4.04.05,2.94.76c1.76.51,4.48.71,6.83.56,2.06-.1,3.82-.1,3.82.05,0,.1-1.98,2.5-4.41,5.3-2.5,2.8-4.33,5.35-4.19,5.71.37.66,8.08-7.44,9.77-10.14,1.62-2.75,1.25-3.11-3.01-2.7Z"/>
          <path class="cls-11" d="M469.24,421.1c-3.01,1.43-3.08,2.09-.07,1.68,2.64-.36,4.26-1.17,4.26-2.14s-1.4-.82-4.19.46Z"/>
          <path class="cls-11" d="M42.04,425.38c-.81,6.22,1.54,11.21,6.76,14.83,3.38,2.29,6.24,3.41,7.86,2.96,1.03-.25.66-.71-1.91-2.75-4.41-3.41-6.54-6.83-6.54-10.45,0-2.6.29-3.16,2.06-4.33,1.1-.76,2.72-1.68,3.45-2.04.81-.36,1.1-.56.66-.41-.81.25-8.52-.76-10.65-1.43-1.1-.31-1.32.2-1.69,3.62Z"/>
          <path class="cls-11" d="M470.63,424.62c-.51.36-.88,2.24-.88,4.69-.07,3.67-.51,5.25-2.57,8.66-1.03,1.68,1.25.66,3.53-1.53,2.5-2.45,3.08-4.69,2.35-9.07-.51-3.41-.88-3.82-2.42-2.75Z"/>
          <path class="cls-11" d="M78.98,446.63c-1.84.87-4.04,1.83-4.77,2.19-1.18.51-1.25.66-.29,1.12.59.31,1.98.56,3.08.56,1.69,0,2.35-.41,3.97-2.6,1.03-1.43,1.76-2.65,1.62-2.7s-1.76.56-3.6,1.43Z"/>
          <path d="M250.31,455.45c-1.25.15-1.62.46-1.25,1.07.22.46.66,2.6.88,4.79.44,3.72.29,4.08-1.32,5.3-.95.71-2.64,1.63-3.75,2.04-1.18.41-2.06,1.12-2.06,1.58,0,.71,1.1.76,11.16.51,6.1-.2,13-.36,15.42-.36,3.6,0,4.26-.15,4.26-.92,0-.46-1.18-1.38-2.57-1.99-1.4-.66-3.08-1.89-3.75-2.8-1.25-1.63-1.18-2.09.95-8.46q.37-1.12-7.93-1.07c-4.63.05-9.11.2-10.06.31Z"/>
          <path class="cls-7" d="M161.3,459.17c-1.1,1.38-.37,2.75,1.69,3.41,1.18.41,3.16.36,6.76-.15,10.5-1.38,22.11-.66,39,2.4,14.47,2.6,29.52,2.6,32.97-.05,1.1-.82,1.1-1.17.29-2.75-.51-1.02-1.25-1.83-1.62-1.83s-2.5.41-4.77.87c-3.3.71-6.83.92-16.3.92-17.77,0-50.45-2.09-56.03-3.62-.73-.15-1.47.15-1.98.82Z"/>
          <path class="cls-7" d="M351.73,458.66c-3.16.92-13.51,2.04-30.77,3.36-20.27,1.53-31.58,1.48-40.24-.31-4.04-.76-5.29-.87-5.73-.36-2.28,2.4,3.38,4.84,12.12,5.3,6.54.36,16.16-.41,30.18-2.45,12.12-1.73,25.26-2.4,31.65-1.53,4.11.56,4.48.51,6.02-.61,1.54-1.02,1.62-1.32.81-2.55-1.03-1.48-1.47-1.58-4.04-.87Z"/>
          <path class="cls-11" d="M176.14,466.86c-6.1.71-10.87,2.4-14.17,4.94-3.16,2.5-5.51,6.98-4.77,9.07.73,1.99,1.54,1.38,1.69-1.27.07-1.43.81-3.36,1.69-4.43.81-1.12,1.25-1.43.95-.71-1.1,2.4-.44,5.15,1.47,6.47,1.4,1.02,2.79,1.32,6.46,1.53l4.7.25,2.28-3.21c4.85-6.78,11.68-10.24,20.27-10.34l4.41-.05-3.01-.92c-5.8-1.73-13.95-2.24-21.96-1.32Z"/>
          <path class="cls-11" d="M323.24,468.8c-1.84.36-1.47.46,2.28.51,6.1.05,11.16,1.22,14.76,3.36,3.3,1.94,6.1,5.4,6.1,7.54,0,.71.29,1.43.73,1.63,1.1.46,5.65-1.07,6.9-2.4,2.72-2.85-2.06-7.59-9.62-9.58-4.63-1.22-17.04-1.83-21.15-1.07Z"/>
          <path d="M266.69,471.14c-.37.1-5.88.25-12.12.36-10.43.15-11.38.25-11.6,1.12-.29.92.07.97,4.26.66,2.57-.2,9.4-.36,15.13-.36,10.06,0,10.58-.05,10.58-1.02,0-.87-.44-1.02-2.72-.97-1.54,0-3.08.1-3.53.2Z"/>
          <path d="M253.54,473.95c-7.27.15-10.35.46-10.58.87-.29.76,4.48.87,19.9.31,7.71-.25,10.06-.46,10.06-1.02,0-.71.29-.71-19.39-.15Z"/>
          <path d="M253.47,476.5l-10.28.25-.15,1.63-.22,1.68h15.06c13.44,0,15.06-.1,15.06-.82,0-.76-1.4-.82-14.32-.61-7.86.15-14.32.1-14.32-.1,0-.46,19.24-1.17,24.6-.97,3.01.15,3.67,0,3.89-.71.29-.97,1.4-.92-19.31-.36Z"/>
          <path d="M242.46,481.59c-.88.25,4.63.46,13.95.46,8.52.05,16.23.2,17.26.36q1.76.25.44-.51c-1.25-.66-3.82-.82-15.79-.76-7.93,0-15.06.2-15.86.46Z"/>
          <path d="M237.54,483.37c-1.47.25-2.94.66-3.23.87-.29.25,10.21.41,23.28.41,18.58-.05,23.5-.15,22.33-.61-.95-.41-6.46-.66-15.42-.76-7.64-.1-16.3-.2-19.17-.31-2.86-.05-6.39.1-7.78.41Z"/>
          <path d="M226.45,486.18c-1.98.25-3.82.61-4.04.76-.29.2,15.64.25,35.4.15,30.62-.15,35.25-.25,31.21-.76-5.43-.71-56.77-.82-62.57-.15Z"/>
          <path d="M240.99,488.22c-22.69.36-32.68.87-34,1.73-.15.1,21,.2,47,.15,26-.05,52.51.05,58.97.25l11.75.36-8.45-.71c-4.63-.36-10.43-.92-12.85-1.27-5.8-.76-29.6-.97-62.42-.51Z"/>
        </g>
        <g id="shadows">
          <path class="cls-2" d="M150.96,118.26c-80.68,1-96.18,82.14-25.8,103.04,123.43,35,157.41-104.45,25.8-103.04ZM226.85,183.07c-13.38,36.79-95.61,49.74-122.78,14.52-56.6-77.97,128.59-101.67,124.34-14.8-.54.02-1.08.11-1.56.28Z"/>
          <path class="cls-2" d="M419.45,171.98c.34-66.07-119.59-75.6-149.53-18.63.08.23.2.45.37.66-33.65,50.33,66.8,95.05,122.77,55.69-.01,0-.02-.02-.03-.03,12.1-7.49,20.45-17.2,24.2-28.17.19-.11.3-.36.37-.52-.03.03-.06.07-.1.1,1-2.92,1.61-6,1.94-9.09ZM413.02,183.23c-4.74,9.85-12.85,20.54-25.82,26.13-.04,0-.08,0-.12,0-34.73,16.37-82.79,9.18-108.65-13.06-62.63-84.5,164.22-96.98,134.58-13.06Z"/>
          <g class="cls-1">
            <path class="cls-4" d="M80,230.66s.08.07.12.11c.05.04.04.03-.12-.11Z"/>
            <g>
              <path class="cls-4" d="M453.2,202.52c.04-.07.09-.14.13-.22-.04.07-.09.15-.13.22Z"/>
              <g>
                <path class="cls-4" d="M409.48,286.66c.02-.09.04-.18.05-.28l-.05.28Z"/>
                <path class="cls-4" d="M460.77,199.38c-1.72.22-7.32-1.77-6.63,1.01-3.63,9.67-8.44,16.68-22.15,19.3-32.74,25.54-95.46,41.23-132.63,25.03-.01-.03-.03-.06-.04-.08-17.38-3.27-29.15-13.92-40.73-23.01-5.33-9.67-18.52,8.71-22.43,11.94-41.41,26.87-109.27,26.76-150.48-.99-.24-3.06-5.22-5.61-9.7-6.28-.16,1.3-.65,2.61-.76,3.92,40.27,41.11,131.11,41.18,177.44,6.98,105.57,56.47,174.06-7.89,155.08,62.97-11.45,4.65-22.2,9.14-34.26,13.31,2.62-.21,5.57.51,8.02-.2,5.66,3.09,11.04-3.28,16.31-4.12,19.92-8.4,39.49-17.57,60.83-24.2,3.45-25.98,1.44-52.81,5.85-78.47.04-.02.06-.05.09-.08,0-1.93.1-3.89,1.05-5.71-.55-1.24-2.62-1.19-4.87-1.32Z"/>
              </g>
            </g>
          </g>
          <g class="cls-12">
            <g>
              <path class="cls-4" d="M459.61,378.66c-.13-.15-.3-.28-.47-.42.16.14.31.28.47.42Z"/>
              <path class="cls-4" d="M476.5,382.74c-.51-4.87-1.46-9.72-2.66-14.22-1.39-5.2-1.98-10.38-3.8-15.48-3.61-10.1-6.25-20.07-8.56-30.3-.19-.85-2.24-7.79-1.43-8.12-4.7,1.87-9.4,3.73-14.11,5.6-3.45,1.37-7.66,2.23-10.85,3.84-8.33,4.19-25.62,10.69-35.03,15.92-1.56.58-2.15,2.04-1.29,3.11-1.35,13.53.2,27.11-.06,40.72-.11.05-.21.11-.31.17-.35,2.07.16,4.15.09,6.24.05.02.09.05.14.07,2.63-.72,5.21-1.22,7.9-1.6.56-4.76.08-9.54-.16-14.31-.31-6.05.18-12.05-.43-18.09-.39-3.82-.86-9.68,5.36-11.5-.06.02-.12.04-.19.05,4.35-1.97,8.18-4.53,13.09-5.84-.87,15.54-1.04,31.37-2.56,46.94.02,0,.04,0,.06-.01-.01.17.05.33.13.48,8.36-1.34,17.04-2.73,25.1-4.6,0,.02.02.04.03.07,1.71-.48,3.63-.93,5.47-.77.4-1.03.74-2.01,1.05-2.97-.15-.05-.27-.12-.41-.18.25-9.97-.15-20.05,6.12-29.35.05,2.86.39,5.72-.17,8.56,0-.06.02-.11.03-.17-.13,8.02-4.14,16.85,2.07,23.96,1.79,2.05,1.01,5.67.56,7.92-.4,2.03-3.98,6.34-1.04,8.1,3.15,1.88,14.35,2.65,15.95-.74,1.78-3.77.3-9.64-.11-13.54Z"/>
            </g>
            <path class="cls-4" d="M465.08,326.71c.03.27.08.53.15.8-.05-.27-.1-.53-.15-.8Z"/>
          </g>
          <g>
            <path class="cls-14" d="M361.06,64.79s.04.03.06.05c-.87-.94-.33-.29-.06-.05Z"/>
            <path class="cls-5" d="M468.49,151.02c-10.56-44.27-60.34-91.97-121.69-102.59,11.53,5.02,24.94,13.57,30.16,21.85-13.33-10.39-31.28-20.5-51.13-23.41,19.62,9.39,42.55,21.83,63.91,35.89,7.1,7.62,13.9,15.45,21.92,22.62,6.65,3.74,14.86,6.06,19.43,11.49,3.32,2.57,4.75,6.42,8.72,8.49,10.69,4.39,12.79,13.16,16.39,20.72.46,3.82,8.23,8.94,12.27,4.93Z"/>
          </g>
          <path class="cls-3" d="M113.81,349.42c2.32-5.04-53.88-21.27-62.45-25.59,1.04,1.89-5.78,8.39-3.3,10.57,17.37,6.66,35.44,13.24,52.65,20.3,4.45,1.74,6.2,1.94,6.54,5.67.77,8.61-.19,17.18.49,25.79.03.28,6.7.03,7.49,0-3.11-12.09.55-24.6-1.42-36.74Z"/>
          <path class="cls-3" d="M52.06,378.63c5.99-3.52,3.3-7.18,2.47-11.88,0-2.27-.01-4.55-.11-6.82-.05-1.27-1.84-5.94-1.04-6.86-6.52,7.45-8.67,17.95-8.91,26.57-.18,6.33-.46,12.17,1.88,18.33,1.83-1.42,4.21-1.04,6.03-1.92,2.08-1,.89-2.85.23-4.19-1.35-2.76-4.51-10.91-.56-13.23Z"/>
          <g class="cls-9">
            <path class="cls-8" d="M456.1,382.68c-1.99-.45-3.67.72-5.1,1.51-8,2.96-17.16,3.97-25.81,5.95-10.96,3.17,0,17.04-22.75,26.45-72.64,28.22-225.41,39.78-295.66,4.78-1.52-.98-3.53-1.75-4.89-2.84-2.15-.89-4.16-1.94-5.98-3.22-.65.4-1.3.92-1.89,1.57-2.82-2.85-7.51,1.49-8.5,4.66,1.23.84,2.42,1.71,3.59,2.59.16-.04.32-.07.49-.12.22.18.43.37.66.55.45.52.95,1.03,1.45,1.53,1.15.86,2.32,1.71,3.57,2.5.63.4.98.84,1.15,1.29,9.2,6.21,22.66,10.01,34.1,13.53,15.88,8.03,36.1,11.12,54.89,14.44,64.26,7.58,150.2,9.76,205.59-17.23,20.35-9.72,43.87-17.57,56.48-33.06,4.14-5.44,14.01-19.98,8.61-24.89Z"/>
            <path class="cls-8" d="M421.15,402.61c-.07.08-.26.32-.29.41.03-.05.05-.07.08-.11.06-.1.14-.21.2-.3Z"/>
            <path class="cls-8" d="M421.52,415.52s.01,0,.02,0c.12-.08.24-.17.36-.25.15-.11.17-.12-.38.26Z"/>
          </g>
        </g>
      </g>
    </g>
  </g>
</svg>