<?xml version="1.0" encoding="UTF-8"?>
<svg id="Layer_2" data-name="Layer 2" xmlns="http://www.w3.org/2000/svg" viewBox="0 0 24 24">
  <defs>
    <style>
      .cls-1 {
        fill: #3d96be;
      }

      .cls-2 {
        fill: #7ac2df;
      }

      .cls-3 {
        fill: #fff;
      }

      .cls-4 {
        fill: red;
      }

      .cls-5 {
        fill: #62b0d4;
      }

      .cls-6 {
        fill: #006a9c;
      }

      .cls-7 {
        fill: #ce262b;
      }
    </style>
  </defs>
  <g id="renders">
    <g id="red">
      <rect class="cls-6" width="24" height="24"/>
      <g>
        <rect class="cls-6" x="1.67" y=".73" width="20.49" height="22.54" rx="5.06" ry="5.06"/>
        <rect class="cls-1" x="2.71" y="1.94" width="18.47" height="20.18" rx="4.07" ry="4.07"/>
        <rect class="cls-2" x="3.75" y="3.16" width="16.44" height="17.82" rx="3.08" ry="3.08"/>
      </g>
      <path class="cls-7" d="M17.18,11.65c.38,10.22-11.25,8.64-10.56-.77-.1-8.92,11.43-7.86,10.56.77Z"/>
      <path class="cls-4" d="M16.34,11.67c-.09,6.41-6.75,8.3-8.53,1.54-2.05-8.56,8.33-10.43,8.53-1.54Z"/>
      <path class="cls-3" d="M9.76,8.72c-.06-.19-.13-.38-.19-.57-.03-.09-.07-.19-.11-.28,0,0,0,0,0,0-.92,1.24-1.2,2.88-1.03,4.37.28-1.32.97-1.99,1.71-2.44-.14-.36-.26-.72-.38-1.08Z"/>
      <path class="cls-3" d="M11.85,6.31c-.75.17-1.38.47-1.89.86.03.03.06.07.08.11.33.7.53,1.45.8,2.17.27-.12.51-.27.77-.42.16-.09.3-.23.42-.36.1-.1.23-.19.32-.3.17-.22-.42-2.08-.49-2.06Z"/>
      <path class="cls-5" d="M19.09,18.97c-1.26,1.68-3.51,1.12-5.31,1.17-1.5.06-3.03.55-4.51.21-7.35.52-4.34-8.23-4.87-12.7-.89-2.51,5.2-4.89,2.63-1.47-3.85,4.86-.25,14.14,6.43,13.24,5.07-1.65,5.15-8.84,3.24-12.94-.35-.68-.81-1.5-.32-2.23,2.97-1.28,3.7,2.3,3.29,4.52-.5,3.4.71,6.96-.59,10.21Z"/>
      <path class="cls-3" d="M11.78,17.37c2.68-1.52,3.99-4.03,4.42-7.01.91,2.76-1.32,7.21-4.42,7.01Z"/>
    </g>
  </g>
</svg>